<?xml version="1.0" encoding="utf-8"?>
<!-- Generator: Adobe Illustrator 27.0.0, SVG Export Plug-In . SVG Version: 6.00 Build 0)  -->
<svg version="1.1" id="Layer_1" xmlns="http://www.w3.org/2000/svg" xmlns:xlink="http://www.w3.org/1999/xlink" x="0px" y="0px"
	 viewBox="0 0 800 3080.79" style="enable-background:new 0 0 800 3080.79;" xml:space="preserve">
<style type="text/css">
	@import url('https://fonts.googleapis.com/css?family=Roboto:300,400,700');
	.st0{fill:none;stroke:#221E1F;stroke-width:4;stroke-miterlimit:10;}
	.st1{fill:none;stroke:#00ADEE;stroke-width:4;stroke-miterlimit:10;}
	.st2{fill:#00ADEE;}
	.st3{fill:#221E1F;}
	.st4{enable-background:new    ;}
	.st5{fill:#FFFFFF;}
	.st6{fill:none;stroke:#00ADEE;stroke-width:2;stroke-miterlimit:10;}
	.st7{fill:none;stroke:#221E1F;stroke-width:2;stroke-miterlimit:10;}
	.st8{opacity:0.6;fill:#FFFFFF;enable-background:new    ;}
	.st9{opacity:0.5;}
	.st10{fill:#56B84E;}
	.st11{fill:url(#SVGID_1_);}
	.st12{fill:#141320;}
	.st13{fill:url(#SVGID_00000116196643902551109380000001471266224924828838_);}
	.st14{fill:none;stroke:#221E1F;stroke-width:6;stroke-miterlimit:10;}
	.st15{fill:none;stroke:#00ADEE;stroke-width:5.9999;stroke-miterlimit:9.9999;}
	.st16{fill:none;stroke:#000000;stroke-width:2;stroke-miterlimit:10;}
	.st17{fill:none;}
	.st18{font-family:'Roboto';font-weight: 300;}
	.st19{font-size:32px;}
	.st20{font-family:'Roboto';font-weight: 700;}
	.st21{font-size:46px;}
</style>
<image style="overflow:visible;enable-background:new    ;" width="797" height="2037" xlink:href="BD6AA04538C3DC2C.jpg"  transform="matrix(1 0 0 1 8 768)">
</image>
<line class="st0" x1="426.02" y1="1978.8" x2="318.1" y2="2128.75"/>
<line class="st1" x1="398.39" y1="1744.6" x2="169.66" y2="1680.12"/>
<line class="st0" x1="399.72" y1="1826" x2="147.84" y2="1899.97"/>
<g>
	<g>
		<path class="st1" d="M362.32,1983.95c-57.13-39.29-96.28-103.48-100.97-178.04c-1.78-28.31,1.55-55.75,9.21-81.44"/>
		<g>
			<polygon class="st2" points="361.04,1962.85 357.12,1963.66 361.13,1982.97 341.57,1985.55 342.1,1989.52 365.92,1986.37 			"/>
		</g>
		<g>
			<polygon class="st2" points="282.85,1741.67 279.3,1743.51 270.26,1725.98 253.44,1736.27 251.35,1732.85 271.84,1720.32 			"/>
		</g>
	</g>
</g>
<g>
	<g>
		<path class="st0" d="M381.93,2021.02c-33.74-22.44-60.55-54.73-76.12-93.05"/>
		<g>
			<polygon class="st3" points="380.36,1999.93 376.45,2000.79 380.73,2020.05 361.21,2022.91 361.8,2026.87 385.57,2023.38 			"/>
		</g>
		<g>
			<polygon class="st3" points="326.17,1933.71 324.54,1937.36 306.53,1929.33 299.83,1947.89 296.07,1946.52 304.23,1923.93 			"/>
		</g>
	</g>
</g>
<g class="st4">
	<path class="st2" d="M236.3,1815.21l-5.29,12.18h-2.87l5.3-11.5h-6.81v-2.19h9.67L236.3,1815.21L236.3,1815.21z"/>
	<path class="st2" d="M247.26,1821.72c0,1.89-0.39,3.34-1.18,4.34s-1.93,1.5-3.44,1.5c-1.49,0-2.63-0.49-3.42-1.48
		s-1.19-2.4-1.21-4.23v-2.52c0-1.91,0.4-3.36,1.19-4.35s1.94-1.49,3.43-1.49s2.63,0.49,3.42,1.47s1.19,2.39,1.21,4.23V1821.72z
		 M244.54,1818.95c0-1.14-0.16-1.96-0.47-2.48s-0.79-0.78-1.45-0.78c-0.64,0-1.11,0.25-1.42,0.74c-0.3,0.49-0.47,1.26-0.48,2.31
		v3.33c0,1.12,0.15,1.95,0.46,2.49c0.3,0.54,0.79,0.81,1.46,0.81c0.66,0,1.14-0.26,1.44-0.78c0.29-0.52,0.45-1.32,0.46-2.39
		L244.54,1818.95L244.54,1818.95z"/>
	<path class="st2" d="M249.27,1816.84c0-1,0.3-1.81,0.9-2.42s1.38-0.92,2.36-0.92c0.97,0,1.76,0.3,2.36,0.91s0.9,1.43,0.9,2.47v0.68
		c0,1-0.29,1.8-0.88,2.41c-0.59,0.61-1.38,0.92-2.36,0.92c-0.99,0-1.78-0.31-2.38-0.92s-0.89-1.43-0.89-2.46L249.27,1816.84
		L249.27,1816.84z M250.92,1817.56c0,0.62,0.15,1.09,0.44,1.44s0.69,0.52,1.19,0.52c0.49,0,0.88-0.17,1.16-0.51
		c0.29-0.34,0.43-0.81,0.44-1.42v-0.75c0-0.61-0.15-1.08-0.44-1.43s-0.69-0.52-1.18-0.52c-0.49,0-0.88,0.17-1.17,0.51
		s-0.44,0.83-0.44,1.47L250.92,1817.56L250.92,1817.56z"/>
</g>
<g class="st4">
	<path class="st5" d="M341.13,1959.84h1.45c0.69,0,1.2-0.17,1.53-0.52c0.33-0.34,0.5-0.8,0.5-1.37c0-0.55-0.16-0.98-0.49-1.29
		s-0.78-0.46-1.36-0.46c-0.52,0-0.96,0.14-1.31,0.43s-0.53,0.66-0.53,1.11h-2.72c0-0.71,0.19-1.36,0.58-1.92
		c0.39-0.57,0.92-1.01,1.62-1.33c0.69-0.32,1.46-0.48,2.29-0.48c1.45,0,2.58,0.35,3.4,1.04c0.82,0.69,1.23,1.65,1.23,2.86
		c0,0.63-0.19,1.2-0.57,1.73s-0.88,0.93-1.5,1.21c0.77,0.28,1.35,0.69,1.73,1.24s0.57,1.2,0.57,1.96c0,1.22-0.44,2.19-1.33,2.92
		s-2.06,1.1-3.52,1.1c-1.37,0-2.48-0.36-3.35-1.08s-1.3-1.67-1.3-2.86h2.72c0,0.51,0.19,0.93,0.58,1.26s0.86,0.49,1.42,0.49
		c0.65,0,1.15-0.17,1.52-0.51s0.55-0.79,0.55-1.36c0-1.37-0.75-2.05-2.26-2.05h-1.44v-2.12H341.13z"/>
	<path class="st5" d="M349.82,1961.16l0.79-6.96h7.67v2.27h-5.45l-0.34,2.94c0.65-0.34,1.33-0.52,2.06-0.52
		c1.3,0,2.33,0.4,3.07,1.21c0.74,0.81,1.11,1.94,1.11,3.4c0,0.88-0.19,1.68-0.56,2.37c-0.37,0.7-0.91,1.24-1.6,1.63
		c-0.7,0.39-1.52,0.58-2.46,0.58c-0.83,0-1.6-0.17-2.3-0.5c-0.71-0.33-1.27-0.81-1.68-1.42s-0.63-1.3-0.65-2.08h2.69
		c0.06,0.57,0.26,1.01,0.6,1.33s0.79,0.47,1.34,0.47c0.61,0,1.09-0.22,1.42-0.66c0.33-0.44,0.5-1.07,0.5-1.88
		c0-0.78-0.19-1.37-0.57-1.79s-0.92-0.62-1.63-0.62c-0.65,0-1.17,0.17-1.57,0.51l-0.26,0.24L349.82,1961.16z"/>
	<path class="st5" d="M360.65,1957.35c0-1,0.3-1.81,0.9-2.42s1.38-0.92,2.36-0.92c0.97,0,1.76,0.3,2.36,0.91
		c0.6,0.61,0.9,1.43,0.9,2.47v0.68c0,1-0.29,1.8-0.88,2.41s-1.38,0.92-2.36,0.92c-0.99,0-1.78-0.31-2.38-0.92s-0.89-1.43-0.89-2.46
		L360.65,1957.35L360.65,1957.35z M362.29,1958.07c0,0.62,0.15,1.09,0.44,1.44s0.69,0.52,1.19,0.52c0.49,0,0.88-0.17,1.16-0.51
		c0.29-0.34,0.43-0.81,0.44-1.42v-0.75c0-0.61-0.15-1.08-0.44-1.43s-0.69-0.52-1.18-0.52s-0.88,0.17-1.17,0.51s-0.44,0.83-0.44,1.47
		V1958.07z"/>
</g>
<g>
	<g class="st4">
		<path class="st3" d="M305.01,830.65c-0.9,0.69-1.88,1.07-2.95,1.14s-2.11-0.15-3.13-0.65c0.32,1.25,0.31,2.45-0.04,3.6
			c-0.35,1.15-1.02,2.1-2,2.86c-1.56,1.2-3.21,1.64-4.94,1.3c-1.74-0.34-3.26-1.36-4.59-3.08c-1.34-1.73-1.94-3.48-1.82-5.24
			s0.96-3.24,2.51-4.43c0.97-0.75,2.06-1.16,3.25-1.24c1.19-0.07,2.36,0.21,3.49,0.83c-0.22-1.11-0.16-2.16,0.18-3.16
			s0.96-1.85,1.85-2.54c1.52-1.17,3.1-1.62,4.74-1.33c1.64,0.29,3.08,1.22,4.31,2.81c1.22,1.58,1.77,3.21,1.63,4.87
			C307.36,828.06,306.53,829.48,305.01,830.65z M295.17,835.27c1.01-0.78,1.58-1.73,1.72-2.86s-0.19-2.21-0.98-3.24
			c-0.8-1.03-1.75-1.62-2.85-1.75c-1.11-0.14-2.17,0.19-3.19,0.98s-1.59,1.71-1.71,2.77s0.24,2.13,1.08,3.21
			c0.83,1.07,1.77,1.69,2.83,1.84C293.12,836.37,294.16,836.05,295.17,835.27z M303.98,822.98c-0.69-0.9-1.53-1.41-2.52-1.54
			s-1.96,0.18-2.91,0.92c-0.92,0.71-1.44,1.55-1.58,2.54c-0.14,0.98,0.14,1.93,0.85,2.85c0.71,0.91,1.55,1.43,2.54,1.54
			c0.99,0.11,1.94-0.18,2.85-0.89s1.44-1.57,1.58-2.58C304.93,824.8,304.66,823.85,303.98,822.98z"/>
		<path class="st3" d="M310.66,849.59c-2.68,2.07-5.02,3.15-7.03,3.24c-2.01,0.09-3.77-0.84-5.27-2.78
			c-1.48-1.92-1.95-3.83-1.38-5.74c0.56-1.91,2.09-3.85,4.6-5.84l3.05-2.36c2.65-2.04,4.97-3.11,6.96-3.18
			c1.99-0.08,3.74,0.86,5.25,2.81c1.5,1.94,1.98,3.84,1.44,5.72c-0.53,1.87-2.09,3.82-4.66,5.85L310.66,849.59z M312.02,844.89
			c1.94-1.5,3.14-2.86,3.61-4.09c0.47-1.23,0.24-2.43-0.67-3.61c-0.9-1.17-2-1.68-3.3-1.54s-2.87,0.92-4.71,2.31l-3.66,2.83
			c-1.95,1.5-3.16,2.89-3.66,4.17c-0.49,1.28-0.29,2.49,0.59,3.64c0.87,1.13,1.96,1.63,3.25,1.5c1.3-0.13,2.9-0.9,4.79-2.33
			L312.02,844.89z"/>
		<path class="st3" d="M316.03,869.07c0.63,0.82,1.43,1.34,2.39,1.57c0.97,0.23,1.84,0.09,2.64-0.42l1.67,2.16
			c-0.8,0.55-1.73,0.85-2.8,0.9c-1.07,0.05-2.12-0.17-3.16-0.67s-1.91-1.2-2.61-2.1c-1.41-1.82-1.92-3.74-1.53-5.76
			c0.39-2.01,1.63-3.84,3.74-5.47l0.38-0.3c1.3-1.01,2.65-1.66,4.03-1.97s2.7-0.23,3.95,0.24c1.25,0.46,2.35,1.3,3.29,2.52
			c1.16,1.5,1.67,3.09,1.54,4.78s-0.89,3.12-2.27,4.29l-1.67-2.16c0.81-0.73,1.27-1.61,1.37-2.63s-0.18-1.96-0.85-2.83
			c-0.9-1.16-2.01-1.74-3.34-1.73s-2.79,0.62-4.37,1.84l-0.43,0.33c-1.54,1.19-2.48,2.43-2.83,3.7
			C314.83,866.66,315.12,867.89,316.03,869.07z"/>
		<path class="st3" d="M335.54,870.03l-1.44,1.21c1.91,0.09,3.51,0.97,4.8,2.63c1.45,1.87,1.71,3.7,0.8,5.48
			c0.99-0.05,1.95,0.13,2.9,0.53c0.95,0.41,1.8,1.1,2.55,2.07c2.27,2.93,1.86,5.63-1.21,8.08l-8.97,6.92l-1.77-2.29l8.83-6.82
			c0.96-0.74,1.5-1.51,1.64-2.31s-0.19-1.72-0.99-2.75c-0.66-0.85-1.45-1.36-2.39-1.53s-1.87,0.03-2.8,0.6l-8.88,6.86l-1.78-2.3
			l8.77-6.77c1.95-1.5,2.18-3.21,0.71-5.11c-1.16-1.5-2.59-2.03-4.29-1.6l-9.77,7.54l-1.77-2.29l13.38-10.33L335.54,870.03z"/>
		<path class="st3" d="M361.5,896.95l-3.24,2.5l1.93,2.5l-1.77,1.37l-1.93-2.5l-8.31,6.42c-0.54,0.41-0.85,0.84-0.95,1.27
			s0.06,0.91,0.48,1.45c0.2,0.26,0.53,0.59,0.99,0.97l-1.84,1.42c-0.63-0.48-1.16-1-1.6-1.57c-0.79-1.02-1.08-2.03-0.86-3.03
			s0.89-1.93,2.03-2.81l8.3-6.41l-1.88-2.44l1.77-1.37l1.88,2.44l3.24-2.5L361.5,896.95z"/>
		<path class="st3" d="M355.22,909.09c1.31-1.01,2.69-1.67,4.13-1.96c1.44-0.29,2.81-0.2,4.09,0.28c1.28,0.48,2.37,1.31,3.28,2.49
			c1.41,1.82,1.91,3.78,1.52,5.88s-1.64,3.96-3.73,5.57l-0.16,0.12c-1.3,1.01-2.67,1.66-4.08,1.96c-1.42,0.3-2.78,0.21-4.07-0.27
			c-1.29-0.48-2.41-1.32-3.33-2.53c-1.4-1.81-1.91-3.77-1.51-5.87c0.39-2.1,1.63-3.95,3.71-5.56L355.22,909.09z M356.72,911.6
			c-1.48,1.15-2.41,2.41-2.78,3.79s-0.11,2.65,0.79,3.8c0.9,1.16,2.07,1.73,3.51,1.71c1.44-0.02,2.98-0.66,4.62-1.93
			c1.47-1.13,2.39-2.4,2.76-3.8c0.37-1.4,0.11-2.68-0.78-3.83c-0.87-1.13-2.03-1.69-3.46-1.69
			C359.95,909.66,358.4,910.31,356.72,911.6z"/>
		<path class="st3" d="M370.49,942.96l-1.78-2.3l15.25-11.78l-5.26-3.3l2.08-1.6l7.52,4.65l0.28,0.36L370.49,942.96z"/>
		<path class="st3" d="M395.74,947.98l-1.44,1.21c1.91,0.09,3.51,0.97,4.8,2.63c1.44,1.87,1.71,3.7,0.8,5.48
			c0.99-0.05,1.95,0.13,2.9,0.53c0.95,0.41,1.79,1.1,2.55,2.07c2.27,2.94,1.86,5.63-1.21,8.08l-8.97,6.92l-1.77-2.29l8.83-6.82
			c0.96-0.74,1.5-1.51,1.64-2.31s-0.19-1.72-0.99-2.75c-0.66-0.85-1.45-1.36-2.39-1.53s-1.87,0.03-2.8,0.6l-8.88,6.86l-1.78-2.3
			l8.77-6.77c1.95-1.5,2.18-3.21,0.71-5.11c-1.16-1.5-2.59-2.03-4.29-1.6l-9.77,7.54l-1.77-2.29l13.38-10.33L395.74,947.98z"/>
		<path class="st3" d="M401.88,984.11c-1.4-1.81-1.95-3.75-1.63-5.81c0.31-2.06,1.47-3.86,3.46-5.4l0.42-0.32
			c1.33-1.03,2.71-1.69,4.14-1.98c1.43-0.3,2.8-0.22,4.09,0.24c1.29,0.46,2.35,1.21,3.17,2.28c1.34,1.74,1.81,3.53,1.41,5.38
			s-1.67,3.6-3.81,5.25l-0.95,0.74l-7-9.07c-1.29,1.05-2.06,2.26-2.3,3.62c-0.24,1.37,0.08,2.62,0.95,3.75
			c0.62,0.81,1.32,1.37,2.08,1.67c0.76,0.31,1.58,0.46,2.45,0.46l-0.01,2.24C405.77,987.37,403.61,986.35,401.88,984.11z
			 M413.65,974.56c-0.71-0.92-1.65-1.44-2.8-1.55s-2.4,0.23-3.72,1.02l5.18,6.7l0.17-0.13c1.11-0.96,1.77-1.97,1.98-3.03
			C414.66,976.52,414.39,975.51,413.65,974.56z"/>
		<path class="st3" d="M427.22,982.05l-3.24,2.5l1.93,2.5l-1.77,1.37l-1.93-2.5l-8.31,6.42c-0.54,0.41-0.85,0.84-0.95,1.27
			s0.06,0.91,0.48,1.45c0.2,0.26,0.53,0.59,0.99,0.97l-1.84,1.42c-0.63-0.48-1.16-1-1.6-1.57c-0.79-1.02-1.08-2.03-0.86-3.03
			s0.9-1.94,2.03-2.81l8.3-6.41l-1.88-2.44l1.77-1.37l1.88,2.44l3.24-2.5L427.22,982.05z"/>
		<path class="st3" d="M418.63,1005.8c-1.4-1.81-1.95-3.75-1.63-5.81c0.31-2.06,1.47-3.86,3.46-5.4l0.42-0.33
			c1.33-1.02,2.71-1.69,4.14-1.98c1.43-0.3,2.8-0.22,4.09,0.24c1.29,0.46,2.35,1.21,3.17,2.28c1.34,1.74,1.81,3.54,1.41,5.38
			c-0.4,1.85-1.67,3.6-3.8,5.25l-0.95,0.74l-7-9.07c-1.29,1.05-2.06,2.26-2.3,3.62c-0.24,1.37,0.08,2.62,0.95,3.75
			c0.62,0.81,1.32,1.37,2.08,1.67c0.76,0.31,1.58,0.46,2.45,0.46l-0.01,2.24C422.52,1009.06,420.36,1008.04,418.63,1005.8z
			 M430.4,996.25c-0.71-0.92-1.65-1.44-2.8-1.55c-1.16-0.11-2.4,0.23-3.72,1.02l5.18,6.7l0.17-0.13c1.11-0.96,1.77-1.97,1.98-3.03
			C431.41,998.21,431.14,997.21,430.4,996.25z"/>
		<path class="st3" d="M441.27,1011.19c-0.21-0.39-0.47-0.79-0.78-1.19c-1.16-1.5-2.58-2.03-4.28-1.57l-9.5,7.33l-1.77-2.29
			l13.38-10.33l1.72,2.23l-1.52,1.23c1.77-0.17,3.19,0.43,4.26,1.81c0.34,0.45,0.55,0.83,0.61,1.15L441.27,1011.19z"/>
		<path class="st3" d="M438.33,1030.8l-1.77-2.29l19-14.67l1.77,2.29L438.33,1030.8z"/>
		<path class="st3" d="M447.5,1028.59c1.31-1.01,2.69-1.67,4.13-1.96c1.44-0.29,2.81-0.2,4.08,0.28c1.28,0.48,2.37,1.31,3.29,2.49
			c1.41,1.82,1.91,3.78,1.52,5.88s-1.64,3.96-3.73,5.57l-0.16,0.12c-1.3,1.01-2.67,1.66-4.08,1.96c-1.42,0.3-2.78,0.21-4.07-0.27
			s-2.4-1.32-3.33-2.53c-1.4-1.81-1.91-3.77-1.51-5.87s1.63-3.95,3.71-5.56L447.5,1028.59z M449.01,1031.1
			c-1.48,1.15-2.41,2.41-2.78,3.79s-0.11,2.65,0.79,3.8c0.9,1.16,2.07,1.73,3.51,1.71s2.98-0.66,4.62-1.93
			c1.47-1.13,2.39-2.4,2.76-3.8s0.11-2.68-0.78-3.83c-0.87-1.13-2.03-1.69-3.46-1.69C452.23,1029.16,450.68,1029.81,449.01,1031.1z"
			/>
		<path class="st3" d="M467.36,1040.74l-1.62,1.37c2.08,0.03,3.75,0.87,5.02,2.52c2.18,2.83,1.69,5.49-1.48,7.98l-8.84,6.83
			l-1.77-2.29l8.86-6.84c0.96-0.75,1.5-1.52,1.63-2.31s-0.16-1.64-0.87-2.56c-0.57-0.74-1.27-1.24-2.1-1.5
			c-0.83-0.26-1.69-0.29-2.57-0.11l-9.54,7.36l-1.77-2.29l13.38-10.33L467.36,1040.74z"/>
		<path class="st3" d="M469.48,1057.08c2.08-1.61,4.12-2.41,6.09-2.4c1.98,0.01,3.58,0.81,4.81,2.41c1.26,1.63,1.67,3.35,1.22,5.16
			l1.57-1.03l1.61,2.09l-13.06,10.08c-1.73,1.34-3.49,1.88-5.28,1.62s-3.35-1.25-4.69-2.98c-0.75-0.96-1.27-2.07-1.57-3.31
			c-0.3-1.24-0.28-2.38,0.06-3.42l2.29,0.13c-0.45,1.92-0.13,3.58,0.96,5c0.86,1.11,1.84,1.74,2.95,1.88
			c1.11,0.14,2.23-0.23,3.37-1.11l1.15-0.89c-1.76-0.1-3.25-0.94-4.48-2.52c-1.21-1.57-1.56-3.32-1.04-5.26
			C465.96,1060.58,467.31,1058.76,469.48,1057.08z M471,1059.58c-1.51,1.17-2.46,2.39-2.84,3.67s-0.15,2.48,0.71,3.59
			c1.11,1.44,2.59,2,4.42,1.66l6.11-4.72c0.74-1.69,0.56-3.23-0.52-4.63c-0.86-1.11-1.96-1.65-3.31-1.61
			C474.22,1057.6,472.7,1058.27,471,1059.58z"/>
		<path class="st3" d="M475.31,1076.21c0.39-0.31,0.82-0.44,1.26-0.41c0.45,0.03,0.85,0.28,1.21,0.75s0.5,0.93,0.43,1.38
			c-0.08,0.45-0.31,0.82-0.71,1.13c-0.38,0.29-0.79,0.42-1.23,0.37s-0.85-0.3-1.21-0.77s-0.51-0.92-0.43-1.35
			S474.93,1076.51,475.31,1076.21z"/>
	</g>
</g>
<g>
	<g>
		<line class="st6" x1="213.04" y1="766.41" x2="521.93" y2="1180.85"/>
		<g>
			<path class="st2" d="M213.51,783.11c0.55-0.04,0.96-0.52,0.92-1.07l-1.12-15.26l14.3,5.44c0.52,0.2,1.1-0.06,1.29-0.58
				c0.2-0.52-0.07-1.1-0.58-1.29l-15.77-5.99c-0.32-0.12-0.68-0.07-0.95,0.13s-0.42,0.54-0.4,0.88l1.24,16.82
				c0.02,0.2,0.09,0.38,0.2,0.52C212.83,782.97,213.16,783.13,213.51,783.11z"/>
		</g>
		<g>
			<path class="st2" d="M506.07,1175.63c0.2-0.52,0.77-0.77,1.29-0.58l14.3,5.43l-1.12-15.26c-0.04-0.55,0.37-1.03,0.92-1.07
				c0.55-0.04,1.03,0.38,1.07,0.93l1.24,16.82c0.02,0.34-0.13,0.67-0.4,0.88s-0.63,0.25-0.95,0.13l-15.77-5.99
				c-0.18-0.07-0.34-0.19-0.45-0.34C506,1176.32,505.94,1175.96,506.07,1175.63z"/>
		</g>
	</g>
</g>
<g>
	<path class="st7" d="M512.08,451.47c-2.66,1.66-5.85-1.63-6.45-4.65s-0.38-6.58-2.75-8.62c-4.44-3.82-10.44,2.01-14.83,5.86
		c-11.55,10.13-29.35,6.93-44.91,7.65c-15.12,0.7-29.68,5.7-44.72,7.33c-19.71,2.14-39.57-1.54-59.06-5.2
		c-11.21-2.11-22.91-4.43-31.82-11.38c-11.2-8.74-15.96-24.53-11.37-37.73s18.21-22.9,32.54-23.18c6.87,10.26-7.73,25.66,0.05,35.29
		c1.9,2.35,4.79,3.72,7.65,4.81c9.91,3.79,20.55,5.28,31.08,6.75c20.12,2.79,41.34,5.47,60.18-1.86c6.87-2.67,13.14-6.59,19.79-9.77
		c16.34-7.81,34.56-10.96,52.51-14.03c15.29-2.62,30.77-5.24,46.27-4.14c28.31,2.02,55.36,17.22,71.32,40.08
		c17.18,24.6,24.97,54.27,34.14,82.63c2.41,7.46,4.82,15.28,10.37,20.94c5.63,5.73,13.68,8.42,21.41,10.92
		c12.35,3.99,24.69,7.97,37.04,11.96c9.84,3.18,20.23,6.71,26.78,14.53c2.16,2.58,3.87,5.6,6.54,7.68
		c4.03,3.13,11.95,1.24,17.08,3.53c0.89,0.4,1.92,1.27,1.47,2.11c-0.14,0.27-0.42,0.45-0.68,0.62c-2.89,1.87-5.78,3.74-8.67,5.61
		c-0.64,4.32,0.21,9.01,1.06,13.3s1.33,8.91-0.57,12.86c-1.24-0.41-2.65,0.1-3.61,0.96c-0.97,0.86-1.59,2.01-2.19,3.15
		c-1.87,3.52-0.94,7.4-1.31,11.34c-0.34,3.54-0.68,7.14-2.06,10.43c-0.27,0.65-0.59,1.29-1.09,1.78c-0.94,0.92-2.36,1.17-3.68,1.38
		c-3.41,0.53-6.94,1.05-10.27,0.14c-2.33-0.64-4.4-1.95-6.43-3.24c-1.8-1.14-3.6-2.29-5.4-3.43c-0.18-0.12-0.39-0.3-0.33-0.5
		c0.07-0.2,0.48,0.02,0.28,0.12c-0.78-0.96-2.02-0.8-2.8-1.76c-1.66-2.05-3.41-4.17-5.83-5.28c-2.77-1.27-6.23-0.97-8.72,0.75"/>
	<path class="st8" d="M732.89,651.33c-5.21-3.31-12.72-13.1-19.19-11.7c-10.5,2.26-6.23,16.14-4.36,22.84
		c1.65,5.89,2.27,12.02,3.43,18.03c2.65,13.79,8.08,26.87,13.46,39.84c0.36,0.87,0.76,1.78,1.53,2.31c0.87,0.59,2.01,0.56,3.06,0.54
		c10.43-0.19,20.9,3.02,29.43,9.02c-2.01,1.65-4.87,1.62-7.48,1.51c-21.28-0.92-43.85,0.22-64.91-2.45
		c-14.77-1.88-23.4-27.72-29.46-40.71c-4.97-10.66-9.37-21.74-10.88-33.4c-0.18-1.41-0.34-2.87-1.05-4.11
		c-0.65-1.12-1.71-1.95-2.77-2.69c-11-7.7-25.88-10.17-34.1-20.79c-3.97-5.14-5.88-11.65-9.91-16.74
		c-6.38-8.04-18.05-12.79-19.63-22.93c-1.56-0.1-3.12-0.19-4.68-0.29c0.5-7.6-6.13-13.62-12.47-17.83
		c-6.34-4.21-13.59-8.62-15.56-15.97c0.23,1.1,0.47,2.21,0.7,3.31c-4.64-5.94-13.16-8.86-20.19-6.14s-11.4,11.41-8.62,18.41
		c1.41,3.56,4.46,6.42,8.1,7.61c3.58,1.17,7.66,0.8,10.9,2.71c4.94,2.93,5.62,10.47,2.28,15.14c-3.34,4.67-9.49,6.64-15.22,6.39
		s-11.19-2.38-16.53-4.47c-4-1.57-8.32-3.41-10.4-7.17c-1.04-1.88-1.45-4.13-2.89-5.72c-1.45-1.6-3.68-2.23-5.46-3.45
		c-3.79-2.6-5.14-7.47-6.21-11.94c-2.01-8.32-4.01-16.64-6.02-24.97c-2.11-8.75-3.88-19.05,2-25.87c3.91-4.53,10.25-6.2,14.64-10.27
		c5.59-5.19,7.12-13.3,8.34-20.83c1.63-10.05,5.78-22.33,5.28-32.46c-0.2-4.05-1.87-14.99-5.19-17.85
		c-4.44-3.81-10.44,2.02-14.82,5.87c-11.55,10.13-29.35,6.93-44.91,7.65c-15.12,0.7-29.68,5.7-44.72,7.33
		c-19.71,2.14-39.57-1.54-59.06-5.2c-11.21-2.11-22.91-4.43-31.82-11.38c-11.2-8.74-15.96-24.53-11.37-37.73s18.21-22.9,32.54-23.18
		c6.87,10.26-7.73,25.66,0.05,35.29c1.9,2.35,4.79,3.72,7.65,4.81c9.91,3.79,20.55,5.28,31.08,6.75
		c20.12,2.79,41.34,5.47,60.18-1.86c6.87-2.67,13.14-6.59,19.79-9.77c16.34-7.81,34.56-10.96,52.51-14.03
		c15.29-2.62,30.77-5.24,46.27-4.14c28.31,2.02,55.36,17.22,71.32,40.08c17.18,24.6,24.97,54.27,34.14,82.63
		c2.41,7.46,4.82,15.28,10.37,20.94c5.63,5.73,13.68,8.42,21.41,10.92c12.35,3.99,24.69,7.97,37.04,11.96
		c9.84,3.18,20.23,6.71,26.78,14.53c2.16,2.58,3.87,5.6,6.54,7.68c4.03,3.13,11.95,1.24,17.08,3.53c0.89,0.4,1.92,1.27,1.47,2.11
		c-0.14,0.27-0.42,0.45-0.68,0.62c-2.89,1.87-5.78,3.74-8.67,5.61c-0.64,4.32,0.21,9.01,1.06,13.3s1.33,8.91-0.57,12.86
		c-1.24-0.41-2.65,0.1-3.61,0.96c-0.97,0.86-1.59,2.01-2.19,3.15c-1.87,3.52-0.94,7.4-1.31,11.34c-0.34,3.54-0.68,7.14-2.06,10.43
		c-0.27,0.65-0.59,1.29-1.09,1.78c-0.94,0.92-2.36,1.17-3.68,1.38c-3.41,0.53-6.94,1.05-10.27,0.14
		C736.98,653.93,734.91,652.62,732.89,651.33z"/>
	<g class="st9">
		
			<image style="overflow:visible;enable-background:new    ;" width="346" height="151" xlink:href="CFFB64D681DC190B.png"  transform="matrix(1 0 0 1 258 345)">
		</image>
	</g>
	<path class="st7" d="M703.19,622.79c-0.36-2.07-0.71-4.15-1.07-6.22c1.72,10.3,3.65,23.52,5.37,33.83
		c0.77,4.61,1.54,9.22,2.33,13.82c1.1,6.36,2.26,12.72,3.42,19.07c0.67,3.7,1.37,7.46,3.05,10.85c0.76,1.52,1.7,2.96,2.38,4.52
		c0.74,1.71,1.14,3.54,1.53,5.36c1.32,6.1,2.64,12.2,3.95,18.31c3.15,0.93,7.18,1.57,10.42,1.01c1.35-0.23,2.67-0.59,4.04-0.67
		c1.5-0.09,2.99,0.16,4.47,0.41c1.69,0.28,3.39,0.57,5.08,0.85c3.02,0.5,6.11,1.03,8.76,2.54c3.04,1.72,5.29,4.71,6.07,8.05"/>
	<path class="st7" d="M680.76,731.42c-1.36-2.06-1.85-4.65-1.33-7.05c-1.12-0.39-2.25-0.79-3.37-1.18c0.12-3.63-1.64-7.28-4.59-9.52
		c-1.28-0.97-2.8-1.74-3.65-3.09c-0.58-0.94-0.76-2.05-0.99-3.12c-0.57-2.7-1.51-5.33-2.78-7.79c-2.06-4-5-7.58-6.51-11.8
		c-2.06-5.78-1.27-12.29-3.63-17.96c-1.3-0.72-2.6-1.44-3.9-2.17c-0.95-3.73-1.06-7.66-0.31-11.42c-1.62,0.3-3.36-1.06-3.4-2.66
		c-0.04-1.58-3.12-1.76-4.61-2.39c-1.71-0.71-2.67-2.78-2.1-4.49c-0.63,0-1.24,0.38-1.51,0.93c0.01-0.36,0.01-0.72,0.02-1.08
		c-1.75,0.18-3.45-1.47-3.27-3.17c-1.59,0.49-3.47-0.01-4.58-1.23c-1.11,0.16-2.23,0.33-3.34,0.49"/>
	<path class="st7" d="M525.4,541.61c0.25,3.38-2.57,6.17-5.37,8.18c-2.79,2.01-5.99,3.99-7.07,7.21c-1.78,5.27,2.9,10.26,5.77,15.06
		c0.75,1.25,1.42,2.59,2.57,3.51c1.7,1.35,4.06,1.46,6.22,1.85c8.34,1.48,10.36,6.19,15.06,12.19c1.96,2.51,2.84,6.68,0.13,8.4
		c-1.12,0.71-2.56,0.77-3.77,1.32c-0.82,0.38-1.51,0.97-2.24,1.51c-2.86,2.12-6.36,3.41-9.96,3.66c-6.26,0.43-12.27-2.2-17.97-4.77
		c-2.52-1.13-5.13-2.34-6.83-4.48c-1.1-1.38-1.74-3.06-2.72-4.53c-2.52-3.78-7.12-5.9-9.65-9.67c-1.39-2.07-2.06-4.51-2.71-6.9
		c-3.88-14.21-7.75-28.42-11.63-42.63c-0.88-3.22,0.24-5.52,2.09-8.31c3.94-5.95,13.97-6.48,16.73-13.03"/>
	<path class="st7" d="M736.41,598.55c0.78-4.32,0.74-8.92-1.15-12.9c-1.89-3.99-5.91-7.21-10.41-7.32c-4.09-0.1-7.9,2.33-10.4,5.47
		c-2.51,3.14-3.94,6.95-5.33,10.69c-0.12,0.32-0.2,0.76,0.11,0.93c0.3,0.17,0.45-0.56,0.15-0.4"/>
	<path class="st7" d="M738.55,617.66c2.59,0.68,5.01,1.96,7.01,3.7"/>
	<path class="st7" d="M745.36,632.89c0.01,3.32,0.03,6.65,0.04,9.97c0.11-0.16,0.23-0.31,0.34-0.47"/>
	<path class="st3" d="M753.26,651.87c-1.67-0.14-3.29-0.89-4.45-2.07c-1.05-1.06-2.31-2.62-3.68-2c-0.85,0.38-1.11,1.43-1.18,2.35
		c-0.09,1.34,0.01,2.7,0.31,4.01c0.58-0.2,1.15-0.4,1.73-0.59"/>
	<path class="st7" d="M747.37,655.65c1.03,5.35,0.95,10.89-0.24,16.2"/>
	<path class="st7" d="M728.32,647.67c-6.39,1.97-12.36,5.21-17.44,9.45c0.34-0.13,0.68-0.25,1.01-0.38"/>
	<path class="st7" d="M744.76,654.73c-0.23,5.75-2.6,11.39-6.57,15.65"/>
	<path class="st7" d="M731.16,648.11c-2.47,4.2-5.34,8.18-8.57,11.86"/>
	<path class="st7" d="M741.62,652.49c-0.61,4.51-1.22,9.02-1.82,13.54"/>
	<path class="st7" d="M733.63,647.96c-0.62,3.83-0.67,7.75-0.14,11.6"/>
	<path class="st7" d="M634.58,634.1c-3.37,2.31-6.74,4.62-10.11,6.92"/>
	<path class="st7" d="M625.51,629.51c-4.4,3.77-8.28,8.11-11.5,12.86"/>
	<path class="st7" d="M615.91,625.66c-4.94,3.51-9.39,7.66-13.21,12.3c0.27-0.75,0.54-1.5,0.8-2.24"/>
	<path class="st7" d="M608.54,619.85c-4.56,1.48-9.32,2.39-14.13,2.68"/>
	<path class="st7" d="M600.93,611.66c-5.43,0.9-10.71,2.65-15.58,5.17c0.89-0.13,1.7-0.64,2.18-1.38"/>
	<path class="st7" d="M595.68,606.4c-3.07,0.77-6.23,1.17-9.4,1.21"/>
	<path class="st7" d="M590.88,600.9c-5.23-0.15-10.45-0.3-15.68-0.45"/>
	<path class="st7" d="M579.49,591.55c-6.08-0.55-12.14-1.35-18.15-2.41c0.58-0.19,1.17-0.38,1.75-0.58"/>
	<path class="st7" d="M570.64,582.34c-6.56,0.25-13.12,0.19-19.68-0.15c1.08-0.59,2.36-0.82,3.59-0.63"/>
	<path class="st7" d="M584.44,594.31c-6.73-0.46-13.53,0.09-20.08,1.62"/>
	<path class="st7" d="M576.04,584.77c-4.12,0.5-8.25,1-12.37,1.5"/>
	<path class="st7" d="M553.63,575.37c7.27-1.48,14.55-2.96,21.82-4.43"/>
	<path class="st7" d="M547.89,570.37c5.32-1.92,10.82-3.39,16.4-4.4"/>
	<path class="st7" d="M558.6,560.61c-3.45,1.07-6.9,2.13-10.34,3.2c5.77-3.36,7.12-8.57,13.74-9.75"/>
	<path class="st7" d="M536.88,559.9c1.78-3.69,5.16-6.63,9.13-7.94"/>
	<path class="st7" d="M589.85,620.56c3.19-1.48,6.39-2.96,9.58-4.43"/>
	<path class="st7" d="M599.27,626.82c5.95-0.43,11.86-1.24,17.69-2.43c-0.76-0.02-1.52-0.04-2.28-0.06"/>
	<path class="st7" d="M542.88,560.54c4.32-1.09,8.64-2.19,12.96-3.28"/>
	<path class="st7" d="M533.1,551.83c1.78-1.82,4.14-3.11,6.67-3.64"/>
	<path class="st7" d="M531.29,544.88c10.75-4.04,22.15-6.46,33.67-7.15"/>
	<path class="st7" d="M546.12,556.31c3.72-1.11,7.65-1.59,11.54-1.42"/>
	<path class="st7" d="M596.75,618.48c7.21-0.86,14.32-2.49,21.16-4.84"/>
	<path class="st7" d="M629.51,629.46c-7.13,6.5-13.24,14.04-18.07,22.3"/>
	<path class="st7" d="M620.27,621.56c-6.45,2.2-13.22,3.51-20.05,3.88"/>
	<path class="st7" d="M618.23,629.47c-2.77,1.75-5.31,3.84-7.54,6.2"/>
	<path class="st7" d="M630.49,638.37c-5.27,1.11-10.37,2.95-15.11,5.44"/>
	<path class="st7" d="M605.35,607.69c-4.09,1.77-8.44,2.98-12.88,3.6"/>
	<path class="st7" d="M495.61,508.25c-1.08-0.01-2.16-0.22-3.17-0.6c0.52,0.15,1.11,0.02,1.51-0.32"/>
	<path class="st7" d="M517.86,464.23c-4.43-0.84-8.9-1.44-13.39-1.82c0.54,0.05-2.7-1.48-2.16-1.43c3.45-0.73,6.9-1.47,10.34-2.2"/>
	<path class="st7" d="M500.83,506c-2.39-0.45-4.79-0.9-7.18-1.35"/>
	<path class="st7" d="M504.3,496.37c-1.95-0.42-3.9-0.85-5.85-1.27"/>
	<path class="st7" d="M510.07,483.35c-1.92,0.37-4-0.1-5.57-1.25"/>
	<path class="st7" d="M514.46,472.92c-3.08-0.58-6.16-1.15-9.25-1.73"/>
	<path class="st7" d="M500.68,500.67c-1.44-0.47-8-1.23-6.75-0.77"/>
	<path class="st7" d="M506.62,492.72c-1.69-0.38-3.28-1.14-4.61-2.22"/>
	<path class="st7" d="M510.28,479.7c-1.12-0.32-2.24-0.63-3.36-0.95"/>
	<path class="st7" d="M514.26,468.73c-3.38-0.33-6.76-0.66-10.13-0.99"/>
	<path class="st7" d="M505.67,486.49c-1.46,0.04-2.94-0.3-4.22-0.99"/>
	<path class="st7" d="M508.2,454.84c-1.54,0.1-3.06,0.55-4.39,1.3"/>
	<path class="st7" d="M502.76,494.12c-1.12-0.74-2.44-1.21-3.78-1.35"/>
	<path class="st7" d="M501.38,503.56c-1.41-0.29-2.82-0.59-4.22-0.88"/>
	<path class="st7" d="M475.23,521.69c-5.87-6.26-16.04-4.98-24.74-4.84c-12.92,0.21-26.05-3.43-36.32-11.07
		c-2.86-2.13-5.51-4.56-8.67-6.23c-4.2-2.23-9.06-3-13.83-3.4c-17.7-1.49-35.76,1.62-51.84,8.9c-12.88,5.84-25.39,14.52-39.62,14.05
		c-9.77-0.32-19.01-5.04-28.78-5.08c-5.99-0.02-11.85,1.72-17.4,3.89c-11.24,4.38-21.72,10.58-30.89,18.25"/>
	<path class="st7" d="M556.18,598.3c2.65,9.01,14.52,38.63,3.92,45.66c-0.52,0.34-1.11,0.65-1.42,1.18
		c-0.75,1.29,1.62,12.02,1.28,14.59c-1.6,12.19-4.29,24.24-8.03,35.98c-2.46,7.74-5.72,15.79-12.46,20.54
		c-3.79,2.67-8.36,4.05-12.83,5.39c-11.63,3.48-23.28,6.96-35.18,9.48c-26.05,5.51-53.01,6.33-79.6,4.25
		c-12.07-0.95-24.32-2.55-35.32-7.51c-0.28-3.82-0.61-7.65-0.99-11.46"/>
	<path class="st7" d="M351.37,548.13c10.38,1.27,20.77,2.54,31.15,3.82c2.77,0.34,6.06,1.05,7.04,3.6c0.56,1.45,0.17,3.14,0.83,4.55
		c0.94,1.99,3.47,2.59,5.6,3.27c10.6,3.38,17.27,13.74,27.24,18.61c5.87,2.87,12.66,3.71,18.32,6.95s9.95,10.52,6.55,15.96
		c6.09,3.47,12.18,6.95,18.27,10.42c-2.52,4.13,1.16,9.68,5.83,11.27c4.67,1.59,9.78,0.56,14.7,0.01c4.91-0.55,10.44-0.4,14.05,2.9
		c-0.44,1.74-0.88,3.49-1.32,5.23c12.14-0.75,25.25-1.26,35.41,5.27c4.18,2.69,7.61,6.48,9.81,10.86c0.51,1.01,1.05,2.15,2.13,2.57
		s2.61-0.67,2.03-1.65"/>
	<path class="st7" d="M216.15,737.71c-1.14-7.61-0.47-15.47,1.95-22.78c0.99-2.99,2.27-5.91,2.82-9c0.64-3.6,0.34-7.57,2.47-10.58
		c2.28-3.22,6.91-4.62,8.38-8.26c1.17-2.9-0.11-6.22,0.5-9.28c1.2-6.02,8.77-8.4,15.08-8.57c-1.23-3.33,2.51-6.65,6.13-6.94
		c3.62-0.29,7.1,1.24,10.68,1.87c11,1.93,22.63-4.76,33.15-1.08c-1.02,0.08-2.03,0.15-3.05,0.23c7.1-0.07,12.54-0.2,19.64-0.27
		c5.25-0.05,10.65-0.08,15.55,1.74c2.54,0.95,4.86,2.36,7.16,3.76c4.51,2.75,9.02,5.51,13.53,8.26c0.12,7.14,7.17,14.12,3.97,20.53
		c3.35-1.16,6.78,2.29,7.17,5.73c0.38,3.44-1.16,6.76-2.09,10.09c-1.26,4.53-1.41,9.35-0.42,13.95c0.51,2.36,0.97,5.48-1.24,6.57"/>
	<path class="st7" d="M791.24,742.34c-45.09-0.48-90.19-0.95-135.28-1.43c-11.06-0.12-22.16-0.23-33.12,1.22
		c-12.33,1.63-25.15,5.2-36.93,1.24c-50.35,0.19-98.31,1.12-148.66,1.31"/>
	<path class="st7" d="M417.87,683.76c13.87-1.29,27.75-2.59,41.62-3.88c3.18-0.3,6.56-0.67,9.05-2.61c4.87,1.55,10,2.12,15.09,2.68
		c5.61,0.61,11.23,1.23,16.84,1.84c2.22,0.24,4.44,0.49,6.66,0.7c5.28,0.5,10.58,0.83,15.88,0.98"/>
	<path class="st7" d="M503.96,645.17c-11.82,0.19-23.96,0.44-34.9,4.79c-6.65,2.65-12.87,6.8-20.03,7.45"/>
	<path class="st7" d="M529.02,704.83c-16.41,4.83-33,9.68-50.11,10.78"/>
	<path class="st7" d="M363.53,703.69c6.25-1.69,12.16-4.56,17.31-8.4"/>
	<path class="st7" d="M532.83,710.8c0.35-7.38,0.91-14.81,2.98-21.91c4.04-13.88,13.78-26.31,14.26-40.74"/>
	<path class="st7" d="M300.14,597.02c-1.13-5.17-5.1-9.42-9.73-12.19s-9.92-4.28-15.14-5.75c-3.87-1.09-8.52-2.03-11.52,0.57
		c-0.9,0.78-1.57,1.83-2.64,2.36c-1.94,0.97-4.31-0.15-6.47,0.14c-2.75,0.37-4.61,2.89-5.74,5.35s-1.95,5.19-3.99,7.02
		c-2.04,1.82-5.88,2.08-7.2-0.3c-1.82,1.91-3.94,3.56-6.27,4.86"/>
	<path class="st7" d="M299.71,536.74c-3.31,0.86-6.68,1.75-9.59,3.51s-5.36,4.54-5.84,7.84c-0.49,3.38,0.63,7.83-2.46,9.43
		c-1.1,0.57-2.77,0.86-2.8,2.07"/>
	<path class="st7" d="M225.71,547.62c8.62,3.57,16.34,9.18,22.29,16.23c-1.17,1.98-1.6,4.36-1.2,6.61"/>
	<path class="st7" d="M334.02,554.36c-9.65-1.13-19.75,2.64-26.13,9.74c-0.93,1.04-1.84,2.18-3.15,2.7
		c-1.3,0.52-2.78,0.34-4.19,0.28c-7.25-0.31-14.55,2.99-18.96,8.57"/>
	<path class="st10" d="M740.11,619.47c-1.21,0.69-1.53,2.46-0.74,3.59c0.79,1.14,2.46,1.54,3.77,1.04c1.1-0.42,1.94-1.43,2.14-2.57"
		/>
	<path class="st7" d="M740.11,619.47c-1.21,0.69-1.53,2.46-0.74,3.59c0.79,1.14,2.46,1.54,3.77,1.04c1.1-0.42,1.94-1.43,2.14-2.57"
		/>
	<g>
		<path class="st3" d="M533.67,528.44c0.94,1.02,1.86,2.1,2.3,3.4c0.43,1.3,0.28,2.87-0.73,3.82c-1.93-0.23-3.99-0.53-5.42-1.82
			c-1.55-1.4-1.93-3.61-2.23-5.64c-0.33-2.27-0.62-4.78,0.69-6.69c1.55,0.98,3.11,1.98,4.38,3.3c1.26,1.32,2.21,3.01,2.25,4.8"/>
		<path class="st3" d="M539.31,508.5c1.45,2.07,3.17,4.88,1.3,7.46c-1.23,1.7-1.21,1.85-2.98,0.45
			C534.88,514.21,535,502.35,539.31,508.5z"/>
		<path class="st3" d="M531.75,502.53c0.19-0.99,0.36-2.06-0.11-2.95c-0.43-0.8-1.29-1.28-2.1-1.71c-0.94-0.5-1.96-1.02-3.02-0.89
			c-1.17,0.14-2.12,1.06-2.59,2.11s-0.56,2.22-0.65,3.37c-0.15,2.15-0.31,4.35,0.27,6.43c0.6,2.17,3.3,6.18,5.85,4.24
			C531.28,511.7,531.35,504.63,531.75,502.53z"/>
		<path class="st3" d="M565.3,525.34c-3,0.94-5.59,3.04-7.1,5.73c-0.33,0.58-0.61,1.27-0.38,1.9c0.25,0.69,1.04,1.05,1.77,1.2
			c3.3,0.68,6.46-1.39,9.16-3.35c1.34-0.97,2.84-2.4,2.34-3.95c-0.34-1.05-1.47-1.62-2.5-2.08c-0.98-0.44-1.99-0.89-3.07-0.88
			c-1.07,0.01-2.22,0.63-2.46,1.65"/>
		<path class="st3" d="M571.11,501.43c0.79-0.89,1.63-2.26,0.78-3.1c-0.41-0.4-1.05-0.45-1.58-0.67c-1.37-0.57-2.19-2.35-3.67-2.29
			c-0.48,0.02-0.92,0.24-1.33,0.47c-0.78,0.45-1.53,0.96-2.22,1.54c-0.79,0.66-1.58,1.57-1.41,2.57c0.2,1.26,1.69,1.84,2.55,2.8
			c1.22,1.38,1.05,3.5,0.28,5.15c-1.26,2.71-5.34,6.31-3.42,9.62c1.69,2.92,3.48,0.96,5.11-0.92c1.79-2.06,5.32-5.45,6.17-7.98
			C573.54,505.12,568.5,504.41,571.11,501.43z"/>
		<path class="st3" d="M559.09,508.61c-0.17,1.15-0.51,2.27-1,3.32c-0.09,0.2-0.2,0.41-0.4,0.52c-0.26,0.15-0.59,0.07-0.88,0
			c-1.19-0.31-2.39-0.63-3.58-0.94c-0.05-0.51-0.1-1.02-0.15-1.53c1.36-0.89,2.73-1.79,4.09-2.68c0.63-0.41,1.56-0.79,2.05-0.23
			c0.42,0.48,0.1,1.22-0.3,1.7c-0.41,0.49-0.93,0.99-0.88,1.62"/>
		<path class="st3" d="M585.97,516.14c-0.52,0.35-1.12,0.73-1.75,0.61c-0.47-0.09-0.84-0.44-1.22-0.73
			c-1.09-0.86-2.48-1.36-3.88-1.4c0.15-2.41,0.31-4.85-0.21-7.21c-0.32-1.47-0.9-2.9-0.88-4.4c0.02-2.01,1.1-3.85,2.15-5.58
			c0.21-0.35,0.43-0.71,0.76-0.95c0.69-0.51,1.71-0.39,2.45,0.07c0.74,0.45,1.25,1.17,1.74,1.87c0.89,1.26,1.82,2.61,1.9,4.14
			c0.03,0.45-0.01,0.96,0.31,1.3c0.27,0.29,0.71,0.36,1.09,0.49c1.59,0.57,2.18,2.49,2.05,4.13
			C590.17,512.78,589.54,513.72,585.97,516.14z"/>
		<path class="st3" d="M591.5,531.65c-1.09,0.18-2.28-0.41-3.29,0.04c-0.39,0.17-0.69,0.48-0.98,0.78
			c-1.76,1.81-3.52,3.63-5.28,5.44c-0.41,0.43-0.84,0.87-1.03,1.43c-0.38,1.15,0.4,2.42,1.47,3.03c1.07,0.61,2.36,0.73,3.59,0.83
			c1.91,0.15,3.92,0.29,5.66-0.49c2.08-0.94,3.34-2.99,4.48-4.92c1.23-2.09,2.46-4.18,3.68-6.27c0.47-0.79,0.94-1.62,1.01-2.53
			C601.48,520.75,592.44,527.23,591.5,531.65z"/>
		<path class="st3" d="M569.38,491.56c-1.47-0.23-3.12-0.62-3.85-1.89c-0.59-1.02-0.37-2.33,0.24-3.33s1.56-1.76,2.48-2.49
			c2.75-2.18,10.7-5.14,10.26,1.35c-0.09,1.29-1.84,4.19-2.62,5.16C574.04,492.7,572.72,492.08,569.38,491.56z"/>
		<path class="st3" d="M605.72,469.48c-0.26-0.47-0.53-0.98-0.43-1.5c0.13-0.73,0.99-1.18,1.75-1.12c0.77,0.05,1.45,0.47,2.08,0.89
			c1.65,1.11,3.18,2.38,4.57,3.79c0.75,0.76,1.46,1.57,1.91,2.53c0.38,0.81,0.56,1.69,0.74,2.56c0.97,4.73,1.95,9.48,2.3,14.29
			c0.08,1.05,0.07,2.25-0.73,2.96c-1,0.9-2.61,0.5-3.89,0.04c-0.57-0.2-1.18-0.43-1.56-0.89c-0.31-0.38-0.43-0.86-0.54-1.34
			c-0.74-3.42,0.05-6.77-0.83-10.09C610,477.43,607.79,473.25,605.72,469.48z"/>
		<path class="st3" d="M709.98,688.41c-0.66-0.52-1.32-1.03-1.98-1.55c-1.29-1.01-2.71-2.07-4.36-2.12
			c-1.19,1.36-1.25,3.55-0.12,4.97c0.21,0.26,0.47,0.53,0.48,0.87c0.03,1.09-2.13,0.79-2.55,1.81c-0.35,0.85,0.87,1.51,1.81,1.56
			c3.41,0.18,6.83-1.79,8.31-4.79c-0.3-0.36-0.6-0.71-0.9-1.07"/>
		<path class="st3" d="M719.4,703.59c-1.01-0.21-2.08-0.42-3.07-0.13c-0.99,0.3-1.84,1.3-1.56,2.27c0.29,1,1.56,1.48,1.94,2.45
			c0.19,0.48,0.13,1,0.15,1.51c0.08,2.11,1.63,4.11,3.7,4.77c0.27,0.08,0.55,0.15,0.83,0.09c0.62-0.12,0.95-0.8,1.02-1.41
			c0.18-1.65-0.84-3.18-1.73-4.6c-0.89-1.43-1.69-3.15-1.06-4.7"/>
		<path class="st3" d="M693.95,712.72c-1.2,0.63-2.17,1.86-2.04,3.18c0.02,0.24,0.09,0.5,0.27,0.67c0.17,0.15,0.4,0.21,0.62,0.26
			c2.86,0.67,14.05,3.11,12.68-2.95C704.56,709.76,696.52,711.37,693.95,712.72z"/>
		<path class="st3" d="M722.74,722.51c-0.24-1.59-1.77-2.77-3.37-3.16c-1.61-0.39-3.29-0.15-4.92,0.1c-0.12,0.55,0.58,0.9,1.14,1.04
			c2.33,0.6,4.66,1.21,6.99,1.81c-0.44,0.06-0.89,0.12-1.33,0.17"/>
		<path class="st3" d="M677.78,662.65c-1.26-0.72-2.19-1.87-3.09-3c0.51-0.96,1.02-1.92,1.52-2.88c-0.14-0.24-0.29-0.48-0.43-0.72
			c0.3-0.15,0.62-0.29,0.94-0.41c1.6-0.61,3.38-0.79,5.08-0.5c1.09,0.18,2.15,0.55,3.23,0.78c3.36,0.71,6.77,0.75,3.21,4.2
			C685.92,662.36,680.86,664.42,677.78,662.65z"/>
		<path class="st3" d="M678.38,682.13c-0.33,1.13-0.61,2.37-0.14,3.46c0.56,1.31,1.99,2.01,3.31,2.6c0.5,0.22,1.01,0.45,1.56,0.47
			c0.49,0.02,0.98-0.13,1.45-0.25c2.84-0.76,5.86-0.9,8.77-0.39c1.94-0.82,3.58-4.94,3.06-6.4c-0.63-1.75-5.08-4.95-6.84-5.9
			c-1.69-0.91-4.39-1.71-6.34-1.25C680.15,675.18,679.3,679.08,678.38,682.13z"/>
		<path class="st3" d="M704.23,671.07c-0.22,0.57-0.68,1.05-1.26,1.29c-2.33,0.97-4.62-1.98-7.15-1.81
			c-0.24-0.71-0.49-1.44-0.42-2.18s0.54-1.5,1.29-1.67c0.42-0.1,0.86,0,1.28,0.12c1.16,0.34,2.28,0.84,3.29,1.5
			c0.74,0.82,1.47,1.64,2.21,2.46c0.17,0.18,0.34,0.45,0.19,0.65c-0.14,0.2-0.51-0.2-0.26-0.22"/>
		<path class="st3" d="M697.84,646.67c-1.06,0.01-1.57-1.42-1.12-2.36s1.42-1.51,2.21-2.19c0.8-0.68,1.5-1.72,1.14-2.69
			c-0.37-1-1.68-1.37-2.75-1.16s-2,0.83-3,1.24c-1.01,0.41-2.11,0.62-3.06,1.14s-1.78,1.48-1.65,2.54c0.16,1.35,1.7,2.09,3.05,2.44
			c1.36,0.35,2.91,0.66,3.64,1.83c0.23-0.17,0.47-0.33,0.7-0.5"/>
		<path class="st3" d="M687.85,649.16c-2-1.81-4.8-2.77-7.53-2.57c-0.9,0.06-2.06,0.66-1.75,1.49c0.12,0.33,0.45,0.54,0.77,0.71
			c2.04,1.09,4.33,1.61,6.6,2.13c1.14,0.26,2.65,0.36,3.15-0.66c-0.72-0.49-1.44-0.97-2.16-1.46"/>
		<path class="st3" d="M667.63,646.23c0.99-0.78,0.86-2.38,0.07-3.36s-2.02-1.49-3.2-1.97c-0.58-0.23-1.18-0.47-1.8-0.4
			c-0.56,0.06-1.05,0.36-1.53,0.65c-1.27,0.78-2.54,1.57-3.81,2.35c-0.82,0.51-1.77,1.29-1.51,2.2c0.2,0.7,1.04,1.05,1.79,1.02
			c0.75-0.03,1.45-0.34,2.18-0.5c1.92-0.42,4.05,0.28,5.32,1.74c0.28,0.32,0.56,0.71,0.99,0.8c0.26,0.06,0.53,0,0.77-0.09
			c1.33-0.49,2.21-1.95,2-3.32"/>
		<path class="st3" d="M662.23,633.64c-0.71-1.23-0.67-2.77-0.2-4.1s1.3-2.51,2.14-3.66c1-1.38,2.09-2.82,3.69-3.48
			c1.82-0.75,3.9-0.34,5.82,0.08c1.1,0.24,2.45,0.76,2.47,1.85c0.01,0.47-0.25,0.9-0.54,1.27c-0.48,0.61-1.08,1.15-1.42,1.85
			c-0.34,0.7-0.33,1.65,0.3,2.13c0.36,0.28,0.94,0.44,0.96,0.89c0.02,0.36-0.36,0.6-0.64,0.83c-2.29,1.85-1.37,4.15-4.69,4.84
			C667.67,636.62,663.56,635.92,662.23,633.64z"/>
		<path class="st3" d="M684.34,629.23c0.45,0.63,0.14,1.51-0.32,2.13s-1.08,1.17-1.28,1.91c-0.47,1.71,1.45,3.57,0.62,5.13
			c1.95-0.81,3.71-2.06,5.11-3.62c0.72-0.81,1.37-1.98,0.81-2.91c-0.3-0.5-0.87-0.77-1.42-0.98c-2.09-0.8-4.37-1.12-6.6-0.91"/>
		<path class="st3" d="M707.34,707.25c-2.14-0.07-4.6-0.31-5.84-2.01c-0.41-0.57-0.71-1.32-1.39-1.55c-0.34-0.12-0.72-0.08-1.06-0.2
			c-0.76-0.27-1-1.22-0.95-2.01c0.09-1.53,1.07-3.18,2.64-3.34c1.1-0.11,2.11,0.53,3.11,1.01c1.51,0.74,3.18,1.15,4.86,1.2
			c0.19,2.38-0.06,4.79-0.73,7.08c-0.41,0.1-0.82,0.21-1.23,0.31"/>
		<path class="st3" d="M606.3,555.14c0.86,1.88,3.2,2.56,5.27,3.02c-0.03,0.98-0.07,1.96-0.1,2.95c-0.01,0.36-0.02,0.73,0.11,1.07
			c0.15,0.38,0.48,0.69,0.85,0.88c0.87,0.45,2.03,0.29,2.74-0.37c0.71-0.66,0.91-1.79,0.48-2.65c-2.41-4.83,1.14-2.96,2.98-6.7
			c1.15-2.35-0.73-5.83-2.5-7.41C610.52,540.91,603.93,549.97,606.3,555.14z"/>
		<path class="st3" d="M591.8,485.33c-0.73-0.33-1.45,0.49-2.24,0.64c-0.94,0.18-1.75-0.61-2.37-1.32c-1.69-1.95-3.38-3.9-5.07-5.85
			c-0.94-1.09-1.95-2.43-1.56-3.8c0.36-1.24,1.71-1.91,2.92-2.43c1.85-0.79,3.7-1.58,5.55-2.37c1.01,1.33,2.39,2.81,4.06,2.53
			c0.3-0.05,0.59-0.15,0.89-0.15c1.2,0.01,1.74,1.55,2.84,2c0.41,0.17,0.88,0.17,1.31,0.31c0.54,0.18,0.97,0.56,1.39,0.93
			c1.49,1.33,3.12,3.07,2.64,4.98c-1.03,4.15,5.75,5.83,1.04,7.25c-1.54,0.47-4.64,0.26-6.25,0.13
			C593.97,487.94,594,486.33,591.8,485.33z"/>
		<path class="st3" d="M606.26,510.69c-0.65,0.94-1.24,1.96-1.36,3.09c-0.11,0.98,0.15,1.95,0.2,2.94c0.09,1.55-0.34,3.13-1.2,4.44
			c0.75,0.39,1.61,0.58,2.46,0.56c0.1,0.89,0.2,1.78,0.3,2.66c0.42,0.08,0.83,0.16,1.25,0.24c-0.61,1.02,0.44,2.37,1.64,2.56
			c1.2,0.2,2.37-0.36,3.45-0.91c1.13-0.57,2.28-1.15,3.19-2.02s1.55-2.08,1.42-3.31c-0.07-0.63-0.33-1.26-0.19-1.88
			c0.17-0.75,0.88-1.24,1.37-1.84c1.05-1.29,1.09-3.15,0.55-4.72C617.23,506.31,609.85,505.47,606.26,510.69z"/>
		<path class="st3" d="M637.32,540.61c0.39,0.43,0.88,0.75,1.37,1.06c0.7,0.46,1.41,0.92,2.11,1.38c2.66,1.73,5.78,3.54,8.85,2.69
			c0.79-0.22,1.58-0.67,1.91-1.4c0.17-0.38,0.2-0.79,0.23-1.2c0.08-1.19,0.17-2.38,0.25-3.56c0.12-1.65,0.23-3.32-0.11-4.94
			c-0.74-3.55-6.94-8.1-10.62-6.61C637.59,529.53,634.46,537.48,637.32,540.61z"/>
		<path class="st3" d="M678.5,608.97c-1.23,0.2-2.05,1.65-1.58,2.77c0.24,0.58,0.75,1.04,0.89,1.64c0.16,0.69-0.19,1.4-0.7,1.9
			c-1.85,1.81-5.35,0.9-6.73-1.28c-0.41-0.65-0.69-1.4-0.75-2.16c-0.07-0.75,0.07-1.51,0.2-2.25c0.29-1.65,0.58-3.29,0.87-4.94
			c1.9,0.7,3.8,1.4,5.7,2.1c1.09,0.4,2.41,1.28,1.99,2.33"/>
		<path class="st3" d="M684.06,618.99c1.99,3.71,5.78,6.17,9.59,8.12c0.54,0.28,1.15,0.56,1.74,0.43c1.01-0.22,1.39-1.45,1.31-2.46
			c-0.16-1.97-1.67-3.98-3.69-4.04c-6.01-0.16-2.18-3.19-5.38-6.69C684.38,610.8,682.45,615.99,684.06,618.99z"/>
		<path class="st3" d="M613,590.36c-0.39,0.13-0.8,0.32-1.2,0.22c-0.36-0.09-0.61-0.4-0.83-0.69c-1.4-1.93-2.16-4.28-2.16-6.64
			c2.23,0.2,4.51-0.11,6.59-0.9c0.38-0.14,0.76-0.31,1.17-0.38c0.47-0.08,0.96-0.05,1.43-0.01c2.46,0.2,4.93,0.4,7.39,0.61
			c0.63,0.05-0.95,3.64-0.95,4.01c-0.01,0.87,1.32,0.96,1.29,1.91c-0.03,0.91-1.05,2.43-1.57,3.09
			C619.88,597.09,618.17,588.59,613,590.36z"/>
		<path class="st3" d="M606.45,600.51c-1.48,1.12-3.38,1.84-5.24,1.53c-0.84-0.14-1.63-0.48-2.41-0.82
			c-0.86-0.38-1.72-0.75-2.58-1.13c-0.19-0.08-0.4-0.18-0.49-0.36c-0.1-0.18-0.06-0.4-0.02-0.59c0.17-0.85,0.34-1.69,0.51-2.54
			c0.71,0.28,1.3-0.73,1.08-1.45c-0.22-0.71-0.84-1.26-1.09-1.96c0.65,1.84,13.66,0.72,15.47,0.73
			C611.67,595.94,608.1,599.26,606.45,600.51z"/>
		<path class="st3" d="M619.97,603.01c-1.81-0.65-4-1.26-5.52-0.11c-0.44,0.33-0.8,0.79-1.32,0.96c-0.22,1.18-0.44,2.4-0.2,3.58
			c0.23,1.18,1.01,2.34,2.2,2.69c1.03,0.3,2.14-0.06,3.09-0.54c1.37-0.69,2.68-1.73,3.1-3.18c0.43-1.45-0.38-3.29-1.91-3.56
			c0.29,0,0.58,0,0.88,0"/>
		<path class="st3" d="M675.64,687.06c-2.44,0.52-5.15-0.51-6.59-2.5c-0.76-1.06-1.17-2.33-1.35-3.61c-0.06-0.4-0.09-0.82,0.07-1.19
			c0.51-1.13,2.65-1.44,2.35-2.63c1.98-0.21,3.82,1.26,4.65,3.02c0.82,1.76,0.85,3.77,0.87,5.7c0.05-0.38,0.11-0.76,0.16-1.14"/>
		<path class="st3" d="M666.9,669.61c-1.1,0.31-2.33,0.61-3.37,0.12c-2-0.95-1.81-4-3.56-5.33c-0.19-0.14-0.41-0.27-0.53-0.47
			c-0.33-0.52,0.11-1.21,0.65-1.52c0.91-0.53,2.03-0.52,3.06-0.73s2.14-0.86,2.23-1.88c1.31-0.2,2.65,0.08,3.93,0.41
			c1.71,0.45,3.49,1.08,4.57,2.43C677.77,667.49,669.78,668.81,666.9,669.61z"/>
		<path class="st3" d="M629.02,503.64c-1.48-3.33,0.02-7.18-0.53-10.77c-0.55-3.6-3.08-6.57-4.97-9.72
			c-1.89-3.15-3.12-7.27-1.07-10.31c2.9-0.46,5.42-2.65,6.22-5.39c-0.24,4.2,5.68,6.45,6.49,10.58c0.16,0.79,0.11,1.61,0.06,2.41
			c-0.14,2.42-0.29,4.84-0.43,7.27c-0.23,3.93-0.39,8.17,1.82,11.48c3.18,4.78,7.72,15.18,0.45,19.07c-3.05,1.63-6.24-0.08-7.1-3.34
			c-0.54-2.07,0.61-3.9,0.65-5.92C630.65,506.77,629.9,505.62,629.02,503.64z"/>
	</g>
	<g>
		<g>
			<path class="st6" d="M352.43,406.48c10.08-26.56,25.86-49.6,45.53-68.1"/>
			<g>
				<polygon class="st2" points="398.95,348.9 396.95,348.8 397.45,338.96 387.59,339.18 387.55,337.18 399.55,336.91 				"/>
			</g>
		</g>
	</g>
	<g>
		<g>
			<path class="st6" d="M352.56,537.08c-8.61-22.42-12.86-46.65-12.04-71.4"/>
			<g>
				<polygon class="st2" points="357.98,528.02 356.13,527.24 352.33,536.34 343.54,531.89 342.63,533.67 353.35,539.1 				"/>
			</g>
		</g>
	</g>
</g>
<g>
	<path class="st7" d="M635.14,254.52c-68.97-4.8-139.58,5.39-206.59-11.34c-11.51-2.87-22.91-6.54-34.75-7.49
		c-11.84-0.95-24.49,1.17-33.52,8.64c-20.44,1.97-40.05,4.45-60.49,6.42c-17.77,1.71-35.56,3.42-53.41,4.14"/>
	<g>
		<path class="st8" d="M607.38,97.77c1.17,3.95,5.83,5.5,9.83,6.46c4.22,1.01,8.44,2.02,12.66,3.03c4.55,1.09,9.1,2.18,13.68,3.13
			c7.27,1.51,14.62,2.67,22.01,3.48c3.89,0.43,7.86,0.77,11.51,2.2c4.88,1.91,8.97,5.68,14.05,6.98c3.43,0.88,6.92,0.9,10.29,2.01
			c4.11,1.36,8.11,3.28,12.13,4.9c5.84,2.36,11.69,4.72,17.26,7.68c9.9,5.25,18.83,12.35,26.17,20.83
			c12.52,14.46,18.38,30.03,22.41,48.73c1.06,4.9,1.82,10.04,0.59,14.9c-1.26,4.98-4.5,9.21-7.85,13.11
			c-2.34,2.74-4.79,5.41-7.65,7.6c-5.16,3.97-11.41,6.2-17.54,8.38c-3.88,1.38-7.78,2.76-11.81,3.62
			c-11.56,2.46-23.52,0.52-35.32-0.19c-20.44-1.23-40.95,1.29-61.42,0.51c-13.7-0.52-27.3-2.5-40.99-3.02
			c-13.54-0.51-26.74,1.92-40.27,1.11c-38.14-2.28-76.57,4.59-114.53,0.21c-1.99-0.23-4.03-0.5-5.82-1.41
			c-1.71-0.87-3.08-2.26-4.42-3.63c-4.64-4.73-9.28-9.46-13.92-14.19c-2.03-2.07-4.1-4.2-5.26-6.85c-1.2-2.74-1.36-5.88-2.69-8.56
			c-1.33-2.69-4.69-4.85-7.27-3.34c-2.58-1.32-4.38-4.22-3.9-7.08s2.12-5.36,3.73-7.77c1.3-1.95,2.6-3.91,3.9-5.86
			c1.2-1.8,2.4-3.6,3.86-5.18c5.49-5.95,14.7-8.13,22.28-5.27c4.41-4.7,7.61-10.45,9.91-16.48c3.15-8.29,6.31-16.59,9.46-24.88
			c1.23-3.22,2.47-6.6,2.08-10.02c-0.29-2.54-1.47-5.16-0.55-7.55c0.4-1.03,1.15-1.89,1.59-2.9c0.95-2.18,0.31-4.73,0.87-7.04
			c0.65-2.63,2.76-4.62,3.96-7.05c1-2.01,1.34-4.28,2.17-6.37c3.65-9.24,15.63-12.99,19.42-22.18c2.37-5.75-0.21-12.61,0.19-18.82
			c0.14-2.22,0.45-4.69,2.15-6.13c0.95-0.81,2.2-1.16,3.41-1.46c1.28-0.32,2.59-0.62,3.91-0.59c1.99,0.04,3.88,0.81,5.72,1.56
			c4.39,1.8,8.77,3.6,13.16,5.4c1.9-0.55,2.74-0.84,4.64-1.39c12.4-3.58,25.16-7.2,38.02-6.04c8.89,0.8,17.56,3.94,24.92,9
			c2.03-1.82,4.97-3.1,7.38-4.38c4.98-2.65,10.79-4.05,16.33-2.99c0.82,0.16,1.68,0.39,2.26,0.99c0.64,0.66,0.83,1.62,0.97,2.52
			c0.72,4.51,1.1,9.07,1.14,13.63c0.02,2.11-0.04,4.25-0.63,6.27c-0.47,1.62-1.26,3.12-1.8,4.72
			C601.65,88.32,602.3,93.68,607.38,97.77z"/>
		<path class="st7" d="M510.59,59.65c-3.35-0.72-6.62-1.8-9.74-3.2c-2.95-1.33-5.83-2.97-9.01-3.56s-6.87,0.1-8.82,2.69
			c-1.37,1.82-1.65,4.24-1.7,6.52c-0.09,3.74,0.3,7.48,0.68,11.21c0.89,8.59,1.77,17.19,2.66,25.78c0.55-0.25,1.11-0.5,1.66-0.74"/>
		<path class="st7" d="M511.25,60.12c10.27-4.29,21.13-7.15,32.18-8.47c4.45-0.53,9.01-0.8,13.37,0.25c2.96,0.72,5.74,2.03,8.5,3.34
			c4.48,2.12,8.95,4.24,13.43,6.36"/>
		<path class="st7" d="M575.81,64.45c4.92-4.41,10.66-7.9,16.84-10.24c6.4-2.43,12.37-1.83,13.36,5.37
			c1.18,8.56,0.08,15.4-2.15,23.59c-0.23,0.84-0.42,1.7-0.57,2.6"/>
		<path class="st7" d="M603.66,89.5c2.67,10.05,3.56,20.57,2.62,30.92c-0.71,7.77-2.52,15.65-6.87,22.13
			c-1.03,1.54-2.25,3.18-2.07,5.03c-7.64,6.2-16.34,11.11-25.6,14.45"/>
		<path class="st7" d="M481.41,106.38c1.14,12.62,4.68,25.01,10.39,36.32c0.65,1.29,1.33,2.57,2.24,3.69
			c0.51,0.63,1.09,1.21,1.6,1.84c0.76,0.94,1.36,2.01,2.18,2.9c0.81,0.88,1.82,1.55,2.81,2.22c3.19,2.13,6.38,4.26,9.57,6.4
			c4.15,2.77,8.4,5.64,11.21,9.76"/>
		<path class="st7" d="M566.06,169.24c0.63,1.91,0.24,4.04-0.67,5.83c-0.92,1.79-2.32,3.28-3.78,4.66
			c-2.9,2.74-6.72,5.28-10.61,4.39"/>
		<path class="st7" d="M568.49,160.89c-6.26,4.64-15.58,4.62-21.82-0.05"/>
		<path class="st7" d="M530.47,165.75c-1.55-0.49-2.93-1.5-3.86-2.82c1.59,1.68,5.35,3.15,7.66,3.07c2.36-0.09,4.76-0.28,6.98-1.08
			c2.23-0.79,4.3-2.25,5.41-4.34"/>
		<path class="st3" d="M551.57,157.26c-1.31-2.26,0.35-5.14,2.42-6.73s4.65-2.63,6.17-4.75c0.53-0.74,0.94-1.62,1.71-2.11
			c0.29,0.26,1.06,0.68,1.35,0.94c-2.78,4.51-6.13,8.68-9.95,12.35c-0.17,0.16-0.38,0.33-0.6,0.28
			C552.45,157.17,551.34,157.23,551.57,157.26z"/>
		<path class="st3" d="M567.14,103.94c1.68-0.89,3.72-1.18,5.76-1.27c2.75-0.12,5.56-0.23,8.22,0.47c0.44,0.12,0.96,0.35,1,0.81
			c0.06,0.85-1.36,0.78-1.94,1.4c-0.46,0.48-0.28,1.25-0.23,1.91c0.21,2.7-2.16,4.92-4.6,6.11c-4.09,2.01-8.34,2.19-12.71,2.96
			c-0.59,0.1,1.08-8.27,1.45-9.1C564.78,105.66,565.85,104.62,567.14,103.94z"/>
		<path class="st3" d="M543.85,155.01c1.06-2.39-0.91-5.08-3.14-6.43c-2.23-1.36-4.9-2.11-6.65-4.06c-0.61-0.68-1.11-1.51-1.93-1.91
			c-0.26,0.29-0.98,0.79-1.24,1.08c3.25,4.19,7.03,7.96,11.23,11.2c0.18,0.14,0.41,0.29,0.63,0.21
			C542.96,155.02,544.07,154.95,543.85,155.01z"/>
		<path class="st3" d="M522.6,103.68c-1.76-0.71-3.82-0.77-5.87-0.64c-2.75,0.18-5.55,0.37-8.12,1.36c-0.43,0.16-0.92,0.45-0.9,0.91
			c0.03,0.85,1.43,0.63,2.08,1.18c0.51,0.43,0.42,1.21,0.44,1.88c0.09,2.71,2.68,4.66,5.23,5.58c4.29,1.55,8.53,1.28,12.96,1.57
			c0.6,0.04-1.97-8.1-2.43-8.89C525.12,105.14,523.95,104.23,522.6,103.68z"/>
		<path class="st7" d="M481.97,79.84c-3.79,9.19-15.77,12.94-19.42,22.18c-0.83,2.09-1.17,4.36-2.17,6.37
			c-1.2,2.43-3.31,4.42-3.96,7.05c-0.57,2.31,0.07,4.86-0.87,7.04c-0.44,1.01-1.19,1.87-1.59,2.9c-0.92,2.39,0.26,5.01,0.55,7.55
			c0.39,3.42-0.85,6.8-2.08,10.02c-3.15,8.29-6.31,16.59-9.46,24.88c-2.29,6.02-5.49,11.78-9.91,16.48
			c-7.58-2.86-16.79-0.68-22.28,5.27c-1.46,1.59-2.66,3.39-3.86,5.18c-1.3,1.95-2.6,3.91-3.9,5.86c-1.6,2.41-3.25,4.92-3.73,7.77
			c-0.48,2.86,1.33,5.75,3.9,7.08c2.59-1.51,5.94,0.66,7.27,3.34c1.33,2.69,1.48,5.82,2.69,8.56c1.16,2.65,3.23,4.78,5.26,6.85
			c4.64,4.73,9.28,9.46,13.92,14.19c1.34,1.37,2.72,2.76,4.42,3.63c1.79,0.91,3.83,1.18,5.82,1.41
			c37.96,4.38,76.39-2.49,114.53-0.21c13.53,0.81,26.73-1.63,40.27-1.11c13.7,0.52,27.29,2.5,40.99,3.02
			c20.47,0.78,40.98-1.74,61.42-0.51c11.8,0.71,23.76,2.66,35.32,0.19c4.03-0.86,7.93-2.24,11.81-3.62
			c6.13-2.18,12.38-4.41,17.54-8.38c2.86-2.2,5.31-4.87,7.65-7.6c3.34-3.9,6.58-8.13,7.85-13.11c1.23-4.86,0.47-10-0.59-14.9
			c-4.03-18.7-9.89-34.27-22.41-48.73c-7.34-8.47-16.26-15.58-26.17-20.83c-5.56-2.95-11.42-5.32-17.26-7.68
			c-4.01-1.62-8.02-3.54-12.13-4.9c-3.37-1.12-6.86-1.13-10.29-2.01c-5.08-1.3-9.17-5.07-14.05-6.98c-3.65-1.43-7.61-1.77-11.51-2.2
			c-7.39-0.81-14.73-1.97-22.01-3.48c-4.58-0.95-9.13-2.04-13.68-3.13c-4.22-1.01-8.44-2.02-12.66-3.03
			c-4.01-0.96-8.67-2.51-9.83-6.46"/>
		<path class="st7" d="M433.62,184.93c3.2-0.22,4.99,3.55,5.83,6.64c2.55,9.39,4.73,18.88,6.51,28.44
			c5.78,0.38,12.21,0.56,16.6-3.22c1.65-1.42,2.95-3.37,4.97-4.18c2.61-1.04,5.91,0.04,8.15-1.66c1.08-0.82,1.71-2.18,2.87-2.88
			c1.64-0.98,3.71-0.37,5.61-0.23c8.12,0.61,15.14-7.81,23.17-6.46c2.46,0.41,4.75,1.74,7.25,1.8c2.21,0.05,4.3-0.9,6.43-1.48
			c10.71-2.92,21.66,3.45,32.75,3.98c5.45,0.26,10.86-0.91,16.29-1.54c12.84-1.5,25.82,0.01,38.66,1.52
			c4.83,0.57,9.66,1.14,14.5,1.7c12.05,1.42,24.1,2.83,36.16,4.1c9.8,1.03,19.69,1.97,29.47,0.8c9.78-1.18,19.55-4.65,26.72-11.41"
			/>
		<g class="st9">
			
				<image style="overflow:visible;enable-background:new    ;" width="449" height="145" xlink:href="CFFB64D681DC1914.png"  transform="matrix(1 0 0 1 362 146)">
			</image>
		</g>
		<path class="st7" d="M566.63,194.38c-8.61-4.95-17.25-9.92-25-16.12c-3.18-2.55-6.35-5.38-10.29-6.42
			c-3.01-0.8-6.19-0.47-9.28-0.11c-4.37,0.52-8.73,1.11-13.09,1.76c-5.25,0.79-11.39,2.4-13.21,7.39"/>
		<path class="st7" d="M446.64,179.26c2.89-0.27,5.78-0.55,8.68-0.82c5.09-0.48,10.24-0.96,15.29-0.22
			c3.63,0.53,7.17,1.7,10.41,3.43"/>
		<path class="st7" d="M496.65,177.73c-5.76,0.68-11.52,1.37-17.28,2.05"/>
		<path class="st7" d="M492.21,195.99c-2.71-3.61-5.75-7.45-10.12-8.57c-2.27-0.58-4.67-0.35-6.97,0.08
			c-8.58,1.61-16.6,6.03-22.54,12.42c0.76-0.16,1.52-0.31,2.28-0.47"/>
		<path class="st7" d="M468.45,193.92c1.91-0.28,3.93,0.27,5.39,1.54c1.45,1.27,2.28,3.24,2.08,5.16c-0.22,2.11-1.6,3.97-3.32,5.21
			s-3.76,1.96-5.78,2.6c-2.77,0.88-5.73,1.66-8.55,0.94c-0.21-0.05-0.46-0.17-0.44-0.38c0.01-0.21,0.46-0.08,0.29,0.05"/>
		<path class="st7" d="M628.98,130.22c-7.92,1.03-15.23,4.99-21.41,10.04s-11.37,11.19-16.52,17.3c-1.19,1.41-2.41,2.87-2.96,4.64
			c-0.54,1.74-0.38,3.64-0.89,5.39c-0.87,2.98-3.52,5.09-4.87,7.89c-1.06,2.19-1.29,4.75-2.64,6.77c-1.32,1.98-3.58,3.22-4.8,5.27
			c-2.29,3.83-0.16,8.69,1.96,12.61c0.62,1.15,2,2.46,2.97,1.6"/>
		<g>
			<path class="st3" d="M711.33,225.55c-1.9-1.09-3.7-2.81-5.88-2.6c-1.08,0.11-2.04,0.69-2.96,1.26c-3,1.85-6.37,4.36-6.27,7.88
				c0.08,2.61,2.11,4.71,4.15,6.34c9.78,7.82,23.01,11.16,35.33,8.91c2.59-0.47,5.65-1.73,5.94-4.35c0.17-1.55-0.77-3.04-1.99-4.01
				c-2.18-1.75-4.98-2.51-7.22-4.21c-1.73-1.32-2.91-3.25-4.64-4.5C723.05,226.86,716.38,228.44,711.33,225.55z"/>
			<path class="st3" d="M705.86,231.44c0.1,1.08,1.13,1.61,2.11,1.58c-0.91,3.69,5.66,4.39,8.15,5.04c2.24,0.58,4.34,1.52,4.21-2.24
				C720.19,231.71,705.36,226.1,705.86,231.44z"/>
			<path class="st3" d="M682.94,223.03c-1.99-1.76-4.62-2.53-7.1-3.48c-2.5-0.96-5.03-2.15-7.71-2.08s-5.55,1.97-5.6,4.65
				c-3.45,0.11-5.29-4.1-8.38-5.66c-2.54-1.29-5.61-0.61-8.42-1.11c-1.61-0.29-3.15-0.97-4.78-1.12c-3.34-0.32-6.45,1.56-9.28,3.38
				c-2.47,1.58-5.14,3.43-5.87,6.27c-1.05,4.06,2.39,7.92,6,10.07c6.41,3.82,13.99,5.04,21.37,6.19c1.8-2.02,4.2-3.49,6.82-4.17
				c4.56,0.46,9.12,0.92,13.68,1.38c2.93,0.3,6.02,0.56,8.68-0.71C687.4,234.22,686.68,226.32,682.94,223.03z M677.08,230.21
				c-1.12,0.65-2.45,0.77-3.74,0.85c-6.6,0.37-13.25-0.2-19.7-1.68c1.37,1.68-0.67,4.33-2.83,4.42c-2.17,0.09-4.07-1.3-5.91-2.45
				c-2.45-1.52-5.1-2.71-7.87-3.52c-1.33-0.39-2.96-0.98-3.11-2.36c-0.1-0.89,0.52-1.69,1.09-2.38c1.09-1.29,2.26-2.65,3.86-3.19
				c2.43-0.82,5.01,0.45,7.55,0.87c2.07,0.34,4.25,0.12,6.25,0.76c3.19,1.02,5.62,4.15,8.97,4.32c2.66,0.13,5.25-1.69,7.83-1.08
				c1.56,0.37,2.85,1.6,4.44,1.81C675.78,226.85,682.03,227.32,677.08,230.21z"/>
			<path class="st3" d="M606.39,209.06c-0.29-0.18-0.62-0.34-0.96-0.36c-1-0.04-1.59,1.05-2.23,1.83c-1.1,1.36-3,2.02-4.71,1.65
				c-0.61-0.13-1.28-0.38-1.84-0.09c-0.5,0.26-0.71,0.86-0.87,1.41c-0.78,2.64-1.56,5.28-2.33,7.93c-0.2,0.69-0.39,1.5,0.02,2.1
				c0.38,0.56,1.13,0.7,1.79,0.8c2.37,0.35,4.74,0.69,7.11,1.04c0.63,1.18-1.11,2.3-2.43,2.12c-1.32-0.19-2.66-0.93-3.91-0.48
				c-2.48,0.89-1.66,4.99-3.67,6.71c-0.53,0.46-1.27,0.74-1.56,1.38s-0.02,1.38,0.27,2.02c0.59,1.27,1.37,2.6,2.67,3.11
				c1.52,0.59,3.19-0.12,4.77-0.52c4.56-1.17,22.45,1.06,16.23-8.18c-2.4-3.57-3.84-5.04-4.24-9.65
				C610.13,217.59,610.61,211.68,606.39,209.06z"/>
			<path class="st3" d="M584.54,214.7c-2.67,3.82-4.2,8.42-4.37,13.07c-0.98,0.77,0.12,1.53,0.31,2.77
				c0.21,1.33-1.05,2.47-1.21,3.81c-0.23,1.96,1.91,3.39,3.86,3.68s4.03-0.03,5.83,0.76c1.8,0.8,2.92,3.52,1.35,4.7
				c-0.48,0.36-1.09,0.49-1.67,0.6c-4.11,0.77-8.28,1.27-12.45,1.5c-0.8,0.04-1.67,0.06-2.35-0.37c-0.55-0.35-0.89-0.93-1.21-1.49
				c-0.78-1.36-1.55-2.73-2.33-4.09c-1.01,0.04-2.06,0.07-3-0.29s-1.77-1.23-1.76-2.24c0.01-1.21,1.17-2.37,0.69-3.47
				c-0.78-1.79-4.57-0.74-4.75-2.68c-0.08-0.91,0.88-1.55,1.76-1.79s1.89-0.34,2.49-1.02c0.72-0.83,0.51-2.08,0.76-3.15
				c0.4-1.69,1.94-2.84,2.88-4.3c1.09-1.7,1.33-3.79,2-5.7s2.08-3.84,4.1-4c-0.07,0.92,0.29,1.87,0.96,2.52
				c0.68-0.75,1.21-1.64,1.55-2.6c0.99,0.62,2.27,0.29,3.38-0.06c2.02-0.63,4.04-1.26,6.06-1.89
				C588.5,210.86,586.65,214.14,584.54,214.7z"/>
			<path class="st3" d="M546.48,221.77c-1.95-5.25-7.12-8.39-11.98-10.4c-0.8-0.33-1.61-0.66-2.47-0.78
				c-4.26-0.62-7.45,3.69-9.57,7.43c-0.83,1.46-1.69,3.19-1.06,4.76c-1.47-0.43-3.12-0.21-4.42,0.59c2.27,2.23,3.55,5.45,3.42,8.64
				c-0.01,0.27-0.04,0.55-0.2,0.77c-0.21,0.27-0.57,0.35-0.91,0.41c-5.39,0.94-10.96,0.91-16.34-0.07
				c-1.04-0.19-2.14-0.45-2.85-1.23c-1.22-1.31-0.8-3.41-0.21-5.11c0.68-1.99,1.48-3.93,2.39-5.83c1.2-2.52,2.63-5.27,1.89-7.97
				c-0.19-0.69-0.55-1.37-1.18-1.71c-1.06-0.58-2.37,0.02-3.4,0.65c-6.07,3.74-11.2,9-14.79,15.16c-2.07,3.56-3.84,7.62-7.4,9.68
				c-1.81,1.05-3.9,1.46-5.87,2.16c-2.7,0.96-5.2,2.47-7.29,4.43c-0.23,0.21-0.46,0.45-0.5,0.76c-0.07,0.51,0.4,0.92,0.84,1.19
				c4.84,3.05,11,3.06,16.62,2.03s11.08-2.98,16.77-3.54c2.87-0.28,5.76-0.21,8.64-0.13c4.87,0.13,9.73,0.26,14.6,0.39
				c4.91,0.13,10.17,0.16,14.25-2.56c2.49-1.66,4.26-4.18,5.97-6.64C544.11,230.96,548.33,226.75,546.48,221.77z M537.41,221.9
				c0.05,1.26,0.1,2.53,0.16,3.79c0.01,0.36,0.03,0.72-0.08,1.06c-0.13,0.4-0.43,0.73-0.71,1.05c-0.99,1.09-1.97,2.17-2.96,3.26
				c-2.09,2.3-4.16,4.42-7.25,4.13c-0.34-0.03-0.7-0.1-0.96-0.33c-0.42-0.38-0.4-1.02-0.39-1.59c0.06-2.85-0.96-5.71-2.81-7.87
				c-0.12-0.14-0.25-0.28-0.43-0.35c-0.35-0.12-0.73,0.12-1.1,0.1c-0.37-0.02-0.59-0.68-0.22-0.68c1.03,0.49,2.32,0.06,3.11-0.76
				c0.79-0.82,1.17-1.95,1.38-3.07c0.2-1.02,0.28-2.05,0.36-3.08c1.14,0.09,2.43,0.12,3.23-0.69c0.27-0.27,0.46-0.63,0.78-0.84
				c1.03-0.7,2.3,0.49,3.53,0.7c0.73,0.13,1.48-0.11,2.2,0.06C537.08,217.24,537.34,220.04,537.41,221.9z"/>
			<path class="st3" d="M467.71,231.89c-1.42,1.72-3.57,2.64-5.38,3.93s-3.45,3.39-2.98,5.57c0.22,1,0.85,1.86,1.09,2.85
				c0.46,1.95-0.77,4.02-2.51,5c-1.74,0.99-3.86,1.07-5.84,0.79c-4.39-0.62-8.5-2.97-11.27-6.44c-0.69-0.86-1.32-1.81-2.26-2.39
				c-1-0.61-2.21-0.72-3.36-0.93c-8.52-1.52-15.32-9.74-15.22-18.39c0.02-2.12,0.41-4.23,0.37-6.35c-0.08-4.13-1.45-9.15,1.78-11.72
				c0.85-0.68,1.92-1.05,2.74-1.75c0.83-0.7,1.36-1.99,0.73-2.87c2.22,0.62,4.11,2.3,5,4.43c-1.57,1.06-1.39,3.86,0.31,4.71
				c-1.1-0.01-2.02,1.21-1.71,2.26c-0.62-0.64-1.24-1.27-1.86-1.91c0.29,1.43,1.09,2.76,2.22,3.68c-0.98,0.17-1.2,1.8-0.3,2.23
				c-0.59-0.23-1.17-0.45-1.76-0.68c2.29,3.04,2.13,5.93,3.17,9.3c0.88,2.87,2.24,4.18,4.93,6.15c0.48,0.35,1.01,0.7,1.6,0.68
				c0.42-0.01,0.81-0.22,1.23-0.27c1.19-0.17,2.28,0.85,3.48,0.79c0.63-0.03,1.2-0.35,1.76-0.62c4.04-1.96,7.89-0.43,12.2-0.56
				c0.71-0.02,1.45-0.06,2.04-0.45c0.62-0.41,0.96-1.13,1.38-1.74C462.8,222.13,472.51,226.06,467.71,231.89z"/>
			<path class="st3" d="M653.18,158.82c-0.36,0.09-0.74,0.06-1.08,0.21c-1.14,0.49-0.78,2.17-1.09,3.37
				c-0.28,1.05-1.2,1.83-2.21,2.21c-3.64,1.37-7.73-1.74-11.49-0.72c-1.44,0.39-2.93,1.38-4.31,0.8c-0.49-0.21-0.89-0.59-1.24-1
				c-0.89-1.03-1.5-2.73-0.49-3.64c1.03-0.94,3.02-0.29,3.79-1.45c0.36-0.54,0.27-1.25,0.38-1.88c0.21-1.3,1.27-2.33,2.47-2.88
				c1.2-0.55,2.53-0.69,3.84-0.82c1.63-0.17,2.95,0.43,4.56,0.3c1.55-0.13,2.94-1.28,4.6-0.88
				C653,152.93,656.91,157.91,653.18,158.82z"/>
			<path class="st3" d="M609.03,160.98c-0.53,1.13-0.45,2.87,0.76,3.17c0.79,0.19,1.54-0.38,2.17-0.88
				c1.19-0.94,2.52-1.76,4.02-1.99c1.49-0.23,2.95,0.28,4.01,1.32c1.53-3.08,6.34-6.1,0.57-7.64
				C616.63,153.91,610.7,157.42,609.03,160.98z"/>
			<path class="st3" d="M644.55,157.01c-1.18-0.23-2.42-0.46-3.58-0.12c-1.16,0.34-2.18,1.44-2,2.64c2.19-0.1,4.38,1.26,5.26,3.27
				c2.43-1.63,4.41-3.92,5.68-6.55c-2.22-0.27-4.48-0.19-6.67,0.24"/>
			<path class="st3" d="M616.89,176.88c-0.46-0.77-0.93-1.57-1.65-2.11c-0.72-0.54-1.74-0.79-2.52-0.35
				c-1.04,0.57-1.32,2.07-2.4,2.58c-0.43,0.2-0.91,0.21-1.36,0.36c-0.65,0.22-1.16,0.72-1.6,1.24c-2.25,2.63-3.49,6.1-3.41,9.56
				c0.01,0.49,0.1,1.07,0.53,1.31c0.27,0.15,0.6,0.12,0.91,0.09c1.93-0.2,3.89-0.41,5.71-1.1c1.82-0.7,3.5-1.95,4.29-3.73
				c3.24,2.61,6.71-2.07,7.82-5.15c1.58-4.39-1.45-3.1-4.16-5.61C618.76,174.28,616.71,176.59,616.89,176.88z"/>
			<path class="st3" d="M600.02,182.65c0.67,0.03,1.34-0.16,1.9-0.53c-0.02-0.81-0.04-1.61-0.07-2.42c0.54-0.43-0.19-2.65-0.88-2.73
				c-0.68-0.08-1.31,0.37-1.85,0.79c-1.53,1.2-3.05,2.39-4.58,3.59c-0.89,0.7-1.79,1.4-2.5,2.29c-1.21,1.51-1.79,3.43-2.77,5.1
				c-0.98,1.66-2.41,3.57-1.53,5.27c0.55,1.06,1.87,1.54,3.06,1.43s2.28-0.69,3.31-1.29c2.53-1.48,5.24-3.69,5.07-6.61
				c-0.04-0.74-0.27-1.53,0.07-2.19c0.29-0.56,0.91-0.86,1.33-1.32C601.02,183.56,600.6,182.9,600.02,182.65z"/>
			<path class="st3" d="M622.12,196.53c-0.33,1.42-1.32,3.09-0.31,4.15c0.4,0.42,1.01,0.56,1.58,0.68c0.91,0.19,1.83,0.38,2.76,0.34
				c3.85-0.18,8.31-7.92,5.7-10.89c-1.25-1.43-4.7-1.5-6.36-1.02C621.36,190.97,622.94,192.98,622.12,196.53z"/>
			<path class="st3" d="M651.51,201.4c0.51,1.1,1.79,2.14,2.85,1.54c-0.44-1.96-0.87-3.93-1.31-5.89c-0.09-0.39-0.16-0.83,0.06-1.16
				c0.21-0.32,0.63-0.42,0.97-0.6c4.16-2.13,0.19-11.02-5.14-6.84C643.45,192.74,649.77,197.62,651.51,201.4z"/>
			<path class="st3" d="M662.38,186.7c-0.03,1.76-0.47,3.51-1.29,5.07c0.18,0.78,1.31,0.71,2.06,0.46c2.22-0.74,4.44-1.47,6.66-2.21
				c-0.04-1.28-0.08-2.57-0.12-3.85c-0.01-0.37-0.03-0.78-0.28-1.06c-0.57-0.67-1.73-0.12-2.53-0.49c-1.28-0.6-0.55-2.75-1.49-3.82
				c-2.09,0.86-3.34,3.36-2.77,5.55"/>
			<path class="st3" d="M679.08,178.66c-1.21-0.44-2.56,0.59-2.94,1.82c-0.39,1.23-0.1,2.56,0.2,3.81c-0.49-0.46-1.4,0.23-1.22,0.89
				s1.03,0.93,1.67,0.69c0.63-0.24,1.06-0.83,1.37-1.44c0.3-0.61,0.52-1.26,0.92-1.81c0.54-0.73,1.37-1.21,1.94-1.91
				c0.58-0.7,0.82-1.87,0.13-2.46c-0.88-0.75-2.25,0.09-3.37-0.2"/>
			<path class="st3" d="M680.28,160.71c-1.68,0.79-3.58,0.95-5.44,1.1c-2.91,0.23-5.82,0.47-8.73,0.7
				c-0.49,0.04-0.98,0.08-1.43,0.25c-0.74,0.28-1.37,0.89-2.16,0.94c-0.62,0.04-1.21-0.28-1.68-0.7c-1.24-1.1-1.78-2.88-1.5-4.5
				c0.28-1.63,1.35-3.08,2.75-3.95c0.31-0.19,0.65-0.36,1.01-0.39c1.16-0.11,2.58,1.05,3.3,0.15c1,0.76,1.54,2.08,1.37,3.32
				c-0.05,0.34-0.13,0.71,0.06,0.99c0.23,0.33,0.7,0.34,1.1,0.31c2.23-0.15,4.46-0.3,6.7-0.44c0.82-0.05,1.86-0.3,1.97-1.11
				c-1.25-1.81-3.97-1.46-6.1-0.92c0.47-1.43,1.98-2.32,3.48-2.5s3,0.2,4.46,0.59C683.76,155.68,685.42,158.3,680.28,160.71z"/>
			<path class="st3" d="M669.89,146.75c-0.8,0.79-1.34,1.83-1.54,2.94c-1.73,0.04-3.47,0.07-5.2,0.11
				c-0.62,0.01-1.26,0.02-1.86-0.17c-0.61-0.21-1.15-0.63-1.52-1.17c-0.42-0.6-0.61-1.48-0.13-2.03c0.18-0.21,0.43-0.33,0.68-0.46
				c2.1-1.05,4.2-2.11,6.3-3.16c1.7,0.18,3.4,0.37,5.09,0.55c0.38,0.04,0.78,0.09,1.11,0.29c0.71,0.43,0.8,1.61,0.15,2.14
				c-2.31,0.02-4.63-0.05-6.93-0.23"/>
			<path class="st3" d="M702.16,150.11c-2.25-0.67-4.66-0.79-6.96-0.37c0.13,0.69,0.27,1.38,0.4,2.08c2.07,0.75,4.51,0.38,6.28-0.93
				c1.03-0.77,0.11-0.5-0.13-1.77C701.28,149.09,702.6,150.24,702.16,150.11z"/>
			<path class="st3" d="M713.33,153.22c-2.2,0.19-4.4,0.38-6.6,0.57c-0.37,0.03-0.75,0.07-1.09,0.22c-1.05,0.47-1.32,1.81-1.46,2.95
				c-0.04,0.35-0.08,0.72,0.08,1.04c0.4,0.77,1.52,0.57,2.37,0.42c5.31-0.92,10.13,4.71,15.44,3.78c0.78-0.14,1.63-0.51,1.88-1.27
				c0.43-1.33-1.3-2.34-2.69-2.38c-1.78-0.05-3.53,0.54-5.31,0.57c-1.78,0.03-3.82-0.75-4.33-2.46c1.25-1.02,3.04-0.86,4.64-0.95
				s3.52-0.77,3.79-2.36c-2.71,0.08-5.41,0.15-8.12,0.23"/>
			<path class="st3" d="M716.35,208.72c-0.2,1.29,1.42,1.96,2.64,2.43c3.55,1.39,6.34,4.9,10.15,4.96c0.2,0.89,0.39,1.78,0.59,2.67
				c0.11,0.5,0.24,1.03,0.62,1.38c0.38,0.34,0.92,0.42,1.43,0.48c1.48,0.17,3.01,0.34,4.42-0.13c1.4-0.47,2.65-1.57,4.12-1.48
				c1.47,0.09,3.27,1.24,4.16,0.07c0.54-0.71,0.14-1.78-0.54-2.35s-1.57-0.81-2.35-1.22c-2.68-1.39-4.47-4.79-7.49-4.76
				c-1.88,0.02-3.66,1.46-5.49,1.04C727.49,211.55,716.8,205.69,716.35,208.72z"/>
			<path class="st3" d="M474.39,135.54c-0.32-0.48-0.68-0.95-1.16-1.26c-1-0.64-2.48-0.38-3.21,0.56s-0.6,2.44,0.27,3.24
				c0.49,0.46,1.15,0.68,1.7,1.07c2.46,1.7,1.93,5.4,2.77,8.28c0.19,0.66,0.48,1.31,0.96,1.8c0.93,0.95,2.46,1.14,3.73,0.73
				c3.9-1.26,5.32-4.34,2.39-6.94C478.82,140.35,476.75,139.05,474.39,135.54z"/>
			<path class="st3" d="M475.38,113.63c-0.56-0.12-1.16-0.11-1.68-0.37c-0.52-0.25-0.92-0.89-0.66-1.4
				c-0.72,0.27-0.88,1.26-0.59,1.97s0.88,1.24,1.32,1.87c1.84,2.66,0.58,6.13,1.97,8.9c0.94,1.88,3.87,4.85,4.96,1.8
				c0.74-2.09-1.95-4.76-2.19-6.81c-0.21-1.83,1.31-1.63,0.46-3.47C478.44,114.96,476.56,113.87,475.38,113.63z"/>
			<path class="st3" d="M492.04,72.05c-0.22,1.22,1.01,2.23,2.21,2.59c0.95,0.28,2.04,0.4,2.69,1.16c0.64,0.75,0.07,2.34-0.87,2.01
				c0.3,1.96,0.86,3.88,1.68,5.69c-1.97-0.46-3.93-0.93-5.9-1.39c-0.4-0.09-0.82-0.2-1.13-0.47c-0.29-0.26-0.45-0.63-0.6-0.99
				c-0.99-2.36-1.98-4.71-2.96-7.07c3.78-1.17-4.95-13.67,3.1-11.15c1.84,0.57,5.8,3.61,6.8,5.24
				C500.87,73.92,492.51,69.48,492.04,72.05z"/>
			<path class="st3" d="M535.48,78.24c-0.32-0.74-1.36-0.79-2.13-0.58s-1.61,0.57-2.35,0.27c-0.38-0.15-0.68-0.47-1.07-0.57
				c-0.64-0.18-1.28,0.22-1.81,0.62c-2.02,1.55-3.77,3.45-5.15,5.59c0.88,0.44,1.96,0.07,2.77-0.48c0.81-0.56,1.51-1.29,2.42-1.68
				c1.36-0.58,2.95-0.27,4.38-0.65s2.71-2.2,1.69-3.28"/>
			<path class="st3" d="M557.21,78.05c-0.06,1.69-1.6,3.19-3.29,3.21c-0.07,0.39,0.48,0.55,0.87,0.55c0.91,0,1.82,0,2.73,0
				c0.35,0,0.72,0,1.03-0.18c0.72-0.4,0.78-1.51,1.5-1.91c0.43-0.24,1.12-0.26,1.2-0.75c0.06-0.37-0.33-0.64-0.66-0.81
				c-0.68-0.36-1.42-0.73-2.18-0.62s-1.45,0.94-1.11,1.63"/>
			<path class="st3" d="M576.39,89.81c-1.11-0.33-2.29,0.57-2.68,1.67s-0.17,2.3,0.07,3.43s0.54,2.3,0.3,3.44
				c-0.1-2.29,0.09-5.09,2.14-6.11c0.95-0.47,2.16-0.38,3.03,0.23c0.32,0.23,0.61,0.52,1,0.61c1.06,0.24,1.68-1.15,1.86-2.22
				c-1.51-0.57-3.02-1.13-4.53-1.7c-0.91-0.34-2.26-0.48-2.55,0.45"/>
			<path class="st3" d="M515.33,89.26c-1.43-0.07-2.87,0.09-4.25,0.49c-0.42,0.12-0.84,0.27-1.19,0.53
				c-0.39,0.3-0.66,0.74-0.92,1.16c-1.65,2.72-3.3,5.45-4.95,8.17c0.98,0.54,2.12-0.34,2.86-1.17c1.57-1.77,2.99-3.66,4.26-5.65
				c0.21-0.33,0.46-0.7,0.85-0.77c1.46-0.28,3.64,2.16,4.73,0.71C517.27,92.01,516.36,89.32,515.33,89.26z"/>
			<path class="st3" d="M528.6,88.34c-1.03,1.8-2.08,3.7-2.14,5.77c-0.07,2.48,1.31,5,0.5,7.35c-2.12-2.26-2.98-5.46-3.07-8.55
				c-0.04-1.44,0.08-2.94,0.81-4.18s2.21-2.13,3.61-1.79c-0.09,0.54-0.18,1.08-0.28,1.62"/>
			<path class="st3" d="M538.44,70.94c-0.13-0.35-0.08-0.76,0.12-1.08c-0.38-0.33-0.77-0.67-1.15-1c0.57,0.4,1.4-0.23,1.45-0.93
				c0.06-0.69-0.37-1.33-0.77-1.89c-0.79-1.11-2.24-2.33-3.3-1.48c1.21,1.13,0.7,3.11,0.1,4.65c-0.35,0.89-0.69,1.79-1.04,2.68
				c1.61,0.35,3.29,0.35,4.9,0.01c0.26-0.68,0.35-1.71-0.36-1.87"/>
			<path class="st3" d="M532.92,55.62c0.49,0.13,0.11,0.87-0.31,1.15c-1.17,0.76-2.35,1.53-3.52,2.29
				c-0.63,0.38-1.43-0.45-1.32-1.18s0.74-1.26,1.33-1.71c1-0.78,2.44-1.57,3.44-0.79c0.05,0.44,0.1,0.88,0.15,1.33"/>
			<path class="st3" d="M527.88,64.92c-1.12,0.78-2.49,1.19-3.86,1.17c-0.23,0-0.47-0.02-0.65-0.17c-0.49-0.4,0.04-1.25,0.67-1.36
				s1.27,0.14,1.9,0.04c0.47-0.07,0.89-0.34,1.36-0.46s1.06,0,1.24,0.44s-0.51,0.98-0.78,0.59"/>
			<path class="st3" d="M558.43,76.99c0.24-0.77,1.26-0.94,2.06-0.81c0.8,0.13,1.66,0.4,2.37,0.01c0.36-0.19,0.63-0.54,1.01-0.69
				c0.61-0.25,1.3,0.08,1.86,0.42c2.18,1.32,4.12,3.02,5.73,5c-0.82,0.54-1.94,0.28-2.8-0.18c-0.87-0.46-1.64-1.12-2.58-1.41
				c-1.42-0.43-2.96,0.05-4.43-0.17s-2.93-1.9-2.03-3.08"/>
			<path class="st3" d="M554.69,70.06c0.09-0.36,0-0.77-0.24-1.06c0.35-0.37,0.69-0.75,1.04-1.12c-0.53,0.46-1.42-0.08-1.55-0.77
				c-0.13-0.68,0.22-1.36,0.56-1.97c0.67-1.19,1.98-2.56,3.12-1.83c-1.08,1.25-0.36,3.17,0.41,4.64c0.44,0.85,0.88,1.7,1.33,2.55
				c-1.56,0.52-3.23,0.71-4.87,0.54c-0.33-0.64-0.53-1.66,0.15-1.9"/>
			<path class="st3" d="M558.52,54.23c-0.47,0.18-0.02,0.88,0.44,1.11c1.25,0.63,2.5,1.26,3.75,1.89c0.67,0.31,1.38-0.61,1.18-1.32
				c-0.19-0.71-0.87-1.17-1.5-1.56c-1.08-0.67-2.59-1.3-3.5-0.41c0,0.44,0,0.89,0,1.33"/>
			<path class="st3" d="M564.54,62.93c1.2,0.65,2.61,0.92,3.96,0.75c0.23-0.03,0.47-0.08,0.63-0.24c0.45-0.45-0.18-1.23-0.81-1.28
				c-0.63-0.04-1.25,0.28-1.89,0.25c-0.48-0.02-0.93-0.24-1.4-0.31c-0.47-0.06-1.05,0.11-1.19,0.57s0.61,0.92,0.84,0.5"/>
			<path class="st3" d="M536.2,84.16c-0.48,1.35-0.06,2.98,1.03,3.91c1.46-1.27,0.64-4.16-1.27-4.47"/>
			<path class="st3" d="M537.98,94.92c-0.82,0.12-1.11,1.38-0.47,1.91c0.64,0.52,1.76,0.1,1.97-0.7c0.21-0.8-0.43-1.68-1.25-1.81
				c-0.34-0.05-0.62,0.57-0.3,0.46"/>
			<path class="st3" d="M536.93,99.82c-0.14,1.29-0.68,2.53-1.51,3.53c2.02-0.16,3.46-2.63,2.62-4.47
				c-0.52,0.16-0.89,0.71-0.85,1.25"/>
			<path class="st3" d="M538.76,90.08c-0.33,0.04-0.66,0.07-1,0.11c-0.46,0.75,0.08,1.88,0.94,2.01s1.7-0.82,1.46-1.66
				c-0.23-0.84-1.43-1.23-2.11-0.68"/>
			<path class="st3" d="M466.61,161.15c-0.47-0.27-1.13-0.15-1.47,0.26c0.3-0.37,0.09-0.95-0.28-1.26c-0.37-0.3-0.85-0.43-1.27-0.63
				c-1.38-0.67-2.17-2.37-1.79-3.86c-1.44,0.21-2.38,1.61-2.93,2.96c-0.54,1.35-0.92,2.85-1.98,3.84c2.92,0.48,5.82,1.06,8.7,1.74
				c0.77-0.68,1.59-1.44,1.71-2.46c0.13-1.01-0.93-2.15-1.84-1.69"/>
			<path class="st3" d="M478.18,171.54c-0.41,0.03-0.41,0.65-0.22,1.02c1.27,2.45,4.87,3.48,5.21,6.22
				c-2.18,0.02-4.35,0.04-6.53,0.06c-1.09,0.01-2.22,0.01-3.24-0.38s-1.94-1.27-2.03-2.36c1.74-2.16,4.46-3.5,7.24-3.57"/>
			<path class="st3" d="M557.64,164.35c-3.38,0.35-7-0.24-9.68-2.33c-0.43-0.33-0.97-0.73-1.47-0.5c-0.31,0.14-0.48,0.47-0.68,0.75
				c-0.42,0.57-1.06,0.92-1.69,1.23c-5.28,2.58-11.58,3.01-17.16,1.16c-0.35,0.46,0.3,1.02,0.84,1.23c8.41,3.14,17.65,3.1,26.6,2.42
				c2.15-0.16,4.31-0.36,6.37-1c3.09-0.96,5.79-2.88,8.43-4.77c0.17-0.12,0.34-0.24,0.44-0.42c1.24-2.31-4.38,0.3-4.6,0.39
				C562.68,163.4,560.15,164.09,557.64,164.35z"/>
			<path class="st3" d="M584.26,70.67c3.48-0.69,6.87-1.83,10.06-3.39c0.84-0.41,1.7-0.86,2.63-0.86s1.94,0.63,2,1.56
				c-1.22,0.75-2.09,2.05-2.31,3.47c0.97,0.19,1.96,0.25,2.95,0.18c-0.54,0.71-1.09,1.42-1.63,2.13c0.55,0.15,1.03,0.55,1.29,1.06
				c-1.1,0.35-2.26,0.53-3.41,0.54c0.43,0.39,0.97,0.66,1.54,0.77c0.11,0.92-1.23,1.37-2.05,0.95c-0.82-0.42-1.31-1.29-1.99-1.92
				c-0.75-0.69-1.76-1.08-2.77-1.08c1.14-0.48,2.29-0.95,3.43-1.43c-2.62-0.65-5.47-0.3-7.86,0.96c-0.93-1.02-1.59-2.29-1.89-3.64
				c1.92-0.58,3.96-0.77,5.95-0.55"/>
			<path class="st3" d="M495.7,56.57c-1.84-0.87-3.82-1.77-5.83-1.42c0.83,1.59,2.91,1.91,4.64,2.37c4.03,1.07,7.53,4,9.29,7.78
				c-0.83-0.03-1.65,0.06-2.46,0.25c1.15-0.16,1.99,1,2.69,1.92c0.87,1.14,2.95,2.04,3.85,0.32c0.75-1.44-1.2-3.52-2.08-4.55
				C503.12,60.13,499.33,58.3,495.7,56.57z"/>
			<path class="st3" d="M585.5,63.88c-0.65-0.16-1.12-0.88-0.99-1.54c4.12-0.16,6.32-5.25,10.23-6.53
				c-5.78,1.31-10.97,4.49-15.57,8.22c-0.68,0.55-1.4,1.23-1.43,2.1C577.67,69.47,584.76,64.73,585.5,63.88z"/>
			<path class="st3" d="M537.53,185.04c-1.48,0.5-3.02,0.81-4.57,0.91c-1.37,0.09-2.81,0.01-3.99-0.71
				c-1.17-0.71-1.95-2.21-1.47-3.49c0.59-1.59,2.58-2.02,4.01-2.93c1.04-0.66,1.84-1.64,2.61-2.6c2.5,0.19,4.15,2.77,4.67,5.22
				c0.14,0.68,0.22,1.41-0.06,2.04c-0.28,0.63-1.06,1.08-1.68,0.8c-0.25-0.11-0.47-0.33-0.74-0.32s-0.44,0.48-0.17,0.52"/>
			<path class="st3" d="M550.02,187.6c-1.04-0.64-2.26,0.54-2.77,1.66c-0.5,1.11-1.09,2.51-2.3,2.6c0.92,2.09,2.41,3.92,4.27,5.25
				c1.29-0.79,2.52-1.69,3.65-2.69c0.64,0.87,1.28,1.75,1.91,2.62c0.78-0.62,1.58-1.28,1.95-2.2s0.11-2.17-0.8-2.56
				c-0.33-0.14-0.7-0.15-1.04-0.29c-0.55-0.22-0.91-0.74-1.24-1.23c-0.74-1.09-1.48-2.18-2.22-3.28c-0.57,0.01-1.13,0.02-1.7,0.02"
				/>
			<path class="st3" d="M526.85,193.3c-0.22,0.44-0.28,0.96-0.19,1.45c-0.96,0.43-2.01,0.65-3.06,0.62
				c-0.08,0.53-0.16,1.06-0.24,1.59c-1.97-0.94-3.82-2.1-5.52-3.46c-0.5-0.4-1.02-0.92-0.95-1.55c0.08-0.64,0.73-1.02,1.27-1.37
				c1.53-1,2.7-2.56,3.22-4.31c2.45,1.63,4.38,4.04,5.43,6.8"/>
			<path class="st3" d="M510.76,187.04c-0.9,2.39-1.17,5.02-0.78,7.54c-0.77,0.59-1.89,0.53-2.76,0.1s-1.55-1.16-2.2-1.88
				c-0.26-0.28-0.53-0.58-0.65-0.95c-0.16-0.47-0.05-0.99,0.07-1.47c0.4-1.6,0.9-3.17,1.51-4.71c0.53-1.35,1.57-2.91,3-2.65
				c0.87,0.16,1.48,1,1.66,1.87c0.17,0.87-0.01,1.76-0.19,2.63c0.35-0.03,0.7,0.09,0.96,0.31"/>
			<g>
				<path class="st3" d="M546.11,100.34c0.01,0.68,0.08,1.4-0.19,2.02s-1.07,1.09-1.65,0.73c-0.3,0.45,0.19,1.04,0.7,1.24
					c0.5,0.21,1.12,0.32,1.39,0.79c0.14,0.23,0.16,0.52,0.17,0.79c0.31,5.03,0.61,10.07,0.92,15.1c0.45-5.21,0.73-10.43,0.82-15.66
					c0.68-0.3,1.46,0.02,2.18,0.19c0.73,0.17,1.7,0.06,1.92-0.66c-0.88-0.9-2.18-1.37-3.43-1.24c-0.24,0.02-0.52,0.06-0.71-0.09
					c-0.2-0.17-0.21-0.47-0.2-0.73c0.05-1.13,0.11-2.25,0.16-3.38c0.04-0.83,0.06-1.74-0.44-2.41c-0.54-0.73-1.41-0.68-2.01-0.15
					C546.71,97.9,546.1,98.98,546.11,100.34z"/>
				<path class="st3" d="M533.04,119.74c-0.63,1.77-0.89,3.66-0.77,5.54c0.03,0.4,0.07,0.82-0.1,1.19c-0.25,0.54-0.9,0.81-1.5,0.78
					s-1.15-0.29-1.69-0.55c0.07-2.26,0.74-4.5,1.94-6.42c0.34-0.55,0.86-1.13,1.49-1.03c0.03,0.25,0.06,0.51,0.09,0.76"/>
				<path class="st3" d="M562.4,119.17c0.35,1.79,0.69,3.57,1.04,5.36c0.04,0.22,0.09,0.46,0.23,0.63c0.13,0.17,0.34,0.27,0.53,0.37
					c0.69,0.34,1.37,0.67,2.06,1.01c0.59-1.27-0.03-2.76-0.8-3.93s-1.73-2.31-1.89-3.7c-0.16-0.07-0.34-0.14-0.5-0.08
					s-0.22,0.34-0.05,0.4"/>
			</g>
		</g>
		
			<linearGradient id="SVGID_1_" gradientUnits="userSpaceOnUse" x1="706.1973" y1="-1887.635" x2="706.1973" y2="-1893.5391" gradientTransform="matrix(0.9985 -0.0542 0.0542 0.9985 -82.5189 2033.6642)">
			<stop  offset="0" style="stop-color:#989AAA"/>
			<stop  offset="1" style="stop-color:#646C82"/>
		</linearGradient>
		<circle class="st11" cx="520.15" cy="107.65" r="4.65"/>
		<circle class="st12" cx="520.92" cy="106.91" r="2.53"/>
		
			<linearGradient id="SVGID_00000044168545885199699660000006652201516792086922_" gradientUnits="userSpaceOnUse" x1="757.6561" y1="-1884.7097" x2="757.6561" y2="-1890.614" gradientTransform="matrix(0.9985 -0.0542 0.0542 0.9985 -82.5189 2033.6642)">
			<stop  offset="0" style="stop-color:#989AAA"/>
			<stop  offset="1" style="stop-color:#646C82"/>
		</linearGradient>
		<circle style="fill:url(#SVGID_00000044168545885199699660000006652201516792086922_);" cx="571.69" cy="107.78" r="4.65"/>
		<circle class="st12" cx="571.23" cy="106.61" r="2.53"/>
	</g>
</g>
<g id="eyes-m.psd_1_">
	
		<image style="overflow:visible;enable-background:new    ;" width="691" height="230" id="eyes-m" xlink:href="CFFB64D681DC1917.png"  transform="matrix(0.8774 0 0 0.8774 198.7272 2804.7776)">
	</image>
</g>
<circle class="st14" cx="304.97" cy="2898.68" r="70.5"/>
<circle class="st14" cx="669.1" cy="2900.68" r="70.5"/>
<ellipse transform="matrix(0.7071 -0.7071 0.7071 0.7071 -1908.4174 1194.0001)" class="st15" cx="487.08" cy="2900.66" rx="70.5" ry="70.5"/>
<path class="st16" d="M417.59,2520.42c100,0,190.01-310.24,280.01-310.24"/>
<path class="st16" d="M361.84,2707.94c100,0,118.76,46.24,208.76,46.24"/>
<path class="st16" d="M613.6,1093.18c0,170,138,567,138,845"/>
<g>
	<rect x="17.51" y="2510.07" class="st17" width="424.4" height="216.53"/>
	<text transform="matrix(1 0 0 1 17.5071 2534.0679)"><tspan x="0" y="0" class="st3 st18 st19">Their short, well-developed </tspan><tspan x="0" y="38.4" class="st3 st18 st19">front legs and chest muscles </tspan><tspan x="0" y="76.8" class="st3 st18 st19">help with balance when </tspan><tspan x="0" y="115.2" class="st3 st18 st19">climbing</tspan></text>
</g>
<g>
	<text transform="matrix(1 0 0 1 10.5621 2168.0886)" class="st3 st20 st21">BIG MOUTH</text>
</g>
<g>
	<polygon class="st17" points="459.82,2470.2 10.56,2470.2 10.56,2195.76 400.7,2195.76 	"/>
	<text transform="matrix(1 0 0 1 10.5624 2219.7588)"><tspan x="0" y="0" class="st3 st18 st19">Their upper and lower jaws </tspan><tspan x="0" y="38.4" class="st3 st18 st19">can open wider than 70 </tspan><tspan x="0" y="76.8" class="st3 st18 st19">degrees, which may be </tspan><tspan x="0" y="115.2" class="st3 st18 st19">related to the fact that their </tspan><tspan x="0" y="153.6" class="st3 st18 st19">prey consists mainly of large </tspan><tspan x="0" y="192" class="st3 st18 st19">ungulates such as bharal, ibex </tspan><tspan x="0" y="230.4" class="st3 st18 st19">and white-lipped deer. </tspan></text>
</g>
<g>
	<rect x="510.51" y="917.6" class="st17" width="283.85" height="214.17"/>
	<text transform="matrix(1 0 0 1 510.506 941.5996)"><tspan x="0" y="0" class="st3 st18 st19">A shallow nasal </tspan><tspan x="0" y="38.4" class="st3 st18 st19">cavity warms the </tspan><tspan x="0" y="76.8" class="st3 st18 st19">air before it reaches </tspan><tspan x="0" y="115.2" class="st3 st18 st19">the cats lungs</tspan></text>
</g>
<g>
	<rect x="12.24" y="39.14" class="st17" width="405.44" height="189.32"/>
	<text transform="matrix(1 0 0 1 12.2444 63.1405)"><tspan x="0" y="0" class="st3 st18 st19">The tail can also act as a </tspan><tspan x="0" y="38.4" class="st3 st18 st19">blanket and as a warm </tspan><tspan x="0" y="76.8" class="st3 st18 st19">scarf, covering the </tspan><tspan x="0" y="115.2" class="st3 st18 st19">animals mouth and nose </tspan><tspan x="0" y="153.6" class="st3 st18 st19">when it lies down.</tspan></text>
</g>
<g>
	<rect x="10.56" y="304.14" class="st17" width="252.36" height="148.61"/>
	<text transform="matrix(1 0 0 1 10.5628 328.141)"><tspan x="0" y="0" class="st3 st18 st19">The tail provides </tspan><tspan x="0" y="38.4" class="st3 st18 st19">balance during </tspan><tspan x="0" y="76.8" class="st3 st18 st19">movement.</tspan></text>
</g>
<g>
	<rect x="17.51" y="2830.75" class="st17" width="208.22" height="191.8"/>
	<text transform="matrix(1 0 0 1 17.5071 2854.7461)"><tspan x="0" y="0" class="st3 st18 st19">Their eyes are </tspan><tspan x="0" y="38.4" class="st3 st18 st19">more circular </tspan><tspan x="0" y="76.8" class="st3 st18 st19">than those of </tspan><tspan x="0" y="115.2" class="st3 st18 st19">other big cats</tspan></text>
</g>
<g>
	<text transform="matrix(1 0 0 1 456.621 3010.5105)"><tspan x="0" y="0" class="st3 st18 st19">Snow</tspan><tspan x="-14.13" y="38.4" class="st3 st18 st19">leopard</tspan></text>
</g>
<g>
	<text transform="matrix(1 0 0 1 238.0543 3009.583)" class="st3 st18 st19">Amur tiger</text>
</g>
<g>
	<text transform="matrix(1 0 0 1 644.8291 3009.5823)" class="st3 st18 st19">Lion</text>
</g>
<g>
	<rect x="17.51" y="2693.69" class="st17" width="333.18" height="77.71"/>
	<text transform="matrix(1 0 0 1 17.5071 2717.6897)"><tspan x="0" y="0" class="st3 st18 st19">Fur-covered feet act as </tspan><tspan x="0" y="38.4" class="st3 st18 st19">natural snowshoes</tspan></text>
</g>
</svg>
