<?xml version="1.0" encoding="utf-8"?>
<!-- Generator: Adobe Illustrator 27.0.0, SVG Export Plug-In . SVG Version: 6.00 Build 0)  -->
<svg version="1.1" id="Layer_1" xmlns="http://www.w3.org/2000/svg" xmlns:xlink="http://www.w3.org/1999/xlink" x="0px" y="0px"
	 viewBox="0 0 800 1249.52" style="enable-background:new 0 0 800 1249.52;" xml:space="preserve">
<style type="text/css">
	@import url('https://fonts.googleapis.com/css?family=Roboto:300,400,700');
	.st0{fill:none;}
	.st1{fill:#221E1F;}
	.st2{font-family:'Roboto';font-weight: 300;}
	.st3{font-size:34px;}
	.st4{fill:none;stroke:#221E1F;stroke-width:6;stroke-miterlimit:10;}
	.st5{font-family:'Roboto';font-weight: 700;}
	.st6{font-size:28px;}
	.st7{fill:#FFFFFF;}
	.st8{font-size:32px;}
	.st9{font-size:38.2545px;}
</style>
<image style="overflow:visible;" width="806" height="1089" xlink:href="40949FABAB2F6E14.png"  transform="matrix(1 0 0 1 -1.2517 5.0152)">
</image>
<g>
	<rect x="0.23" y="43.14" class="st0" width="456.52" height="266.88"/>
	<text transform="matrix(1 0 0 1 0.2265 68.6376)"><tspan x="0" y="0" class="st1 st2 st3">Snow leopards use the cover </tspan><tspan x="0" y="40.8" class="st1 st2 st3">of rocks, vegetation and </tspan><tspan x="0" y="81.6" class="st1 st2 st3">changes in terrain to quietly </tspan><tspan x="0" y="122.4" class="st1 st2 st3">ambush their prey, jumping </tspan><tspan x="0" y="163.2" class="st1 st2 st3">short distances to kill by </tspan><tspan x="0" y="204" class="st1 st2 st3">biting the throat to cause </tspan></text>
</g>
<circle class="st4" cx="661.93" cy="629.01" r="143.37"/>
<g>
	<text transform="matrix(1 0 0 1 111.9941 380.0858)" class="st1 st5 st6">Ibex</text>
</g>
<rect x="510.28" y="38.21" class="st1" width="268.86" height="257.4"/>
<line class="st4" x1="661.93" y1="485.64" x2="661.93" y2="248.06"/>
<rect x="533.75" y="54.02" class="st0" width="221.15" height="231.38"/>
<text transform="matrix(1 0 0 1 533.7471 78.0155)"><tspan x="0" y="0" class="st7 st5 st8">The snow </tspan><tspan x="0" y="38.4" class="st7 st5 st8">leopard fur </tspan><tspan x="0" y="76.8" class="st7 st5 st8">provides </tspan><tspan x="0" y="115.2" class="st7 st5 st8">camouflage </tspan><tspan x="0" y="153.6" class="st7 st5 st8">against the </tspan><tspan x="0" y="192" class="st7 st5 st8">rocky terrain.</tspan></text>
<g>
	<text transform="matrix(1 0 0 1 3.7754 1039.8212)" class="st1 st5 st9">ECOSYSTEM BAROMETER</text>
</g>
<g>
	<rect x="3.78" y="1065.16" class="st0" width="773" height="168.53"/>
	<text transform="matrix(1 0 0 1 3.7757 1090.663)"><tspan x="0" y="0" class="st1 st2 st3">Snow leopards are regarded as barometers of high </tspan><tspan x="0" y="40.8" class="st1 st2 st3">mountain ecosystems. When the snow leopard </tspan><tspan x="0" y="81.6" class="st1 st2 st3">population declines, it likely indicates that the local </tspan><tspan x="0" y="122.4" class="st1 st2 st3">ecosystem is under pressure or being damaged.</tspan></text>
</g>
</svg>
