<?xml version="1.0" encoding="utf-8"?>
<!-- Generator: Adobe Illustrator 27.0.0, SVG Export Plug-In . SVG Version: 6.00 Build 0)  -->
<svg version="1.1" id="Layer_1" xmlns="http://www.w3.org/2000/svg" xmlns:xlink="http://www.w3.org/1999/xlink" x="0px" y="0px"
	 viewBox="0 0 800 1154.92" style="enable-background:new 0 0 800 1154.92;" xml:space="preserve">
<style type="text/css">
	@import url('https://fonts.googleapis.com/css?family=Roboto:300,400,700');
	.st0{fill:none;stroke:#221E1F;stroke-width:0.5989;stroke-miterlimit:10;}
	.st1{fill:#221E1F;}
	.st2{font-family:'Roboto';font-weight: 300;}
	.st3{font-size:32px;}
	.st4{font-size:34px;}
	.st5{opacity:0.2;fill:#00B8F1;}
	.st6{opacity:0.2;fill:#FFCD2D;}
	.st7{fill:none;stroke:#F6921D;stroke-width:8;stroke-miterlimit:10;}
	.st8{fill:none;stroke:#00B8F1;stroke-width:8;stroke-miterlimit:10;}
	.st9{fill:#A6A8AB;}
	.st10{clip-path:url(#SVGID_00000062156968569111861190000016295462500007370925_);}
	.st11{clip-path:url(#SVGID_00000175296640319900099960000003640487521861890735_);}
	.st12{fill:none;stroke:#A6A8AB;stroke-width:6;stroke-miterlimit:10;}
</style>
<g>
	<g>
		<polyline class="st0" points="154.28,87.45 154.28,869.33 775.8,869.33 		"/>
		<line class="st0" x1="174.17" y1="99.88" x2="154.28" y2="99.88"/>
		<line class="st0" x1="154.28" y1="674.17" x2="174.17" y2="674.17"/>
		<line class="st0" x1="174.17" y1="482.74" x2="154.28" y2="482.74"/>
		<line class="st0" x1="174.17" y1="291.31" x2="154.28" y2="291.31"/>
		<line class="st0" x1="179.14" y1="899.53" x2="179.14" y2="869.33"/>
		<line class="st0" x1="321.47" y1="899.53" x2="321.47" y2="869.33"/>
		<line class="st0" x1="465.04" y1="899.53" x2="465.04" y2="869.33"/>
		<line class="st0" x1="607.37" y1="899.53" x2="607.37" y2="869.33"/>
		<line class="st0" x1="754.04" y1="899.53" x2="754.04" y2="869.33"/>
	</g>
	<g>
		<text transform="matrix(0.7071 -0.7071 0.7071 0.7071 101.6294 1009.1248)" class="st1 st2 st3">Midnight</text>
	</g>
	<g>
		<text transform="matrix(1 0 0 1 73.4586 869.1543)" class="st1 st2 st3">0.00</text>
	</g>
	<g>
		<text transform="matrix(1 0 0 1 73.4586 680.7852)" class="st1 st2 st3">0.02</text>
	</g>
	<g>
		<text transform="matrix(1 0 0 1 323.8219 30.8604)" class="st1 st2 st4">Ibex</text>
	</g>
	<g>
		<text transform="matrix(1 0 0 1 73.4586 489.5752)" class="st1 st2 st3">0.04</text>
	</g>
	<g>
		<text transform="matrix(1 0 0 1 73.4586 297.9346)" class="st1 st2 st3">0.06</text>
	</g>
	<g>
		<text transform="matrix(1 0 0 1 73.4586 104.5469)" class="st1 st2 st3">0.08</text>
	</g>
	<g>
		<text transform="matrix(0.7071 -0.7071 0.7071 0.7071 669.9055 1009.1137)" class="st1 st2 st3">Midnight</text>
	</g>
	<g>
		<text transform="matrix(0.7071 -0.7071 0.7071 0.7071 257.2997 995.7713)" class="st1 st2 st3">Sunrise</text>
	</g>
	<g>
		<text transform="matrix(0.7071 -0.7071 0.7071 0.7071 555.0847 990.0145)" class="st1 st2 st3">Sunset</text>
	</g>
	<g>
		<text transform="matrix(0.7071 -0.7071 0.7071 0.7071 402.5905 994.3747)" class="st1 st2 st3">Midday</text>
	</g>
	<text transform="matrix(0 -1 1 0 39.9137 700.9316)" class="st1 st2 st3">Activity (distance) density</text>
	<g>
		<path class="st5" d="M754.04,370.24c-5.59-4.66-17.71-17.71-17.71-17.71c-12.12-26.1-45.68-40.09-45.68-40.09
			c-16.78-18.65-46.67,0-46.67,0c-57.85,28.9-70.8,137.98-70.8,137.98c-11.19,53.14-69.92,223.75-69.92,223.75
			c-19.58,55.94-46.61,56.87-46.61,56.87c-51.28,0-76.45-113.74-76.45-113.74c-11.19-71.79-74.58-228.41-74.58-228.41
			c-18.65-50.34-48.48-46.61-48.48-46.61s-14.92,4.66-30.77,4.66s-19.58,4.66-24.24,10.26s-23,13.05-23,13.05V869.4h574.91V370.24z"
			/>
		<path class="st6" d="M754.04,680.79c0,0-11.19,7.37-18.65,0.25c-7.46-7.12-19.58-0.25-19.58-0.25c-7.46,10.35-26.1,4.57-26.1,4.57
			c-40.09-21.44-51.28-276.89-51.28-294.6s-14.92-184.1-14.92-184.1s-0.93-41.52-12.12-40.58s-19.58,87.63-19.58,87.63
			c-6.53,62.46-26.1,143.57-26.1,143.57c-8.39,35.43-38.22,27.97-46.61,16.78c-8.39-11.19-21.73-8.39-21.73-8.39s-9.03,4.66-16.49,0
			c-7.46-4.66-18.65-24.24-24.24-34.49s-7.46-5.59-26.1,4.32c-18.65,9.91-21.44,7.8-36.36-17.37s-44.75-146.37-44.75-146.37
			c-1.86-22.37-12.12-29.83-12.12-29.83c-16.78,5.59-25.17,165.01-27.04,183.66s-21.44,262.9-33.56,295.34s-25.17,30.03-31.7,27.23
			c-6.53-2.8-19.58-7.12-19.58-7.12c-19.58-3.39-22.37-13.74-22.37-13.74c-16.78-14.33-24.43,9.11-24.43,9.11v192.74h575.41V680.79z
			"/>
		<path class="st7" d="M178.64,676.4c0,0,7.65-23.44,24.43-9.11c0,0,2.8,10.36,22.37,13.74c0,0,13.05,4.32,19.58,7.12
			c6.53,2.8,19.58,5.21,31.7-27.23s31.7-276.69,33.56-295.34s10.26-178.07,27.04-183.66c0,0,10.26,7.46,12.12,29.83
			c0,0,29.83,121.2,44.75,146.37s17.71,27.29,36.36,17.37c18.65-9.91,20.51-14.58,26.1-4.32s16.78,29.83,24.24,34.49
			c7.46,4.66,16.49,0,16.49,0s13.34-2.8,21.73,8.39c8.39,11.19,38.22,18.65,46.61-16.78c0,0,19.58-81.11,26.1-143.57
			c0,0,8.39-86.7,19.58-87.63s12.12,40.58,12.12,40.58s14.92,166.38,14.92,184.1s11.19,273.16,51.28,294.6c0,0,18.65,5.78,26.1-4.57
			c0,0,12.12-6.87,19.58,0.25c7.46,7.12,18.65-0.25,18.65-0.25"/>
	</g>
	<g>
		<text transform="matrix(1 0 0 1 327.2701 86.6328)" class="st1 st2 st4">Snow leopard</text>
	</g>
	<path class="st8" d="M179.14,370.24c0,0,18.33-7.46,23-13.05s8.39-10.26,24.24-10.26s30.77-4.66,30.77-4.66s29.83-3.73,48.48,46.61
		c0,0,63.4,156.62,74.58,228.41c0,0,25.17,113.74,76.45,113.74c0,0,27.04-0.93,46.61-56.87c0,0,58.73-170.61,69.92-223.75
		c0,0,12.95-109.08,70.8-137.98c0,0,29.89-18.65,46.67,0c0,0,33.56,13.98,45.68,40.09c0,0,12.12,13.05,17.71,17.71"/>
	<g>
		<g>
			<circle class="st9" cx="448.82" cy="1095.29" r="23.92"/>
			<g>
				<path class="st9" d="M445.23,1129.71v15.42h7.17v-15.41c-1.2,0.12-2.36,0.36-3.58,0.36
					C447.59,1130.07,446.43,1129.84,445.23,1129.71z"/>
				<path class="st9" d="M452.41,1060.87v-15.41h-7.17v15.42c1.2-0.12,2.36-0.36,3.59-0.36
					C450.05,1060.51,451.21,1060.74,452.41,1060.87z"/>
				<path class="st9" d="M435.15,1047.23l-6.74,2.45l5.25,14.44c2.14-1.04,4.38-1.88,6.74-2.47L435.15,1047.23z"/>
				<path class="st9" d="M462.5,1143.35l6.74-2.45l-5.25-14.44c-2.14,1.04-4.38,1.88-6.74,2.47L462.5,1143.35z"/>
				<path class="st9" d="M468.31,1124.1l9.8,11.68l5.49-4.61l-9.83-11.71C472.11,1121.17,470.3,1122.75,468.31,1124.1z"/>
				<path class="st9" d="M429.33,1066.48l-9.8-11.68l-5.49,4.61l9.83,11.71C425.53,1069.41,427.34,1067.83,429.33,1066.48z"/>
				<path class="st9" d="M407.46,1067.27l-3.59,6.21l13.24,7.64c0.99-2.2,2.21-4.26,3.62-6.19L407.46,1067.27z"/>
				<path class="st9" d="M490.19,1123.31l3.59-6.21l-13.24-7.64c-0.99,2.2-2.21,4.26-3.62,6.19L490.19,1123.31z"/>
				<path class="st9" d="M400.37,1083.11l-1.25,7.06l15.16,2.67c0.17-2.44,0.59-4.79,1.24-7.06L400.37,1083.11z"/>
				<path class="st9" d="M482.12,1104.8l15.15,2.67l1.25-7.06l-15.16-2.67C483.19,1100.18,482.77,1102.53,482.12,1104.8z"/>
				<path class="st9" d="M399.12,1100.41l1.25,7.06l15.15-2.67c-0.65-2.28-1.06-4.63-1.24-7.06L399.12,1100.41z"/>
				<path class="st9" d="M498.52,1090.17l-1.25-7.06l-15.15,2.67c0.65,2.28,1.06,4.63,1.24,7.06L498.52,1090.17z"/>
				<path class="st9" d="M403.87,1117.1l3.59,6.21l13.27-7.66c-1.4-1.93-2.63-3.99-3.62-6.19L403.87,1117.1z"/>
				<path class="st9" d="M493.77,1073.48l-3.59-6.21l-13.27,7.66c1.4,1.93,2.63,3.99,3.62,6.19L493.77,1073.48z"/>
				<path class="st9" d="M423.87,1119.45l-9.83,11.71l5.49,4.61l9.8-11.68C427.34,1122.75,425.53,1121.17,423.87,1119.45z"/>
				<path class="st9" d="M473.78,1071.13l9.83-11.71l-5.49-4.61l-9.8,11.68C470.3,1067.83,472.11,1069.41,473.78,1071.13z"/>
				<path class="st9" d="M469.24,1049.68l-6.74-2.45l-5.25,14.42c2.36,0.59,4.6,1.42,6.74,2.47L469.24,1049.68z"/>
				<path class="st9" d="M428.41,1140.9l6.74,2.45l5.25-14.42c-2.36-0.59-4.6-1.42-6.74-2.47L428.41,1140.9z"/>
			</g>
		</g>
	</g>
	<g>
		<g>
			<path class="st9" d="M731.49,1055.98c2.21,4.66,3.48,9.85,3.48,15.36c0,19.85-16.09,35.94-35.94,35.94
				c-5.34,0-10.38-1.19-14.94-3.28c5.76,12.16,18.11,20.58,32.46,20.58c19.85,0,35.94-16.09,35.94-35.94
				C752.49,1074.13,743.87,1061.65,731.49,1055.98z"/>
		</g>
	</g>
	<g>
		<g>
			<path class="st9" d="M192.55,1055.98c2.21,4.66,3.48,9.85,3.48,15.36c0,19.85-16.09,35.94-35.94,35.94
				c-5.34,0-10.38-1.19-14.94-3.28c5.76,12.16,18.11,20.58,32.46,20.58c19.85,0,35.94-16.09,35.94-35.94
				C213.55,1074.13,204.93,1061.65,192.55,1055.98z"/>
		</g>
	</g>
	<g>
		<defs>
			<rect id="SVGID_1_" x="236.27" y="1015.34" width="119.93" height="79.95"/>
		</defs>
		<clipPath id="SVGID_00000031185195368101910820000013051002131015070607_">
			<use xlink:href="#SVGID_1_"  style="overflow:visible;"/>
		</clipPath>
		<g style="clip-path:url(#SVGID_00000031185195368101910820000013051002131015070607_);">
			<g>
				<circle class="st9" cx="296.75" cy="1095.29" r="23.92"/>
				<g>
					<path class="st9" d="M293.16,1129.71v15.42h7.17v-15.41c-1.2,0.12-2.36,0.36-3.58,0.36
						C295.52,1130.07,294.35,1129.84,293.16,1129.71z"/>
					<path class="st9" d="M300.33,1060.87v-15.41h-7.17v15.42c1.2-0.12,2.36-0.36,3.59-0.36
						C297.97,1060.51,299.14,1060.74,300.33,1060.87z"/>
					<path class="st9" d="M283.07,1047.23l-6.74,2.45l5.25,14.44c2.14-1.04,4.38-1.88,6.74-2.47L283.07,1047.23z"/>
					<path class="st9" d="M310.42,1143.35l6.74-2.45l-5.25-14.44c-2.14,1.04-4.38,1.88-6.74,2.47L310.42,1143.35z"/>
					<path class="st9" d="M316.24,1124.1l9.8,11.68l5.49-4.61l-9.83-11.71C320.04,1121.17,318.23,1122.75,316.24,1124.1z"/>
					<path class="st9" d="M277.25,1066.48l-9.8-11.68l-5.49,4.61l9.83,11.71C273.46,1069.41,275.27,1067.83,277.25,1066.48z"/>
					<path class="st9" d="M255.38,1067.27l-3.59,6.21l13.24,7.64c0.99-2.2,2.21-4.26,3.62-6.19L255.38,1067.27z"/>
					<path class="st9" d="M338.11,1123.31l3.59-6.21l-13.24-7.64c-0.99,2.2-2.21,4.26-3.62,6.19L338.11,1123.31z"/>
					<path class="st9" d="M248.29,1083.11l-1.25,7.06l15.16,2.67c0.17-2.44,0.59-4.79,1.24-7.06L248.29,1083.11z"/>
					<path class="st9" d="M330.05,1104.8l15.15,2.67l1.25-7.06l-15.16-2.67C331.11,1100.18,330.7,1102.53,330.05,1104.8z"/>
					<path class="st9" d="M247.05,1100.41l1.25,7.06l15.15-2.67c-0.65-2.28-1.06-4.63-1.24-7.06L247.05,1100.41z"/>
					<path class="st9" d="M346.45,1090.17l-1.25-7.06l-15.15,2.67c0.65,2.28,1.06,4.63,1.24,7.06L346.45,1090.17z"/>
					<path class="st9" d="M251.8,1117.1l3.59,6.21l13.27-7.66c-1.4-1.93-2.63-3.99-3.62-6.19L251.8,1117.1z"/>
					<path class="st9" d="M341.7,1073.48l-3.59-6.21l-13.27,7.66c1.4,1.93,2.63,3.99,3.62,6.19L341.7,1073.48z"/>
					<path class="st9" d="M271.79,1119.45l-9.83,11.71l5.49,4.61l9.8-11.68C275.27,1122.75,273.46,1121.17,271.79,1119.45z"/>
					<path class="st9" d="M321.7,1071.13l9.83-11.71l-5.49-4.61l-9.8,11.68C318.23,1067.83,320.04,1069.41,321.7,1071.13z"/>
					<path class="st9" d="M317.16,1049.68l-6.74-2.45l-5.25,14.42c2.36,0.59,4.6,1.42,6.74,2.47L317.16,1049.68z"/>
					<path class="st9" d="M276.33,1140.9l6.74,2.45l5.25-14.42c-2.36-0.59-4.6-1.42-6.74-2.47L276.33,1140.9z"/>
				</g>
			</g>
		</g>
	</g>
	<g>
		<defs>
			<rect id="SVGID_00000116211807184485029280000006989968588427678855_" x="531.34" y="1015.34" width="119.93" height="79.95"/>
		</defs>
		<clipPath id="SVGID_00000143609293905614627530000002304193560618607793_">
			<use xlink:href="#SVGID_00000116211807184485029280000006989968588427678855_"  style="overflow:visible;"/>
		</clipPath>
		<g style="clip-path:url(#SVGID_00000143609293905614627530000002304193560618607793_);">
			<g>
				<circle class="st9" cx="591.82" cy="1095.29" r="23.92"/>
				<g>
					<path class="st9" d="M588.22,1129.71v15.42h7.17v-15.41c-1.2,0.12-2.36,0.36-3.58,0.36
						C590.59,1130.07,589.42,1129.84,588.22,1129.71z"/>
					<path class="st9" d="M595.4,1060.87v-15.41h-7.17v15.42c1.2-0.12,2.36-0.36,3.59-0.36
						C593.04,1060.51,594.2,1060.74,595.4,1060.87z"/>
					<path class="st9" d="M578.14,1047.23l-6.74,2.45l5.25,14.44c2.14-1.04,4.38-1.88,6.74-2.47L578.14,1047.23z"/>
					<path class="st9" d="M605.49,1143.35l6.74-2.45l-5.25-14.44c-2.14,1.04-4.38,1.88-6.74,2.47L605.49,1143.35z"/>
					<path class="st9" d="M611.31,1124.1l9.8,11.68l5.49-4.61l-9.83-11.71C615.11,1121.17,613.3,1122.75,611.31,1124.1z"/>
					<path class="st9" d="M572.32,1066.48l-9.8-11.68l-5.49,4.61l9.83,11.71C568.53,1069.41,570.33,1067.83,572.32,1066.48z"/>
					<path class="st9" d="M550.45,1067.27l-3.59,6.21l13.24,7.64c0.99-2.2,2.21-4.26,3.62-6.19L550.45,1067.27z"/>
					<path class="st9" d="M633.18,1123.31l3.59-6.21l-13.24-7.64c-0.99,2.2-2.21,4.26-3.62,6.19L633.18,1123.31z"/>
					<path class="st9" d="M543.36,1083.11l-1.25,7.06l15.16,2.67c0.17-2.44,0.59-4.79,1.24-7.06L543.36,1083.11z"/>
					<path class="st9" d="M625.12,1104.8l15.15,2.67l1.25-7.06l-15.16-2.67C626.18,1100.18,625.77,1102.53,625.12,1104.8z"/>
					<path class="st9" d="M542.11,1100.41l1.25,7.06l15.15-2.67c-0.65-2.28-1.06-4.63-1.24-7.06L542.11,1100.41z"/>
					<path class="st9" d="M641.52,1090.17l-1.25-7.06l-15.15,2.67c0.65,2.28,1.06,4.63,1.24,7.06L641.52,1090.17z"/>
					<path class="st9" d="M546.86,1117.1l3.59,6.21l13.27-7.66c-1.4-1.93-2.63-3.99-3.62-6.19L546.86,1117.1z"/>
					<path class="st9" d="M636.77,1073.48l-3.59-6.21l-13.27,7.66c1.4,1.93,2.63,3.99,3.62,6.19L636.77,1073.48z"/>
					<path class="st9" d="M566.86,1119.45l-9.83,11.71l5.49,4.61l9.8-11.68C570.33,1122.75,568.53,1121.17,566.86,1119.45z"/>
					<path class="st9" d="M616.77,1071.13l9.83-11.71l-5.49-4.61l-9.8,11.68C613.3,1067.83,615.11,1069.41,616.77,1071.13z"/>
					<path class="st9" d="M612.23,1049.68l-6.74-2.45l-5.25,14.42c2.36,0.59,4.6,1.42,6.74,2.47L612.23,1049.68z"/>
					<path class="st9" d="M571.4,1140.9l6.74,2.45l5.25-14.42c-2.36-0.59-4.6-1.42-6.74-2.47L571.4,1140.9z"/>
				</g>
			</g>
		</g>
	</g>
	<g>
		<g>
			<line class="st12" x1="296.24" y1="1031.5" x2="296.24" y2="1007.64"/>
			<g>
				<polygon class="st9" points="308.2,1011.14 296.24,990.42 284.27,1011.14 				"/>
			</g>
		</g>
	</g>
	<g>
		<g>
			<line class="st12" x1="591.31" y1="1105.92" x2="591.31" y2="1129.78"/>
			<g>
				<polygon class="st9" points="579.34,1126.28 591.31,1147 603.27,1126.28 				"/>
			</g>
		</g>
	</g>
	<line class="st7" x1="276.68" y1="22.28" x2="309.92" y2="22.28"/>
	<line class="st8" x1="276.68" y1="72.05" x2="309.92" y2="72.05"/>
</g>
</svg>
