<?xml version="1.0" encoding="utf-8"?>
<!-- Generator: Adobe Illustrator 27.0.0, SVG Export Plug-In . SVG Version: 6.00 Build 0)  -->
<svg version="1.1" id="Layer_1" xmlns="http://www.w3.org/2000/svg" xmlns:xlink="http://www.w3.org/1999/xlink" x="0px" y="0px"
	 viewBox="0 0 800 1154.92" style="enable-background:new 0 0 800 1154.92;" xml:space="preserve">
<style type="text/css">
	@import url('https://fonts.googleapis.com/css?family=Roboto:300,400,700');
	.st0{fill:#221E1F;}
	.st1{font-family:'Roboto';font-weight: 700;}
	.st2{font-size:36px;}
	.st3{font-family:'Roboto';font-weight: 300;}
	.st4{font-size:34px;}
	.st5{fill:none;stroke:#221E1F;stroke-linecap:round;stroke-linejoin:round;stroke-miterlimit:10;}
	.st6{opacity:0.5;fill:#FFCD2D;}
	.st7{opacity:0.8;fill:#FFFFFF;}
	.st8{opacity:0.8;fill:none;stroke:#221E1F;stroke-linecap:round;stroke-linejoin:round;stroke-miterlimit:10;}
	.st9{fill:none;}
</style>
<g>
	<text transform="matrix(1 0 0 1 564.6769 760.319)"><tspan x="0" y="0" class="st0 st1 st2">Bharal</tspan><tspan x="0" y="40.8" class="st0 st3 st4">(aka Himalayan</tspan><tspan x="0" y="81.6" class="st0 st3 st4">Blue Sheep)</tspan></text>
</g>
<g>
	<text transform="matrix(1 0 0 1 564.6769 255.8639)" class="st0 st1 st2">Ibex</text>
</g>
<g>
	<path class="st5" d="M379,1023.27c-1.71-7.17-8.75-11.49-13.82-16.83c-6.6-6.96-10.24-16.64-9.84-26.22
		c0.05-1.11,0.13-2.27-0.32-3.29c-0.45-1.02-1.66-1.8-2.68-1.36c4.93-4.39,13.55-8.53,18.48-12.92c5.77-5.14,11.56-10.3,16.86-15.92
		c10.97-11.63,19.83-25.25,26.02-39.99c9.84,1.01,21.52-1.13,29.32-7.2c1.19,17.24,3.21,33.84,5.48,50.96
		c13.65-0.12,27.3-0.24,40.94-0.36c-0.82-2.28-2.04-4.39-3-6.61c-3-6.99-3.21-14.82-3.37-22.43c-0.21-9.8-0.41-19.73,1.87-29.26
		c4.39-18.35,17.37-33.23,29.92-47.32c5.72-6.42,8.84-15.09,12.62-22.81c3.68-7.51,7.19-15.27,8.29-23.57
		c0.75-5.68,0.33-11.45-0.21-17.16c-1.11-11.72-2.75-23.39-4.91-34.97c-3.19-17.08-12.92-31.55-14.9-48.82
		c5.74-12.81,18.41-22.65,21.6-36.32c-8.61-0.22-16.94,3.8-22.8,10.11c2.06-6.03,5.81-11.39,10.94-15.18
		c10-7.39,23.26-8.26,35.69-8.48c3.69-0.06,7.41-0.09,11.02,0.64c10.62,2.15,18.78,10.41,26.24,18.28
		c-1.19-1.25-1.36-8.51-2.29-10.68c-1.66-3.87-4.28-7.26-7.24-10.22c-5.89-5.89-13.41-9.69-21.22-12.32
		c-14.5-4.88-31.65-6.1-46.45-1.66c-13.07,3.92-24.38,17.43-33.46,27.26c-3.95-0.51-8.39,0.46-11.55,2.89
		c0.54-0.42-21.52-10.01-23.97-10.51c-9.1-1.84-18.56-1.64-27.62,0.3c-17,3.64-35.62,15.22-41.46,32.52
		c-2.73,8.07-2.68,24.86,6.72,28.56c4.48-13.97,6.17-22.98,20.21-31.34c12.51-7.46,27.78-11.76,41.77-7.7
		c0.21,8.66,0.67,15.82,7.02,21.72c0.87,0.81,1.59,2.56,0.44,2.83c1.02,6.93,4,12.43,5.02,19.36c0.74,5.02,1.48,10.05,2.02,15.1
		c-8.17,5.39-19.02,12.54-27.28,17.79c-32.75,20.8-66.93,39.36-102.2,55.51c-11.79,5.4-18.62,18.62-25.23,28.93
		c-2.4,3.73-4.8,7.48-6.63,11.52c-4.62,10.17-5.39,21.6-6.24,32.74c-0.13,1.67-0.33,3.51-1.55,4.66
		c-1.95,6.79-3.17,12.95-4.64,19.87c-0.24,1.13-0.13,2.76,1.02,2.86c0.38,0.03,0.75-0.15,1.09-0.32c3.11-1.59,6.21-3.18,9.32-4.76
		c0.63-0.32,1.37-0.86,1.22-1.55c-0.16-0.69-1.55-0.04-0.94,0.31c7.49,4.3,12.39,13.04,17.84,19.73c1.85,2.27,3.72,4.58,4.78,7.3
		c0.84,2.16,1.14,4.48,1.38,6.79c0.88,8.23,1.22,16.52,1.03,24.8c-4.94,4.36-5.93,10.83-6.31,17.42s1.01,13.13,2.49,19.55
		c2.84,12.31,6.05,24.52,9.63,36.63c0.26,0.88,0.56,1.81,1.27,2.38c1,0.8,2.42,0.63,3.69,0.66c5.54,0.13,10.36,5.54,9.88,11.05
		C361.56,1042.65,372.55,1033.53,379,1023.27z"/>
	<path class="st6" d="M379,1023.27c-1.71-7.17-8.75-11.49-13.82-16.83c-6.6-6.96-10.24-16.64-9.84-26.22
		c0.05-1.11,0.13-2.27-0.32-3.29c-0.45-1.02-1.66-1.8-2.68-1.36c4.93-4.39,13.55-8.53,18.48-12.92c5.77-5.14,11.56-10.3,16.86-15.92
		c10.97-11.63,19.83-25.25,26.02-39.99c9.84,1.01,21.52-1.13,29.32-7.2c1.19,17.24,3.21,33.84,5.48,50.96
		c13.65-0.12,27.3-0.24,40.94-0.36c-0.82-2.28-2.04-4.39-3-6.61c-3-6.99-3.21-14.82-3.37-22.43c-0.21-9.8-0.41-19.73,1.87-29.26
		c4.39-18.35,17.37-33.23,29.92-47.32c5.72-6.42,8.84-15.09,12.62-22.81c3.68-7.51,7.19-15.27,8.29-23.57
		c0.75-5.68,0.33-11.45-0.21-17.16c-1.11-11.72-2.75-23.39-4.91-34.97c-3.19-17.08-12.92-31.55-14.9-48.82
		c5.74-12.81,18.41-22.65,21.6-36.32c-8.61-0.22-16.94,3.8-22.8,10.11c2.06-6.03,5.81-11.39,10.94-15.18
		c10-7.39,23.26-8.26,35.69-8.48c3.69-0.06,7.41-0.09,11.02,0.64c10.62,2.15,18.78,10.41,26.24,18.28
		c-1.19-1.25-1.36-8.51-2.29-10.68c-1.66-3.87-4.28-7.26-7.24-10.22c-5.89-5.89-13.41-9.69-21.22-12.32
		c-14.5-4.88-31.65-6.1-46.45-1.66c-13.07,3.92-24.38,17.43-33.46,27.26c-3.95-0.51-8.39,0.46-11.55,2.89
		c0.54-0.42-21.52-10.01-23.97-10.51c-9.1-1.84-18.56-1.64-27.62,0.3c-17,3.64-35.62,15.22-41.46,32.52
		c-2.73,8.07-2.68,24.86,6.72,28.56c4.48-13.97,6.17-22.98,20.21-31.34c12.51-7.46,27.78-11.76,41.77-7.7
		c0.21,8.66,0.67,15.82,7.02,21.72c0.87,0.81,1.59,2.56,0.44,2.83c1.02,6.93,4,12.43,5.02,19.36c0.74,5.02,1.48,10.05,2.02,15.1
		c-8.17,5.39-19.02,12.54-27.28,17.79c-32.75,20.8-66.93,39.36-102.2,55.51c-11.79,5.4-18.62,18.62-25.23,28.93
		c-2.4,3.73-4.8,7.48-6.63,11.52c-4.62,10.17-5.39,21.6-6.24,32.74c-0.13,1.67-0.33,3.51-1.55,4.66
		c-1.95,6.79-3.17,12.95-4.64,19.87c-0.24,1.13-0.13,2.76,1.02,2.86c0.38,0.03,0.75-0.15,1.09-0.32c3.11-1.59,6.21-3.18,9.32-4.76
		c0.63-0.32,1.37-0.86,1.22-1.55c-0.16-0.69-1.55-0.04-0.94,0.31c7.49,4.3,12.39,13.04,17.84,19.73c1.85,2.27,3.72,4.58,4.78,7.3
		c0.84,2.16,1.14,4.48,1.38,6.79c0.88,8.23,1.22,16.52,1.03,24.8c-4.94,4.36-5.93,10.83-6.31,17.42s1.01,13.13,2.49,19.55
		c2.84,12.31,6.05,24.52,9.63,36.63c0.26,0.88,0.56,1.81,1.27,2.38c1,0.8,2.42,0.63,3.69,0.66c5.54,0.13,10.36,5.54,9.88,11.05
		C361.56,1042.65,372.55,1033.53,379,1023.27z"/>
	<g>
		<path class="st5" d="M365.82,889.65c0.36,5.68,0.26,11.39-0.32,17.05c-1.43,14.13-0.31,26.88-4.51,40.45
			c-1.1,3.55-2.39,7.04-3.23,10.66c-1.29,5.51-1.52,11.2-1.74,16.86"/>
		<path class="st5" d="M414.33,909.01c-6.92,0.58-13.84,1.17-20.76,1.75c-4.28,0.36-8.62,0.72-12.83-0.08s-8.37-2.93-10.67-6.55"/>
		<path class="st5" d="M428.26,843.77c-1.41,12.28,0.93,24.97,6.61,35.95c1.57,3.02,3.39,5.94,4.58,9.13
			c1.61,4.31,2,8.97,2.37,13.56"/>
		<path class="st5" d="M464.93,890.59c1.12,9.18,4.6,25.01-0.06,33.23C453.66,918.68,465.91,898.64,464.93,890.59z"/>
		<path class="st5" d="M466.36,892.2c-0.01-7-0.03-14-0.04-21c5.66-1.39,9.77-6.11,14.01-10.11c11.8-11.15,27.81-19.12,34.02-34.12"
			/>
		<path class="st5" d="M467.07,729.81c2.15,4.14,4.31,8.29,6.46,12.43c1.38,2.65,2.82,5.38,5.15,7.25c2.69,2.15,6.29,2.89,9.74,2.82
			c9.86-0.21,19.23-7.13,22.33-16.49"/>
		<path class="st0" d="M483.53,731.56c-0.6-0.33-1.31-0.66-1.94-0.39c-0.71,0.31-0.91,1.3-0.61,2.02c0.3,0.72,0.94,1.23,1.55,1.71
			c2.46,1.91,5.01,3.97,6.18,6.86c-0.13-0.84,0.28-1.68,0.84-2.31c0.57-0.63,1.29-1.1,1.94-1.64c2-1.66,3.37-3.94,4.69-6.18
			c0.2-0.34,0.41-0.72,0.37-1.11c-0.07-0.67-0.85-1.08-1.52-0.99c-0.67,0.09-1.23,0.52-1.76,0.94c-0.73,0.57-1.46,1.15-2.18,1.72
			C488.11,734.54,486.5,733.18,483.53,731.56z"/>
		<path class="st5" d="M501.65,712.77c0.22-5.87,1.85-11.68,4.72-16.8c1.52-2.71,3.63-5.41,6.65-6.16"/>
		<path class="st5" d="M475.67,715.23c-1.9-1.93-2.17-4.89-3.26-7.37c-1.49-3.41-4.51-5.86-7.12-8.52
			c-2.61-2.66-5.02-6.02-4.75-9.73"/>
		<path class="st5" d="M505.46,699.97c-0.48,0.85-0.34,2.02,0.35,2.73c0.68,0,1.28-0.54,1.53-1.18s0.22-1.34,0.13-2.02
			c-0.03-0.21-0.07-0.44-0.19-0.61c-0.34-0.46-1.12-0.31-1.46,0.14c-0.35,0.45-0.39,1.06-0.41,1.63"/>
		<path class="st5" d="M466.65,703.01c-0.58-0.74-1.43-1.25-2.35-1.42c-0.18-0.03-0.39-0.05-0.55,0.04c-0.17,0.1-0.25,0.31-0.32,0.5
			c-0.21,0.61-0.42,1.26-0.3,1.89s0.69,1.24,1.33,1.14c0.35-0.05,0.64-0.29,0.86-0.57c0.68-0.89,0.61-2.26-0.15-3.07"/>
		<path class="st5" d="M466.64,732.98c0.74,8.67-0.5,17.51-3.59,25.64"/>
		<path class="st5" d="M423.46,843.46c-18.26,5.04-36.74,10.16-53.24,19.47c-1.28,0.72-1.6,2.52-2.22,3.85
			c-0.26,0.55-0.48,1.12-0.61,1.71c-0.15,0.68-0.17,1.38-0.18,2.07c-0.12,4.44-0.24,8.88-0.36,13.33"/>
		<path class="st5" d="M305.98,899.08c-1.36,0.04-2.35-1.23-3.02-2.42c-3.07-5.43-4.4-11.81-3.77-18.01"/>
		<path class="st5" d="M330.98,958.91c0.62,14.62,1.23,29.24,1.85,43.87c0.05,1.12,0.1,2.27,0.58,3.28
			c0.54,1.15,1.56,1.99,2.54,2.79c5.21,4.23,10.43,8.46,15.64,12.7c3.19,2.59,6.42,5.22,8.79,8.57c1.65,2.33,2.97,5.09,5.43,6.54"/>
		<path class="st5" d="M448.44,945.33c-0.8-1.95,1.19-3.88,3.08-4.81c4.53-2.21,9.89-2.67,14.72-1.25"/>
		<path class="st5" d="M371.48,1013.41c-2.4,2.07-5.84,2.69-8.08,4.93c-2.68,2.68-2.93,6.87-3.02,10.65
			c0.01-0.94,0.77-1.82,1.7-1.95"/>
		<path class="st5" d="M466.81,950.03c-0.53-8.94-1.05-17.88-1.58-26.82"/>
		<path class="st5" d="M467.75,947.31c1.97-2.65,4.42-5.07,7.49-6.29c3.07-1.22,6.85-1.02,9.37,1.12c0.51,0.43,1.06,0.97,1.72,0.89"
			/>
		<path class="st5" d="M443.2,809.16c-4.6,4.51-7.89,10.33-9.37,16.6c-0.2,0.83-0.28,1.88,0.42,2.37c0.7,0.49,1.76-0.87,0.95-1.13"
			/>
		<path class="st5" d="M452.48,673.48c3.36,5.3,10.71,7.62,16.5,5.22c5.79-2.4,9.34-9.26,7.95-15.37"/>
		<path class="st5" d="M511.06,675.26c-3.77-0.4-7.57,0.13-11.36-0.03s-7.78-1.12-10.37-3.89c-2.59-2.77-3.05-7.71-0.15-10.16"/>
	</g>
	<path class="st5" d="M317.86,1085.57c13.3-4.88,18.46-20.43,26.48-32.1c9.29-13.52,23.53-22.65,35.53-33.84
		c6.76-6.3,12.84-13.29,18.91-20.27c1.5-1.72,3-3.46,4.14-5.44c1.01-1.77,1.7-3.7,2.58-5.54c4.18-8.8,12.73-15.39,22.31-17.18
		c3.31-0.62,6.97-0.8,9.49-3.03c3.57-3.16,3.39-9.17,6.96-12.33c1.85-1.64,4.38-2.2,6.8-2.72c9.64-2.04,19.39-4.09,29.24-3.79
		c15.25,0.46,29.72,6.5,43.77,12.45c3.58,1.52,7.16,3.03,10.74,4.55c7.72,3.27,15.5,6.57,22.47,11.24c2.19,1.47,4.47,3.36,4.77,5.98
		c0.22,1.98-0.77,3.94-0.63,5.93c0.39,5.73,8.28,6.71,13.05,9.89c4.82,3.2,6.66,9.24,9.48,14.29c2.82,5.05,8.54,9.81,13.89,7.6
		c-1.96,13.43,0.3,27.45,6.4,39.58"/>
</g>
<g>
	<path class="st5" d="M557.92,415.36c-2.36-22.76-3.21-45.69-2.53-68.56c0.7-23.7,0.41-44.85-12.57-64.69
		c-11.68-17.85-32.96-31.52-52.15-39.58c-11.87-4.99-23.73-9.98-35.6-14.96c-6.43-2.7-13-5.44-19.96-5.96
		c-8.67-0.64-17.52,2.21-25.99,0.24c-3.06-0.71-8.42-2.29-10.76-4.45c-1.62-1.5-1.71-4.36-3.28-5.76c-2.55-2.27-2.4-0.56-5.23-1.65
		c-4.74-1.82-12.01-4-17.08-3.31c-0.39,0.05-0.79,0.15-1.18,0.22c1.33-19.92,8.04-86.64,39.48-118.39c0,0,8.47-8.84,16.58-5.53
		c8.11,3.32,1.84-3.32,1.84-3.32s-10.59-11.05-27.95,2.58c-1.95,1.53-4.03,3.3-6.19,5.35c-0.36-0.01-0.71-0.03-1.07-0.04
		c-0.39-0.02-0.79-0.03-1.15,0.09c-1.1,0.37-1.28,1.84-0.71,2.85c-0.48,0.5-0.97,1.01-1.45,1.54c-1.41-0.34-3.03,0.03-4.39,0.66
		c-0.46,0.21-0.92,0.46-1.23,0.86c-0.73,0.92-0.42,2.26-0.08,3.38c0.14,0.47,0.28,0.93,0.42,1.4c-1.37,1.77-2.74,3.67-4.1,5.71
		c-0.74,0.14-1.5,0.32-2.23,0.42c-1.44,0.2-3.03,0.5-3.89,1.67c-1,1.35-0.56,3.26,0.1,4.81c0.25,0.59,0.52,1.2,0.76,1.81
		c-0.85,1.56-1.7,3.16-2.54,4.85c-0.15-0.01-0.29-0.02-0.44-0.03c-1.23-0.08-2.5-0.15-3.65,0.31c-1.14,0.45-2.12,1.58-1.98,2.8
		c0.13,1.07,1.02,1.86,1.71,2.68c0.4,0.47,0.69,1.02,0.98,1.57c-0.67,1.58-1.34,3.22-1.99,4.9c-0.2-0.02-0.4-0.03-0.6-0.05
		c-1.09-0.09-2.21-0.17-3.27,0.12c-1.06,0.29-2.06,1.01-2.37,2.07c-0.69,2.33,2.14,4.29,3.18,6.42c-0.65,1.98-1.28,4.04-1.9,6.15
		c-0.05,0-0.11,0-0.16,0c-2,0.14-4.32,0.48-5.29,2.23c-0.74,1.33-0.38,2.97,0,4.45c0.28,1.1,0.59,2.25,1.34,3.11
		c0.36,0.41,0.8,0.71,1.27,0.95c-0.08,0.34-0.16,0.69-0.24,1.04c-0.91,0.51-1.91,0.85-2.84,1.35c-1.27,0.68-2.49,1.88-2.41,3.32
		c0.08,1.51,1.5,2.55,2.38,3.78c0.33,0.47,0.56,0.99,0.73,1.53c-0.33,1.7-0.64,3.45-0.94,5.22c-4.31,1.39-4.2,6.53-1.38,8.87
		c-1.55,10.92-2.68,22.98-3.28,36.36l0.01,0c0,0-0.01,0.01-0.01,0.01v-0.01l-7.16-2.24c0,0-63.74-60.42-59.68-82.53
		c0,0,6.26-3.68,8.84,8.47c0,0,2.95-12.53-11.42-14.74c-14.37-2.21-11.05,15.47-11.05,15.47s-2.21,29.11,66.45,97.22
		c-0.48,1.85-0.77,3.86-0.05,5.63c1.26,3.1,4.98,4.27,7.45,6.53c3.25,2.96,4.19,7.64,4.75,12c0.69,5.45,1.06,11,2.8,16.21
		c1.74,5.21,5.11,10.17,10.14,12.38c5.03,2.21,11.8,0.82,14.49-3.97c2.82-5.02,0.8-12.24,4.91-16.28c0.74,5.69,10.36,9,13.86,13.55
		c1.64,2.13,2.39,4.78,3.35,7.29c3.28,8.55,9.19,15.78,15,22.85c2.29,2.78,4.58,5.57,6.87,8.35c11.36,13.81,6.53,36.99,9.46,54.63
		c2.25,13.48,5.69,29.07-2.47,40.04c3.14,0.97,6.49,1.2,9.73,0.69c0.99-0.16,1.99-0.39,2.98-0.22c1.01,0.17,1.9,0.74,2.83,1.18
		c4.25,2.02,9.23,1.33,13.87,0.6c0.85-0.13,1.8-0.33,2.27-1.06c0.42-0.65,0.28-1.5,0.14-2.25c-1.13-5.87-2.27-11.73-3.4-17.6
		c-0.84-4.37-1.69-8.76-1.85-13.21c-0.35-10.01,2.94-20.11,9.11-27.99c1.86,1.68,5.5,2.52,8,2.7c0.3,0.02,0.67,0.08,0.75,0.37
		c0.08,0.29-0.55,0.37-0.43,0.1c0.26,7.73,1.1,16.34,5.18,22.91c1.2,1.93,2.68,3.66,4.03,5.48c3.73,5.01,6.51,10.72,8.15,16.74
		c0.36,0.06,0.71,0.13,1.07,0.19c1.49-0.6,2.7,0.85,3.25,2.36c0.55,1.51,0.8,3.3,2.09,4.26c1.34,1,3.33,0.72,4.64,1.77
		c0.74,0.59,1.12,1.51,1.64,2.3c1.7,2.62,4.79,3.89,7.7,5.02c1.74-1.95,3.48-3.89,5.22-5.84c0.18-0.21,0.38-0.46,0.33-0.73
		c-0.04-0.23-0.25-0.38-0.43-0.52c-2.81-2.15-7.06-10.9-7.44-14.31c-0.32-2.89-0.08-5.9-1.06-8.64c-1.31-3.66-4.55-6.23-6.83-9.38
		c-2.59-3.58-3.94-8.05-3.76-12.47c0.01-0.2,14.4-3.81,15.88-4.2c0.47,1.68,0.96,3.4,1.95,4.85c0.99,1.44,2.58,2.59,4.33,2.58
		c1.23-0.01,2.38-0.58,3.42-1.24c2.65-1.7,4.83-4.12,6.25-6.93c2.56,4.01,2.78,10.23,3.86,14.87c1.44,6.15,5.01,11.55,7.74,17.25
		c4.85,10.11,7.08,21.25,9.04,32.29c1.26,7.08,2.2,15.14-2.28,20.76c3.48,1.03,7.65,3.25,10.74,5.16
		c-1.27-5.82,0.54-10.65,1.08-16.58C559.72,431.05,558.73,423.18,557.92,415.36z"/>
	<path class="st6" d="M557.92,415.36c-2.36-22.76-3.21-45.69-2.53-68.56c0.7-23.7,0.41-44.85-12.57-64.69
		c-11.68-17.85-32.96-31.52-52.15-39.58c-11.87-4.99-23.73-9.98-35.6-14.96c-6.43-2.7-13-5.44-19.96-5.96
		c-8.67-0.64-17.52,2.21-25.99,0.24c-3.06-0.71-8.42-2.29-10.76-4.45c-1.62-1.5-1.71-4.36-3.28-5.76c-2.55-2.27-2.4-0.56-5.23-1.65
		c-4.74-1.82-12.01-4-17.08-3.31c-0.39,0.05-0.79,0.15-1.18,0.22c1.33-19.92,8.04-86.64,39.48-118.39c0,0,8.47-8.84,16.58-5.53
		c8.11,3.32,1.84-3.32,1.84-3.32s-10.59-11.05-27.95,2.58c-1.95,1.53-4.03,3.3-6.19,5.35c-0.36-0.01-0.71-0.03-1.07-0.04
		c-0.39-0.02-0.79-0.03-1.15,0.09c-1.1,0.37-1.28,1.84-0.71,2.85c-0.48,0.5-0.97,1.01-1.45,1.54c-1.41-0.34-3.03,0.03-4.39,0.66
		c-0.46,0.21-0.92,0.46-1.23,0.86c-0.73,0.92-0.42,2.26-0.08,3.38c0.14,0.47,0.28,0.93,0.42,1.4c-1.37,1.77-2.74,3.67-4.1,5.71
		c-0.74,0.14-1.5,0.32-2.23,0.42c-1.44,0.2-3.03,0.5-3.89,1.67c-1,1.35-0.56,3.26,0.1,4.81c0.25,0.59,0.52,1.2,0.76,1.81
		c-0.85,1.56-1.7,3.16-2.54,4.85c-0.15-0.01-0.29-0.02-0.44-0.03c-1.23-0.08-2.5-0.15-3.65,0.31c-1.14,0.45-2.12,1.58-1.98,2.8
		c0.13,1.07,1.02,1.86,1.71,2.68c0.4,0.47,0.69,1.02,0.98,1.57c-0.67,1.58-1.34,3.22-1.99,4.9c-0.2-0.02-0.4-0.03-0.6-0.05
		c-1.09-0.09-2.21-0.17-3.27,0.12c-1.06,0.29-2.06,1.01-2.37,2.07c-0.69,2.33,2.14,4.29,3.18,6.42c-0.65,1.98-1.28,4.04-1.9,6.15
		c-0.05,0-0.11,0-0.16,0c-2,0.14-4.32,0.48-5.29,2.23c-0.74,1.33-0.38,2.97,0,4.45c0.28,1.1,0.59,2.25,1.34,3.11
		c0.36,0.41,0.8,0.71,1.27,0.95c-0.08,0.34-0.16,0.69-0.24,1.04c-0.91,0.51-1.91,0.85-2.84,1.35c-1.27,0.68-2.49,1.88-2.41,3.32
		c0.08,1.51,1.5,2.55,2.38,3.78c0.33,0.47,0.56,0.99,0.73,1.53c-0.33,1.7-0.64,3.45-0.94,5.22c-4.31,1.39-4.2,6.53-1.38,8.87
		c-1.55,10.92-2.68,22.98-3.28,36.36l0.01,0c0,0-0.01,0.01-0.01,0.01v-0.01l-7.16-2.24c0,0-63.74-60.42-59.68-82.53
		c0,0,6.26-3.68,8.84,8.47c0,0,2.95-12.53-11.42-14.74c-14.37-2.21-11.05,15.47-11.05,15.47s-2.21,29.11,66.45,97.22
		c-0.48,1.85-0.77,3.86-0.05,5.63c1.26,3.1,4.98,4.27,7.45,6.53c3.25,2.96,4.19,7.64,4.75,12c0.69,5.45,1.06,11,2.8,16.21
		c1.74,5.21,5.11,10.17,10.14,12.38c5.03,2.21,11.8,0.82,14.49-3.97c2.82-5.02,0.8-12.24,4.91-16.28c0.74,5.69,10.36,9,13.86,13.55
		c1.64,2.13,2.39,4.78,3.35,7.29c3.28,8.55,9.19,15.78,15,22.85c2.29,2.78,4.58,5.57,6.87,8.35c11.36,13.81,6.53,36.99,9.46,54.63
		c2.25,13.48,5.69,29.07-2.47,40.04c3.14,0.97,6.49,1.2,9.73,0.69c0.99-0.16,1.99-0.39,2.98-0.22c1.01,0.17,1.9,0.74,2.83,1.18
		c4.25,2.02,9.23,1.33,13.87,0.6c0.85-0.13,1.8-0.33,2.27-1.06c0.42-0.65,0.28-1.5,0.14-2.25c-1.13-5.87-2.27-11.73-3.4-17.6
		c-0.84-4.37-1.69-8.76-1.85-13.21c-0.35-10.01,2.94-20.11,9.11-27.99c1.86,1.68,5.5,2.52,8,2.7c0.3,0.02,0.67,0.08,0.75,0.37
		c0.08,0.29-0.55,0.37-0.43,0.1c0.26,7.73,1.1,16.34,5.18,22.91c1.2,1.93,2.68,3.66,4.03,5.48c3.73,5.01,6.51,10.72,8.15,16.74
		c0.36,0.06,0.71,0.13,1.07,0.19c1.49-0.6,2.7,0.85,3.25,2.36c0.55,1.51,0.8,3.3,2.09,4.26c1.34,1,3.33,0.72,4.64,1.77
		c0.74,0.59,1.12,1.51,1.64,2.3c1.7,2.62,4.79,3.89,7.7,5.02c1.74-1.95,3.48-3.89,5.22-5.84c0.18-0.21,0.38-0.46,0.33-0.73
		c-0.04-0.23-0.25-0.38-0.43-0.52c-2.81-2.15-7.06-10.9-7.44-14.31c-0.32-2.89-0.08-5.9-1.06-8.64c-1.31-3.66-4.55-6.23-6.83-9.38
		c-2.59-3.58-3.94-8.05-3.76-12.47c0.01-0.2,14.4-3.81,15.88-4.2c0.47,1.68,0.96,3.4,1.95,4.85c0.99,1.44,2.58,2.59,4.33,2.58
		c1.23-0.01,2.38-0.58,3.42-1.24c2.65-1.7,4.83-4.12,6.25-6.93c2.56,4.01,2.78,10.23,3.86,14.87c1.44,6.15,5.01,11.55,7.74,17.25
		c4.85,10.11,7.08,21.25,9.04,32.29c1.26,7.08,2.2,15.14-2.28,20.76c3.48,1.03,7.65,3.25,10.74,5.16
		c-1.27-5.82,0.54-10.65,1.08-16.58C559.72,431.05,558.73,423.18,557.92,415.36z"/>
	<g>
		<path class="st0" d="M379.39,236.11c-1.77-0.11-3.48,1.36-3.65,3.12c0.63,1.2,1.87,2.13,3.23,2.12c1.35-0.01,2.68-1.16,2.64-2.51
			c-0.04-1.35-1.74-2.43-2.89-1.7"/>
		<path class="st0" d="M366.07,278.01c-2.59,0.5-5.17,1.07-7.73,1.71c-0.47,0.12-0.96,0.25-1.3,0.6c-0.97,0.99,0.07,2.63,1.19,3.45
			c2.43,1.76,5.45,2.7,8.45,2.62c-0.12-1.58,1.1-2.91,1.74-4.36c0.64-1.45,0.17-3.77-1.42-3.72c-0.64,0.02-1.28,0.46-1.88,0.25
			c-0.61-0.2-0.19-1.47,0.22-0.98"/>
	</g>
	<g>
		<path class="st5" d="M333.56,488.07c6.78-3.55,14.85-4.22,21.41-8.16c4.78-2.88,8.41-7.28,12.3-11.29
			c10.46-10.77,23.46-19.07,37.64-24.03c2.37-0.83,4.88-1.63,6.66-3.41c1.65-1.65,2.46-3.93,3.43-6.06
			c3.19-7,8.58-12.97,15.22-16.85"/>
		<path class="st5" d="M459.6,400.78c12.35-2.46,25.74,0.99,35.36,9.12c3.35,4.06,7.71,7.28,12.58,9.3
			c2.95,1.22,6.08,2.01,8.91,3.47c4.72,2.44,8.28,6.57,11.94,10.41c12.99,13.61,28.68,24.63,45.9,32.22"/>
		<path class="st5" d="M545.91,414.47c-9.18-0.13-16.44,8.42-25.55,9.57c0.66-0.21,1.32-0.42,1.98-0.63"/>
		<path class="st5" d="M427.72,421.65c6.73-4.84,15.83-4.09,24.06-3.14c6.85,0.79,13.92,1.65,19.91,5.06
			c3.56,2.02,6.81,4.96,10.87,5.48c1.38,0.18,2.83,0.06,4.14,0.53c1.22,0.44,2.22,1.33,3.18,2.21c2.01,1.83,4.01,3.67,6.02,5.5"/>
	</g>
	<g>
		<path class="st5" d="M443.06,332.02c-0.7,12.49-0.86,25-0.5,37.5c0.08,2.82,0.2,5.7,1.21,8.33c0.79,2.05,2.1,3.89,2.65,6.02
			c0.57,2.19,0.3,4.51,0.03,6.76c-1.05,8.61-2.11,17.21-3.16,25.82c0.77-1.15,1.53-2.29,2.3-3.44"/>
		<path class="st5" d="M536.59,325.42c-1.52,15.7-10.88,33.98-24.44,42.04"/>
		<path class="st5" d="M498.76,370.37c-9.61,0.88-19.54-2.98-26.04-10.12"/>
		<path class="st5" d="M464.33,358.15c2.68-3.61,4.12-8.13,4.02-12.63c-0.06-2.57-0.6-5.11-0.59-7.67
			c0.02-5.57,2.58-10.75,4.55-15.96c1.96-5.21,3.33-11.15,1.03-16.22"/>
		<path class="st5" d="M440.72,339.87c-6.16-3.97-11.93-8.55-17.21-13.64"/>
		<path class="st5" d="M392.69,236.98c-1.06,6.83,1.82,14.44-1.67,20.42c-2.09,3.58-6.15,5.82-7.7,9.66
			c-0.16,0.39-0.24,0.93,0.11,1.16c0.35,0.23,0.72-0.6,0.3-0.54c-2.36,2.26-2.3,1.97-2.88,5.18c-0.24-1.3,0.39-2.72,1.52-3.41"/>
		<path class="st5" d="M384,220.8c0.6-3.76,3.52-7.06,7.19-8.11"/>
		<path class="st5" d="M388.77,226.24c4.61-2.06,7.08-7.94,5.34-12.68c-1.35-0.3-2.69-0.6-4.04-0.89c-0.06-0.01-0.12-0.03-0.18-0.04
			"/>
		<path class="st5" d="M402.17,256.91c4.55,7.13,8.14,14.87,10.65,22.95"/>
		<path class="st5" d="M390.95,262.2c3.98,5.49,6.55,11.99,7.38,18.72c0.58-0.35,1.16-0.71,1.74-1.06"/>
		<path class="st5" d="M576.93,408.43c-6.31-1.71-13.14-1.44-19.29,0.77"/>
		<path class="st5" d="M351.51,219.98c0.79,3.23-1.93,6.22-4.67,8.1c-2.73,1.89-5.96,3.69-6.95,6.86"/>
		<path class="st5" d="M350.42,218.58c-0.31,4.62,4.24,8.41,8.84,8.98c4.6,0.57,9.13-1.2,13.43-2.93
			c-0.63-6.92-0.81-13.87-0.54-20.81"/>
		<path class="st5" d="M365.36,248.22c4.53,2.77,7.62,7.78,8.06,13.08"/>
	</g>
</g>
<g>
	<text transform="matrix(1 0 0 1 564.6769 891.3647)" class="st0 st3 st2">69 - 91 cm</text>
</g>
<g>
	<text transform="matrix(1 0 0 1 564.6769 299.8932)" class="st0 st3 st2">55 - 65 cm</text>
</g>
<g>
	<path class="st7" d="M140.24,1055.97c-1.63-2.05-2.1-4.76-2.52-7.34c-0.4-2.51-0.8-5.15,0.05-7.54c0.43-1.2,1.14-2.28,1.88-3.33
		c5.59-7.99,12.44-15.1,20.22-20.99c1.9,4.04,3.83,8.16,5.73,12.2c0.74,1.58,1.5,3.17,2.57,4.55c2.32,2.96,5.87,4.6,9.01,6.66
		c2.86,1.87,5.45,4.14,7.68,6.73c1.49,1.74,2.9,3.68,4.97,4.66c1.4,0.67,2.99,0.83,4.54,0.95c2.91,0.22,6.14,0.2,8.34-1.72
		c2.8-2.44,2.66-6.84,1.68-10.42c-0.15-0.56-0.33-1.13-0.65-1.62c-0.52-0.78-1.37-1.26-2.19-1.72c-1.69-0.94-3.37-1.88-5.06-2.82
		c-1.69-0.94-3.42-1.91-4.73-3.34c-1.62-1.77-2.46-4.08-3.52-6.24c-1.41-2.87-3.24-5.53-5.43-7.86c3.11-2.13,7.33-5.4,10.44-7.53
		c1.8-1.23,4.29-2.45,5.97-1.06c0.48-0.55,0.95-1.1,1.43-1.65c0.79,0.29,1.3,1.22,1.1,2.04c3.65-0.03,7.29-0.06,10.94-0.08
		c3.08-0.02,6.32-0.09,8.99-1.61c0.57,0.76,1.15,1.52,1.72,2.28c0.7-1.16,1.65-2.16,2.77-2.92c0.06,0.59,0.12,1.19,0.19,1.78
		c1.25-0.09,2.51-0.18,3.76-0.28c0.25,0.67,0.5,1.33,0.75,2c0.89-0.69,1.78-1.37,2.68-2.06c0.08,0.74,0.17,1.48,0.25,2.21
		c0.81-1.1,2.32-1.64,3.64-1.3c1.07,0.58,2.13,1.16,3.2,1.73c0.69-1.73,3.73-1.62,4.28,0.17c0.46-1.03,1.35-1.86,2.4-2.27
		c-0.05,0.79,0.19,1.6,0.68,2.23c0.74-1.59,2.15-2.86,3.82-3.42c-1.07,7.91-3.49,17.62-4.55,25.53c-0.47,3.51-0.98,7.13-2.78,10.19
		c-2.25,3.83-6.37,6.49-7.86,10.67c-0.16,0.46-0.39,1.02-0.88,1.07c-0.49,0.06-0.57-0.95-0.11-0.77c7.26,2.91,17.1,2.05,24.92,2.28
		c-2.11-3.71,0.1-8.68,2.49-12.22c3.17-4.7,6.33-9.39,9.5-14.09c2.26-3.35,4.52-6.7,6.42-10.27c1.08-2.03,2.04-4.12,2.88-6.27
		c3.34,1.36,5.8,3.9,7.63,7.01c5.26,8.95,12.12,16.83,18.8,24.77c4.23,5.04,8.48,10.24,10.82,16.39c3.44-0.46,6.71,0.75,10.14,0.27
		c4.96-0.7,9.92-1.4,14.88-2.11c-3.61-5.32-6.2-11.7-8.7-17.62c-3.34-7.9-6.32-15.96-8.91-24.13c-1.32-4.15-2.24-9.44,1.12-12.21
		c1.64-1.35,0.72-2.39,0.73-4.51c0.01-2.12,0.44-4.64,2.37-5.53c-1.24-1.04-2.36-2.23-3.3-3.55c-0.19-0.26-0.37-0.53-0.41-0.85
		c-0.07-0.49,0.21-0.96,0.45-1.4c2.16-3.87,1.91-8.96-0.63-12.59c2.03-1.31,2.2-4.16,2.16-6.57c-0.03-1.72-0.06-3.45-0.1-5.17
		c-0.05-2.93,3.79-3.7,6.3-5.23c2.73-1.66,5.47-3.33,8.2-4.99c0.5-0.3,1.01-0.62,1.33-1.1c0.53-0.77,0.46-1.79,0.57-2.72
		c0.28-2.39,1.97-4.55,4.22-5.41c0.8-0.25,1.6-0.49,2.39-0.74c0.28-2.8,2.41-5.33,5.13-6.07c0.62-4.1,3.78-7.48,7.48-9.35
		c3.7-1.87,7.91-2.44,12.05-2.76c2.23-0.17,4.61-0.33,6.39-1.68c1.78-1.35,2.45-4.38,0.69-5.76c0.08-4.43,0.5-8.19,0.17-12.6
		c-0.22-3.01-0.22-3.01-1.51-5.58c-4.03-2.73-9.8-0.66-14.13-2.88c-1.27-0.65-2.33-1.64-3.52-2.43c-3.53-2.37-7.99-2.95-12.24-2.75
		c-4.25,0.2-8.44,1.11-12.68,1.43c-2.04,0.16-4.16,0.17-6.06-0.59c-1.24-0.49-2.65-1.3-3.79-0.61c-0.58,2.75-1.16,5.51-1.75,8.26
		c0.53-0.17,1.07-0.33,1.6-0.5c-7.69,0.03-18.2,4.07-24.78,8.06c-2.88,1.75-5.61,3.86-8.82,4.88c-4.01,1.28-8.34,0.73-12.54,0.93
		c-5.21,0.25-10.3,1.66-15.48,2.28c-5.72,0.68-11.51,0.39-17.27,0.09c-17.69-0.91-35.38-1.65-53.09-2.02
		c-15.33-0.33-33.52-0.9-48.14,4.21c-9.41,3.29-18,9.45-23.15,17.98c-2.72,4.51-4.43,9.53-6.11,14.52
		c-1.99,5.87-3.97,11.73-5.96,17.6c-2.47,7.3-5.11,14.24-9.53,20.56c-4.52,6.47-9.17,13.02-15.43,17.82
		c-11.01,8.44-25.51,10.4-39.28,12.08c-1.38,0.17-2.9,0.31-4.07-0.43c-1.07-0.68-1.6-1.93-2.23-3.02
		c-3.49-6.08-12.06-8.59-18.28-5.35c-2.68,1.88-3.68,5.5-3.3,8.75c0.38,3.25,1.91,6.24,3.41,9.15c2.29,4.45,4.73,9.06,8.77,12.01
		c3.84,2.81,8.73,3.79,13.47,4.14c28.1,2.08,54.4-15.4,72.41-37.08c-2.39,6.98-3.69,12.8-6.08,19.78c-0.56,1.64-1.13,3.36-0.85,5.06
		c0.39,2.4,2.4,4.72,1.5,6.98c-0.2,0.5-0.53,0.94-0.63,1.47c-0.16,0.87,0.36,1.71,0.78,2.49c1.38,2.58,1.85,5.63,1.31,8.51
		c-0.18,0.94,0.41,2.47,1.12,1.83"/>
	<path class="st8" d="M344.12,1059.51c-3.61-5.32-6.2-11.7-8.7-17.62c-3.34-7.9-6.32-15.96-8.91-24.13
		c-1.32-4.15-2.24-9.44,1.12-12.21c1.64-1.35,0.72-2.39,0.73-4.51c0.01-2.12,0.44-4.64,2.37-5.53c-1.24-1.04-2.36-2.23-3.3-3.55
		c-0.19-0.26-0.37-0.53-0.41-0.85c-0.07-0.49,0.21-0.96,0.45-1.4c2.16-3.87,1.91-8.96-0.63-12.59c2.03-1.31,2.2-4.16,2.16-6.57
		c-0.03-1.72-0.06-3.45-0.1-5.17c-0.05-2.93,3.79-3.7,6.3-5.23c2.73-1.66,5.47-3.33,8.2-4.99c0.5-0.3,1.01-0.62,1.33-1.1
		c0.53-0.77,0.46-1.79,0.57-2.72c0.28-2.39,1.97-4.55,4.22-5.41c0.8-0.25,1.6-0.49,2.39-0.74c0.28-2.8,2.41-5.33,5.13-6.07
		c0.62-4.1,3.78-7.48,7.48-9.35c3.7-1.87,7.91-2.44,12.05-2.76c2.23-0.17,4.61-0.33,6.39-1.68c1.78-1.35,2.45-4.38,0.69-5.76
		c0.08-4.43,0.5-8.19,0.17-12.6c-0.22-3.01-0.22-3.01-1.51-5.58c-4.03-2.73-9.8-0.66-14.13-2.88c-1.27-0.65-2.33-1.64-3.52-2.43
		c-3.53-2.37-7.99-2.95-12.24-2.75c-4.25,0.2-8.44,1.11-12.68,1.43c-2.04,0.16-4.16,0.17-6.06-0.59c-1.24-0.49-2.65-1.3-3.79-0.61
		c-0.58,2.75-1.16,5.51-1.75,8.26c0.53-0.17,1.07-0.33,1.6-0.5c-7.69,0.03-18.2,4.07-24.78,8.06c-2.88,1.75-5.61,3.86-8.82,4.88
		c-4.01,1.28-8.34,0.73-12.54,0.93c-5.21,0.25-10.3,1.66-15.48,2.28c-5.72,0.68-11.51,0.39-17.27,0.09
		c-17.69-0.91-35.38-1.65-53.09-2.02c-15.33-0.33-33.52-0.9-48.14,4.21c-9.41,3.29-18,9.45-23.15,17.98
		c-2.72,4.51-4.43,9.53-6.11,14.52c-1.99,5.87-3.97,11.73-5.96,17.6c-2.47,7.3-5.11,14.24-9.53,20.56
		c-4.52,6.47-9.17,13.02-15.43,17.82c-11.01,8.44-25.51,10.4-39.28,12.08c-1.38,0.17-2.9,0.31-4.07-0.43
		c-1.07-0.68-1.6-1.93-2.23-3.02c-3.49-6.08-12.06-8.59-18.28-5.35c-2.68,1.88-3.68,5.5-3.3,8.75c0.38,3.25,1.91,6.24,3.41,9.15
		c2.29,4.45,4.73,9.06,8.77,12.01c3.84,2.81,8.73,3.79,13.47,4.14c28.1,2.08,54.4-15.4,72.41-37.08c-2.39,6.98-3.69,12.8-6.08,19.78
		c-0.56,1.64-1.13,3.36-0.85,5.06c0.39,2.4,2.4,4.72,1.5,6.98c-0.2,0.5-0.53,0.94-0.63,1.47c-0.16,0.87,0.36,1.71,0.78,2.49
		c1.38,2.58,1.85,5.63,1.31,8.51c-0.18,0.94,0.41,2.47,1.12,1.83"/>
	<path class="st8" d="M260.57,1056.03c-2.11-3.71,0.1-8.68,2.49-12.22c3.17-4.7,6.33-9.39,9.5-14.09c2.26-3.35,4.52-6.7,6.42-10.27
		c1.08-2.03,2.04-4.12,2.88-6.27c3.34,1.36,5.8,3.9,7.63,7.01c5.26,8.95,12.12,16.83,18.8,24.77c4.23,5.04,8.48,10.24,10.82,16.39"
		/>
	<path class="st8" d="M140.24,1055.97c-1.63-2.05-2.1-4.76-2.52-7.34c-0.4-2.51-0.8-5.15,0.05-7.54c0.43-1.2,1.14-2.28,1.88-3.33
		c5.59-7.99,12.44-15.1,20.22-20.99c1.9,4.04,3.83,8.16,5.73,12.2c0.74,1.58,1.5,3.17,2.57,4.55c2.32,2.96,5.87,4.6,9.01,6.66
		c2.86,1.87,5.45,4.14,7.68,6.73c1.49,1.74,2.9,3.68,4.97,4.66c1.4,0.67,2.99,0.83,4.54,0.95c2.91,0.22,6.14,0.2,8.34-1.72
		c2.8-2.44,2.66-6.84,1.68-10.42c-0.15-0.56-0.33-1.13-0.65-1.62c-0.52-0.78-1.37-1.26-2.19-1.72c-1.69-0.94-3.37-1.88-5.06-2.82
		c-1.69-0.94-3.42-1.91-4.73-3.34c-1.62-1.77-2.46-4.08-3.52-6.24c-1.41-2.87-3.24-5.53-5.43-7.86c3.11-2.13,7.33-5.4,10.44-7.53
		c1.8-1.23,4.29-2.45,5.97-1.06c0.48-0.55,0.95-1.1,1.43-1.65c0.79,0.29,1.3,1.22,1.1,2.04c3.65-0.03,7.29-0.06,10.94-0.08
		c3.08-0.02,6.32-0.09,8.99-1.61c0.57,0.76,1.15,1.52,1.72,2.28c0.7-1.16,1.65-2.16,2.77-2.92c0.06,0.59,0.12,1.19,0.19,1.78
		c1.25-0.09,2.51-0.18,3.76-0.28c0.25,0.67,0.5,1.33,0.75,2c0.89-0.69,1.78-1.37,2.68-2.06c0.08,0.74,0.17,1.48,0.25,2.21
		c0.81-1.1,2.32-1.64,3.64-1.3c1.07,0.58,2.13,1.16,3.2,1.73c0.69-1.73,3.73-1.62,4.28,0.17c0.46-1.03,1.35-1.86,2.4-2.27
		c-0.05,0.79,0.19,1.6,0.68,2.23c0.74-1.59,2.15-2.86,3.82-3.42c-1.07,7.91-3.49,17.62-4.55,25.53c-0.47,3.51-0.98,7.13-2.78,10.19
		c-2.25,3.83-6.37,6.49-7.86,10.67c-0.16,0.46-0.39,1.02-0.88,1.07c-0.49,0.06-0.57-0.95-0.11-0.77"/>
	<path class="st0" d="M383.35,910.32c-1.26-1.24-2.51-2.48-3.77-3.72c-0.47-0.46-0.93-1.26-0.43-1.68c0.32-0.27,0.8-0.13,1.21-0.22
		c0.54-0.12,0.9-0.63,1.32-1c2.12-1.86,1.62,5.45,1.54,6.49"/>
	<path class="st0" d="M367.37,903.17c-0.77,0.69-1.63,1.38-2.65,1.51c-1.03,0.13-2.22-0.58-2.21-1.62c0.16-0.93,0.86-1.76,1.77-2.04
		c0.9-0.28,1.97,0.02,2.57,0.75c-0.12,0.36-0.24,0.72-0.36,1.08"/>
	<g>
		<path class="st5" d="M383.38,918.64c-1.63,1.63-3.3,3.28-5.38,4.27c-2.22,1.06-4.73,1.27-7.18,1.47c0.8,0.03,1.59,0.07,2.39,0.1"
			/>
		<path class="st5" d="M329.87,901.5c2.55-1.64,5.11-3.28,7.82-4.64c1.84-0.92,3.76-1.71,5.71-2.35"/>
		<path class="st5" d="M342.89,901.95c-2.12-0.54-4.28-0.92-6.46-1.15c-0.65-0.07-1.35-0.12-1.94,0.16c-1.48,0.7-1.41,2.8-1.11,4.41
			c0.56,2.98,1.11,5.97,1.67,8.95c0.16-0.13,0.33-0.26,0.49-0.38"/>
		<path class="st5" d="M340.55,913.66c-2.22-2.98-3.65-6.55-4.11-10.23c-0.06-0.52-0.1-1.08,0.18-1.51
			c0.28-0.43,1.02-0.59,1.31-0.16"/>
		<path class="st5" d="M280.14,1011.17c-0.37,0.41-1.06,0.37-1.53,0.07c-0.46-0.3-0.76-0.8-1.03-1.28c-0.59,0.67-1.05,1.46-1.36,2.3
			c-0.47-0.53-0.93-1.07-1.4-1.6c-0.04,0.42-0.44,0.78-0.87,0.76c-0.42-0.02-0.79-0.42-0.78-0.84c-0.07,0.38-0.68,0.37-0.9,0.06
			c-0.22-0.31-0.16-0.74-0.09-1.11c-0.26,0.66-0.71,1.25-1.27,1.69c-0.21-0.79-0.42-1.59-0.63-2.38c-0.27,0.6-0.58,1.24-1.17,1.53
			s-1.49-0.02-1.5-0.68c-0.31,0.97-2.07,0.82-2.21-0.19c-0.39,0.35-0.78,0.71-1.18,1.06c-0.19-0.83-0.38-1.65-0.56-2.48
			c-0.69,1.02-1.38,2.04-2.07,3.05c-0.1-0.67-0.2-1.34-0.3-2.01c-0.5,0.77-1,1.54-1.5,2.31c-0.31-0.84-0.47-1.72-0.49-2.61
			c-0.45,0.72-1.07,1.33-1.79,1.76c-0.15-0.58-0.3-1.15-0.46-1.73c-0.16,0.4-0.62,0.65-1.05,0.57c0.09-0.6,0.01-1.23-0.23-1.79
			c-0.47,0.77-0.94,1.55-1.4,2.32c-0.06-0.64-0.11-1.27-0.17-1.91c-0.17,0.32-0.5,0.54-0.85,0.6c-0.35-0.88-0.71-1.75-1.06-2.63
			c-0.31,0.28-0.62,0.55-0.93,0.83c-0.24,0.21,0.04,0.7,0.34,0.6c0.3-0.1,0.25-0.65-0.07-0.69"/>
		<path class="st5" d="M196.43,1005.37c-0.11,0.62-1,0.8-1.52,0.46c-0.53-0.34-0.77-0.97-0.98-1.57c-0.45,0.18-0.9,0.35-1.34,0.53
			c-0.05-0.29-0.11-0.58-0.16-0.87c-0.43,0.61-1.09,1.05-1.82,1.2c-0.13-0.54-0.26-1.07-0.39-1.61c-0.48,0.12-0.68,0.66-0.94,1.08
			s-0.91,0.73-1.2,0.34c-0.11-0.15-0.11-0.34-0.12-0.52c-0.01-0.53-0.02-1.07-0.03-1.6c-0.54,0.25-1.01,0.65-1.34,1.15
			c-0.03-0.74-0.06-1.48-0.09-2.21c-0.38,0.49-0.88,0.89-1.45,1.16c-0.15-0.75-0.31-1.49-0.46-2.24c-0.86,0.6-1.63,1.33-2.28,2.16
			c-0.13-1.23-0.25-2.46-0.38-3.69c-0.67,0.79-1.34,1.58-2,2.38c0-0.69-0.01-1.39-0.01-2.08c-0.56,0.34-1.03,0.84-1.33,1.42
			c-0.03-1.05-0.05-2.1-0.08-3.15c-0.72,0.76-1.45,1.52-2.17,2.29c0.04-0.95-0.08-1.91-0.36-2.81c-0.93,0.63-1.63,1.6-1.93,2.68
			c0.44-0.44,0.88-0.89,1.32-1.33c0,1.08-2.54,2.18-2.53,3.26c-0.49-0.26-0.87-0.72-1.03-1.25c-0.91,2.28-1.33,4.75-1.22,7.2
			c0.33-0.8,0.28-1.75-0.15-2.51c-0.41,0.94-0.58,1.98-0.47,3c-0.02-0.74-0.04-1.48-0.06-2.22c-0.49,1.15-0.62,2.44-0.37,3.67
			c-0.17-0.55-0.34-1.11-0.51-1.66c-0.35,0.49-0.7,0.99-1.05,1.48c-0.39-0.43-0.79-0.86-1.18-1.29c-1.07,1.86-1.92,3.85-2.53,5.92
			c-0.14-0.39-0.29-0.77-0.43-1.16c-0.13,1.28-1.28,2.19-2.41,2.8s-2.4,1.11-3.15,2.15c0.28,0.1,0.61,0,0.79-0.23"/>
		<path class="st5" d="M136.92,936.91c-3.89,3.91-3.42,7.84-3.54,12.78c-0.12,4.69-3.27,10.16-5,14.64c-0.58,1.5-1.16,3-1.69,4.52
			c-2.89,8.31-4.25,17.16-3.97,25.95c0.16,4.91,0.65,10.36-2.42,14.19c0.18-0.35,0.35-0.69,0.53-1.04"/>
		<path class="st5" d="M172.41,965.69c2.12,7.34,2.2,15.09,2.27,22.73c0.01,1.1,0.02,2.21-0.14,3.3c-0.12,0.81-0.33,1.62-0.62,2.38"
			/>
		<path class="st5" d="M283.13,1006.57c-2.67-3.2-4.98-6.7-6.88-10.4c-0.32-0.64-0.64-1.28-0.81-1.97
			c-0.89-3.62,2.3-7.08,2.26-10.81"/>
		<path class="st5" d="M275.68,919.8c-4.72,2-8.91,5.25-12.01,9.33c0.02-0.31,0.03-0.62,0.05-0.93"/>
	</g>
</g>
<g>
	<path class="st7" d="M155.14,491.4c-1.63-2.05-2.1-4.76-2.52-7.34c-0.4-2.51-0.8-5.15,0.05-7.54c0.43-1.2,1.14-2.28,1.88-3.33
		c5.59-7.99,12.44-15.1,20.22-20.99c1.9,4.04,3.83,8.16,5.73,12.2c0.74,1.58,1.5,3.17,2.57,4.55c2.32,2.96,5.87,4.6,9.01,6.66
		c2.86,1.87,5.45,4.14,7.68,6.73c1.49,1.74,2.9,3.68,4.97,4.66c1.4,0.67,2.99,0.83,4.54,0.95c2.91,0.22,6.14,0.2,8.34-1.72
		c2.8-2.44,2.66-6.84,1.68-10.42c-0.15-0.56-0.33-1.13-0.65-1.62c-0.52-0.78-1.37-1.26-2.19-1.72c-1.69-0.94-3.37-1.88-5.06-2.82
		c-1.69-0.94-3.42-1.91-4.73-3.34c-1.62-1.77-2.46-4.08-3.52-6.24c-1.41-2.87-3.24-5.53-5.43-7.86c3.11-2.13,7.33-5.4,10.44-7.53
		c1.8-1.23,4.29-2.45,5.97-1.06c0.48-0.55,0.95-1.1,1.43-1.65c0.79,0.29,1.3,1.22,1.1,2.04c3.65-0.03,7.29-0.06,10.94-0.08
		c3.08-0.02,6.32-0.09,8.99-1.61c0.57,0.76,1.15,1.52,1.72,2.28c0.7-1.16,1.65-2.16,2.77-2.92c0.06,0.59,0.12,1.19,0.19,1.78
		c1.25-0.09,2.51-0.18,3.76-0.28c0.25,0.67,0.5,1.33,0.75,2c0.89-0.69,1.78-1.37,2.68-2.06c0.08,0.74,0.17,1.48,0.25,2.21
		c0.81-1.1,2.32-1.64,3.64-1.3c1.07,0.58,2.13,1.16,3.2,1.73c0.69-1.74,3.73-1.62,4.28,0.17c0.46-1.03,1.35-1.86,2.4-2.27
		c-0.05,0.79,0.19,1.6,0.68,2.23c0.74-1.59,2.15-2.86,3.82-3.42c-1.07,7.91-3.49,17.62-4.55,25.53c-0.47,3.51-0.98,7.13-2.78,10.19
		c-2.25,3.83-6.37,6.49-7.86,10.67c-0.16,0.46-0.39,1.02-0.88,1.07c-0.49,0.06-0.57-0.95-0.11-0.77c7.26,2.91,17.1,2.05,24.92,2.28
		c-2.11-3.71,0.1-8.68,2.49-12.22c3.17-4.7,6.33-9.39,9.5-14.09c2.26-3.35,4.52-6.7,6.42-10.27c1.08-2.03,2.04-4.12,2.88-6.27
		c3.34,1.36,5.8,3.9,7.63,7.01c5.26,8.95,12.12,16.83,18.8,24.77c4.23,5.04,8.48,10.24,10.82,16.39c3.44-0.46,6.71,0.75,10.14,0.27
		c4.96-0.7,9.92-1.4,14.88-2.11c-3.61-5.32-6.2-11.7-8.7-17.62c-3.34-7.9-6.32-15.96-8.91-24.13c-1.32-4.15-2.24-9.44,1.12-12.21
		c1.64-1.35,0.72-2.39,0.73-4.51s0.44-4.64,2.37-5.53c-1.24-1.04-2.36-2.23-3.3-3.55c-0.19-0.26-0.37-0.53-0.41-0.85
		c-0.07-0.49,0.21-0.96,0.45-1.4c2.16-3.87,1.91-8.96-0.63-12.59c2.03-1.31,2.2-4.16,2.16-6.57c-0.03-1.72-0.06-3.45-0.1-5.17
		c-0.05-2.93,3.79-3.7,6.3-5.23c2.73-1.66,5.47-3.33,8.2-4.99c0.5-0.3,1.01-0.62,1.33-1.1c0.53-0.77,0.46-1.79,0.57-2.72
		c0.28-2.39,1.97-4.55,4.22-5.41c0.8-0.25,1.6-0.49,2.39-0.74c0.28-2.8,2.41-5.33,5.13-6.07c0.62-4.1,3.78-7.48,7.48-9.35
		c3.7-1.87,7.91-2.44,12.05-2.76c2.23-0.17,4.61-0.33,6.39-1.68s2.45-4.38,0.69-5.76c0.08-4.43,0.5-8.19,0.17-12.6
		c-0.22-3.01-0.22-3.01-1.51-5.58c-4.03-2.73-9.8-0.66-14.13-2.88c-1.27-0.65-2.33-1.64-3.52-2.43c-3.53-2.37-7.99-2.95-12.24-2.75
		c-4.25,0.2-8.44,1.11-12.68,1.43c-2.04,0.16-4.16,0.17-6.06-0.59c-1.24-0.49-2.65-1.3-3.79-0.61c-0.58,2.75-1.16,5.51-1.75,8.26
		c0.53-0.17,1.07-0.33,1.6-0.5c-7.69,0.03-18.2,4.07-24.78,8.06c-2.88,1.75-5.61,3.86-8.82,4.88c-4.01,1.28-8.34,0.73-12.54,0.93
		c-5.21,0.25-10.3,1.66-15.48,2.28c-5.72,0.68-11.51,0.39-17.27,0.09c-17.69-0.91-35.38-1.65-53.09-2.02
		c-15.33-0.33-33.52-0.9-48.14,4.21c-9.41,3.29-18,9.45-23.15,17.98c-2.72,4.51-4.43,9.53-6.11,14.52
		c-1.99,5.87-3.97,11.73-5.96,17.6c-2.47,7.3-5.11,14.24-9.53,20.56c-4.52,6.47-9.17,13.02-15.43,17.82
		c-11.01,8.44-25.51,10.4-39.28,12.08c-1.38,0.17-2.9,0.31-4.07-0.43c-1.07-0.68-1.6-1.93-2.23-3.02
		c-3.49-6.08-12.06-8.59-18.28-5.35c-2.68,1.88-3.68,5.5-3.3,8.75s1.91,6.24,3.41,9.15c2.29,4.45,4.73,9.06,8.77,12.01
		c3.84,2.81,8.73,3.79,13.47,4.14c28.1,2.08,54.4-15.4,72.41-37.08c-2.39,6.98-3.69,12.8-6.08,19.78c-0.56,1.64-1.13,3.36-0.85,5.06
		c0.39,2.4,2.4,4.72,1.5,6.98c-0.2,0.5-0.53,0.94-0.63,1.47c-0.16,0.87,0.36,1.71,0.78,2.49c1.38,2.58,1.85,5.63,1.31,8.51
		c-0.18,0.94,0.41,2.47,1.12,1.83"/>
	<path class="st8" d="M359.03,494.95c-3.61-5.32-6.2-11.7-8.7-17.62c-3.34-7.9-6.32-15.96-8.91-24.13
		c-1.32-4.15-2.24-9.44,1.12-12.21c1.64-1.35,0.72-2.39,0.73-4.51s0.44-4.64,2.37-5.53c-1.24-1.04-2.36-2.23-3.3-3.55
		c-0.19-0.26-0.37-0.53-0.41-0.85c-0.07-0.49,0.21-0.96,0.45-1.4c2.16-3.87,1.91-8.96-0.63-12.59c2.03-1.31,2.2-4.16,2.16-6.57
		c-0.03-1.72-0.06-3.45-0.1-5.17c-0.05-2.93,3.79-3.7,6.3-5.23c2.73-1.66,5.47-3.33,8.2-4.99c0.5-0.3,1.01-0.62,1.33-1.1
		c0.53-0.77,0.46-1.79,0.57-2.72c0.28-2.39,1.97-4.55,4.22-5.41c0.8-0.25,1.6-0.49,2.39-0.74c0.28-2.8,2.41-5.33,5.13-6.07
		c0.62-4.1,3.78-7.48,7.48-9.35c3.7-1.87,7.91-2.44,12.05-2.76c2.23-0.17,4.61-0.33,6.39-1.68s2.45-4.38,0.69-5.76
		c0.08-4.43,0.5-8.19,0.17-12.6c-0.22-3.01-0.22-3.01-1.51-5.58c-4.03-2.73-9.8-0.66-14.13-2.88c-1.27-0.65-2.33-1.64-3.52-2.43
		c-3.53-2.37-7.99-2.95-12.24-2.75c-4.25,0.2-8.44,1.11-12.68,1.43c-2.04,0.16-4.16,0.17-6.06-0.59c-1.24-0.49-2.65-1.3-3.79-0.61
		c-0.58,2.75-1.16,5.51-1.75,8.26c0.53-0.17,1.07-0.33,1.6-0.5c-7.69,0.03-18.2,4.07-24.78,8.06c-2.88,1.75-5.61,3.86-8.82,4.88
		c-4.01,1.28-8.34,0.73-12.54,0.93c-5.21,0.25-10.3,1.66-15.48,2.28c-5.72,0.68-11.51,0.39-17.27,0.09
		c-17.69-0.91-35.38-1.65-53.09-2.02c-15.33-0.33-33.52-0.9-48.14,4.21c-9.41,3.29-18,9.45-23.15,17.98
		c-2.72,4.51-4.43,9.53-6.11,14.52c-1.99,5.87-3.97,11.73-5.96,17.6c-2.47,7.3-5.11,14.24-9.53,20.56
		c-4.52,6.47-9.17,13.02-15.43,17.82c-11.01,8.44-25.51,10.4-39.28,12.08c-1.38,0.17-2.9,0.31-4.07-0.43
		c-1.07-0.68-1.6-1.93-2.23-3.02c-3.49-6.08-12.06-8.59-18.28-5.35c-2.68,1.88-3.68,5.5-3.3,8.75s1.91,6.24,3.41,9.15
		c2.29,4.45,4.73,9.06,8.77,12.01c3.84,2.81,8.73,3.79,13.47,4.14c28.1,2.08,54.4-15.4,72.41-37.08c-2.39,6.98-3.69,12.8-6.08,19.78
		c-0.56,1.64-1.13,3.36-0.85,5.06c0.39,2.4,2.4,4.72,1.5,6.98c-0.2,0.5-0.53,0.94-0.63,1.47c-0.16,0.87,0.36,1.71,0.78,2.49
		c1.38,2.58,1.85,5.63,1.31,8.51c-0.18,0.94,0.41,2.47,1.12,1.83"/>
	<path class="st8" d="M275.47,491.47c-2.11-3.71,0.1-8.68,2.49-12.22c3.17-4.7,6.33-9.39,9.5-14.09c2.26-3.35,4.52-6.7,6.42-10.27
		c1.08-2.03,2.04-4.12,2.88-6.27c3.34,1.36,5.8,3.9,7.63,7.01c5.26,8.95,12.12,16.83,18.8,24.77c4.23,5.04,8.48,10.24,10.82,16.39"
		/>
	<path class="st8" d="M155.14,491.4c-1.63-2.05-2.1-4.76-2.52-7.34c-0.4-2.51-0.8-5.15,0.05-7.54c0.43-1.2,1.14-2.28,1.88-3.33
		c5.59-7.99,12.44-15.1,20.22-20.99c1.9,4.04,3.83,8.16,5.73,12.2c0.74,1.58,1.5,3.17,2.57,4.55c2.32,2.96,5.87,4.6,9.01,6.66
		c2.86,1.87,5.45,4.14,7.68,6.73c1.49,1.74,2.9,3.68,4.97,4.66c1.4,0.67,2.99,0.83,4.54,0.95c2.91,0.22,6.14,0.2,8.34-1.72
		c2.8-2.44,2.66-6.84,1.68-10.42c-0.15-0.56-0.33-1.13-0.65-1.62c-0.52-0.78-1.37-1.26-2.19-1.72c-1.69-0.94-3.37-1.88-5.06-2.82
		c-1.69-0.94-3.42-1.91-4.73-3.34c-1.62-1.77-2.46-4.08-3.52-6.24c-1.41-2.87-3.24-5.53-5.43-7.86c3.11-2.13,7.33-5.4,10.44-7.53
		c1.8-1.23,4.29-2.45,5.97-1.06c0.48-0.55,0.95-1.1,1.43-1.65c0.79,0.29,1.3,1.22,1.1,2.04c3.65-0.03,7.29-0.06,10.94-0.08
		c3.08-0.02,6.32-0.09,8.99-1.61c0.57,0.76,1.15,1.52,1.72,2.28c0.7-1.16,1.65-2.16,2.77-2.92c0.06,0.59,0.12,1.19,0.19,1.78
		c1.25-0.09,2.51-0.18,3.76-0.28c0.25,0.67,0.5,1.33,0.75,2c0.89-0.69,1.78-1.37,2.68-2.06c0.08,0.74,0.17,1.48,0.25,2.21
		c0.81-1.1,2.32-1.64,3.64-1.3c1.07,0.58,2.13,1.16,3.2,1.73c0.69-1.74,3.73-1.62,4.28,0.17c0.46-1.03,1.35-1.86,2.4-2.27
		c-0.05,0.79,0.19,1.6,0.68,2.23c0.74-1.59,2.15-2.86,3.82-3.42c-1.07,7.91-3.49,17.62-4.55,25.53c-0.47,3.51-0.98,7.13-2.78,10.19
		c-2.25,3.83-6.37,6.49-7.86,10.67c-0.16,0.46-0.39,1.02-0.88,1.07c-0.49,0.06-0.57-0.95-0.11-0.77"/>
	<path class="st0" d="M398.25,345.76c-1.26-1.24-2.51-2.48-3.77-3.72c-0.47-0.46-0.93-1.26-0.43-1.68c0.32-0.27,0.8-0.13,1.21-0.22
		c0.54-0.12,0.9-0.63,1.32-1c2.12-1.86,1.62,5.45,1.54,6.49"/>
	<path class="st0" d="M382.27,338.6c-0.77,0.69-1.63,1.38-2.65,1.51s-2.22-0.58-2.21-1.62c0.16-0.93,0.86-1.76,1.77-2.04
		c0.9-0.28,1.97,0.02,2.57,0.75c-0.12,0.36-0.24,0.72-0.36,1.08"/>
	<g>
		<path class="st5" d="M398.29,354.08c-1.63,1.63-3.3,3.28-5.38,4.27c-2.22,1.06-4.73,1.27-7.18,1.47c0.8,0.03,1.59,0.07,2.39,0.1"
			/>
		<path class="st5" d="M344.78,336.93c2.55-1.64,5.11-3.28,7.82-4.64c1.84-0.92,3.76-1.71,5.71-2.35"/>
		<path class="st5" d="M357.79,337.39c-2.12-0.54-4.28-0.92-6.46-1.15c-0.65-0.07-1.35-0.12-1.94,0.16c-1.48,0.7-1.41,2.8-1.11,4.41
			c0.56,2.98,1.11,5.97,1.67,8.95c0.16-0.13,0.33-0.26,0.49-0.38"/>
		<path class="st5" d="M355.45,349.1c-2.22-2.98-3.65-6.55-4.11-10.23c-0.06-0.52-0.1-1.08,0.18-1.51c0.28-0.43,1.02-0.59,1.31-0.16
			"/>
		<path class="st5" d="M295.04,446.6c-0.37,0.41-1.06,0.37-1.53,0.07c-0.46-0.3-0.76-0.8-1.03-1.28c-0.59,0.67-1.05,1.46-1.36,2.3
			c-0.47-0.53-0.93-1.07-1.4-1.6c-0.04,0.42-0.44,0.78-0.87,0.76s-0.79-0.42-0.78-0.84c-0.07,0.38-0.68,0.37-0.9,0.06
			c-0.22-0.31-0.16-0.74-0.09-1.11c-0.26,0.66-0.71,1.25-1.27,1.69c-0.21-0.79-0.42-1.59-0.63-2.38c-0.27,0.6-0.58,1.24-1.17,1.53
			c-0.59,0.3-1.49-0.02-1.5-0.68c-0.31,0.97-2.07,0.82-2.21-0.19c-0.39,0.35-0.78,0.71-1.18,1.06c-0.19-0.83-0.38-1.65-0.56-2.48
			c-0.69,1.02-1.38,2.04-2.07,3.05c-0.1-0.67-0.2-1.34-0.3-2.01c-0.5,0.77-1,1.54-1.5,2.31c-0.31-0.84-0.47-1.72-0.49-2.61
			c-0.45,0.72-1.07,1.33-1.79,1.76c-0.15-0.58-0.3-1.15-0.46-1.73c-0.16,0.4-0.62,0.65-1.05,0.57c0.09-0.6,0.01-1.23-0.23-1.79
			c-0.47,0.77-0.94,1.55-1.4,2.32c-0.06-0.64-0.11-1.27-0.17-1.91c-0.17,0.32-0.5,0.54-0.85,0.6c-0.35-0.88-0.71-1.75-1.06-2.63
			c-0.31,0.28-0.62,0.55-0.93,0.83c-0.24,0.21,0.04,0.7,0.34,0.6c0.3-0.1,0.25-0.65-0.07-0.69"/>
		<path class="st5" d="M211.33,440.8c-0.11,0.62-1,0.8-1.52,0.46c-0.53-0.34-0.77-0.97-0.98-1.57c-0.45,0.18-0.9,0.35-1.34,0.53
			c-0.05-0.29-0.11-0.58-0.16-0.87c-0.43,0.61-1.09,1.05-1.82,1.2c-0.13-0.54-0.26-1.07-0.39-1.61c-0.48,0.12-0.68,0.66-0.94,1.08
			s-0.91,0.73-1.2,0.34c-0.11-0.15-0.11-0.34-0.12-0.52c-0.01-0.53-0.02-1.07-0.03-1.6c-0.54,0.25-1.01,0.65-1.34,1.15
			c-0.03-0.74-0.06-1.48-0.09-2.21c-0.38,0.49-0.88,0.89-1.45,1.16c-0.15-0.75-0.31-1.49-0.46-2.24c-0.86,0.6-1.63,1.33-2.28,2.16
			c-0.13-1.23-0.25-2.46-0.38-3.69c-0.67,0.79-1.34,1.58-2,2.38c0-0.69-0.01-1.39-0.01-2.08c-0.56,0.34-1.03,0.84-1.33,1.42
			c-0.03-1.05-0.05-2.1-0.08-3.15c-0.72,0.76-1.45,1.52-2.17,2.29c0.04-0.95-0.08-1.91-0.36-2.81c-0.93,0.63-1.63,1.6-1.93,2.68
			c0.44-0.44,0.88-0.89,1.32-1.33c0,1.08-2.54,2.18-2.53,3.26c-0.49-0.26-0.87-0.72-1.03-1.25c-0.91,2.28-1.33,4.75-1.22,7.2
			c0.33-0.8,0.28-1.75-0.15-2.51c-0.41,0.94-0.58,1.98-0.47,3c-0.02-0.74-0.04-1.48-0.06-2.22c-0.49,1.15-0.62,2.44-0.37,3.67
			c-0.17-0.55-0.34-1.11-0.51-1.66c-0.35,0.49-0.7,0.99-1.05,1.48c-0.39-0.43-0.79-0.86-1.18-1.29c-1.07,1.86-1.92,3.85-2.53,5.92
			c-0.14-0.39-0.29-0.77-0.43-1.16c-0.13,1.28-1.28,2.19-2.41,2.8c-1.13,0.61-2.4,1.11-3.15,2.15c0.28,0.1,0.61,0,0.79-0.23"/>
		<path class="st5" d="M151.82,372.35c-3.89,3.92-3.42,7.84-3.54,12.78c-0.12,4.69-3.27,10.16-5,14.64c-0.58,1.5-1.16,3-1.69,4.52
			c-2.89,8.31-4.25,17.16-3.97,25.95c0.16,4.91,0.65,10.36-2.42,14.19c0.18-0.35,0.35-0.69,0.53-1.04"/>
		<path class="st5" d="M187.31,401.12c2.12,7.34,2.2,15.09,2.27,22.73c0.01,1.1,0.02,2.21-0.14,3.3c-0.12,0.81-0.33,1.62-0.62,2.38"
			/>
		<path class="st5" d="M298.03,442c-2.67-3.2-4.98-6.7-6.88-10.4c-0.32-0.64-0.64-1.28-0.81-1.97c-0.89-3.62,2.3-7.08,2.26-10.81"/>
		<path class="st5" d="M290.59,355.24c-4.72,2-8.91,5.25-12.01,9.33c0.02-0.31,0.03-0.62,0.05-0.93"/>
	</g>
</g>
<g>
	<rect x="6.68" y="535.66" class="st9" width="537.72" height="139.44"/>
	<text transform="matrix(1 0 0 1 6.6771 561.1646)"><tspan x="0" y="0" class="st0 st3 st4">The snow leopard is carnivorous, </tspan><tspan x="0" y="40.8" class="st0 st3 st4">and can eat prey three times larger </tspan><tspan x="0" y="81.6" class="st0 st3 st4">than itself. </tspan></text>
</g>
</svg>
