<?xml version="1.0" encoding="utf-8"?>
<!-- Generator: Adobe Illustrator 27.0.0, SVG Export Plug-In . SVG Version: 6.00 Build 0)  -->
<svg version="1.1" id="Layer_1" xmlns="http://www.w3.org/2000/svg" xmlns:xlink="http://www.w3.org/1999/xlink" x="0px" y="0px"
	 viewBox="0 0 800 731" style="enable-background:new 0 0 800 731;" xml:space="preserve">
<style type="text/css">
	@import url('https://fonts.googleapis.com/css?family=Roboto:300,400,700');
	.st0{fill:#DDDFE3;}
	.st1{fill:#221E1F;}
	.st2{font-family:'Roboto';font-weight: 700;}
	.st3{font-size:28px;}
	.st4{fill:#00ADEE;}
	.st5{fill:none;stroke:#221E1F;stroke-width:2;stroke-miterlimit:10;}
	.st6{fill:none;stroke:#00ADEE;stroke-width:2;stroke-miterlimit:10;}
	.st7{fill:none;stroke:#221E1F;stroke-miterlimit:10;}
	.st8{fill:none;stroke:#00ADEE;stroke-miterlimit:10;}
	.st9{fill:none;stroke:#231815;stroke-miterlimit:10;}
	.st10{font-family:'Roboto';font-weight: 300;}
	.st11{fill:none;}
</style>
<g>
	<path class="st0" d="M95.44,208.12c-11.86,18.15-23.83,36.54-30.91,56.95c-7.08,20.41-8.88,43.38-0.35,63.25
		c2.07,4.83,4.22,11.52-0.27,14.36c-4.09-2.91-8.18-5.83-12.27-8.74c0.3,5.81,4.92,26.92,1.16,31.37
		c-4.84,5.74-9.04-7.95-10.37-12.05c-5.06-15.63-4.95-33.22-3.21-49.38c2.41-22.44,5.72-45.8,12.33-67.47
		c7.8-25.55,15.47-50.81,24.34-75.83c2.35-6.64,4.9-13.57,10.18-18.33c6.67-6,16.26-7.31,25.01-9.62s18.18-6.96,20.44-15.56
		c1.92-7.32,2.39-16.68-2.91-22.17c-1.86-1.92-4.13-3.45-5.9-5.45c-1.77-2.01-3-4.47-3.52-7.07c-0.66-3.31,1.45-7.98,4.73-6.96
		c-1.64-10.24-3.06-21.56,2.73-30.22c3.9-5.83,10.52-9.43,17.33-11.43c2.83-0.83,5.76-1.42,8.72-1.36
		c9.45,0.18,17.71,7.17,21.78,15.54c4.07,8.37,4.66,17.93,4.63,27.2c3.19,0.63,2.62,5.54,0.99,8.31
		c-6.4,10.88-9.15,23.79-7.73,36.28c12.52,6.88,25.05,13.77,37.57,20.65c4.02,2.21,8.17,4.53,10.87,8.18
		c2.79,3.77,3.72,8.51,4.59,13.09c1.98,10.51,3.96,21.01,5.94,31.52c1.81,9.61,3.11,21.56,6.86,30.62
		c2.65,6.39,6.82,12.1,9.37,18.53c2.68,6.75,3.48,14.04,4.25,21.24c1.66,15.42,3.32,30.84,4.98,46.26
		c1.11,10.33,4.57,21.98,2.54,32.17c-2.03,10.2-9.92,20.05-20.48,20.97c-1.71-1.86-0.33-4.95,1.72-6.43
		c2.05-1.48,4.66-2.16,6.54-3.85c4.42-3.98,2.74-11.03,0.72-16.57c-0.93,5.35-6.74,9.39-12.19,8.48c1.09-5.11,2.18-10.23,3.28-15.34
		c1.91-8.96,3.84-18.12,2.75-27.21c-1.88-15.82-12.48-29.16-18.41-43.98c-7.1-17.74-8.13-38.8-21.69-52.47
		c-1.08,15.63-2.27,31.16-7.82,45.85c-5.33,14.11,1.73,29.37,3.85,44.27c3.32,23.34,6.63,46.68,9.95,70.02
		c4.31,30.31-0.38,60.86,2.51,91.07c2.11,22.04,3.75,44.13,4.09,66.27c0.3,19.09-3.13,41.81,7.47,58.98
		c2.58,4.17,5.84,7.96,7.77,12.46c1.93,4.49,2.27,10.09-0.84,13.9c-2.63,3.22-7.15,4.44-11.36,4.31
		c-8.12-0.24-15.93-5.06-19.67-12.14c-1-1.88-1.77-3.97-3.38-5.39c-2.99-2.64-8.02-2.21-10.75-5.12c-2.83-3.02-1.67-7.75-1.02-11.8
		c2.88-17.73-0.04-37.13-1.02-54.98c-1.66-30.19-3.36-60.67-11.66-89.78c-5.84-20.5-11.02-41.38-16.59-62.28
		c-0.72-2.71-1.5-5.49-3.24-7.7c-1.74-2.21-4.72-3.73-7.46-2.98c-4.29,1.17-5.38,6.51-5.94,10.85c-0.77,5.88-2.03,11.69-3.75,17.37
		c-2.58,8.5-6.21,16.67-8.99,25.1c-5.73,17.35-9.02,36.69-9.63,54.92c-0.59,17.66-4.59,33.83-8.4,51.16
		c-3.24,14.77-3.14,29.5-5.04,44.29c-0.73,5.67-1.46,11.38-3.27,16.81c-2.42,7.28-6.68,13.82-10.9,20.26
		c-6.27,9.59-23.99,18.25-31.27,3.13c-2.64-5.47,0.56-11.78,3.42-17.15c8.36-15.67,12.25-29.08,13.52-46.4
		c1.82-24.82,5.73-47.44,6.56-72.32c0.08-2.47,0.15-4.95,0.56-7.38c1.2-7.13,1.77-15.36,3.33-22.42c1.45-6.57,1.35-13.35,1.24-20.07
		c-0.38-23.44-0.76-46.88-1.14-70.32c-0.27-16.34,1.79-31.17,6.38-46.87C98.15,270.55,99.33,240.07,95.44,208.12z"/>
</g>
<image style="overflow:visible;" width="800" height="483" xlink:href="26F7C4C80802FC8A.png"  transform="matrix(1 0 0 1 0.0952 170.8203)">
</image>
<g>
	<text transform="matrix(1 0 0 1 642.7695 170.3296)" class="st1 st2 st3">3.7 m</text>
</g>
<text transform="matrix(1 0 0 1 298.4781 673.748)" class="st4 st2 st3">2.1 m</text>
<line class="st5" x1="798.52" y1="239.88" x2="798.52" y2="201.56"/>
<line class="st6" x1="591.51" y1="653.7" x2="591.51" y2="615.38"/>
<line class="st6" x1="41.65" y1="653.7" x2="41.65" y2="615.38"/>
<line class="st5" x1="2.99" y1="239.05" x2="2.99" y2="200.73"/>
<line class="st7" x1="793.1" y1="219.89" x2="7.99" y2="219.89"/>
<line class="st8" x1="581.51" y1="635.37" x2="49.99" y2="635.37"/>
<g>
	<path class="st9" d="M95.79,208.47c-11.82,18.09-23.74,36.4-30.79,56.74s-8.84,43.23-0.35,63.03c2.06,4.81,4.2,11.48-0.27,14.31
		c-4.07-2.9-8.15-5.81-12.22-8.71c0.3,5.79,4.9,26.82,1.16,31.26c-4.82,5.72-9.01-7.92-10.33-12.01c-5.04-15.58-4.93-33.1-3.2-49.2
		c2.4-22.36,5.7-45.64,12.29-67.23c7.77-25.45,15.42-50.63,24.25-75.56c2.35-6.62,4.88-13.52,10.14-18.26
		c6.65-5.98,16.2-7.29,24.92-9.58c8.71-2.3,18.12-6.94,20.36-15.51c1.91-7.29,2.38-16.62-2.9-22.09c-1.85-1.92-4.11-3.43-5.87-5.43
		c-1.76-2-2.98-4.45-3.5-7.05c-0.66-3.3,1.45-7.95,4.72-6.94c-1.63-10.2-3.05-21.48,2.72-30.11c3.88-5.81,10.48-9.4,17.27-11.39
		c2.82-0.83,5.74-1.42,8.68-1.36c9.42,0.18,17.65,7.14,21.7,15.48c4.05,8.34,4.65,17.86,4.61,27.1c3.18,0.63,2.61,5.52,0.99,8.28
		c-6.38,10.84-9.12,23.71-7.7,36.15c12.48,6.86,24.95,13.72,37.43,20.57c4,2.2,8.14,4.51,10.83,8.15c2.78,3.75,3.71,8.48,4.57,13.04
		c1.97,10.47,3.95,20.94,5.92,31.41c1.81,9.58,3.1,21.48,6.84,30.51c2.64,6.37,6.8,12.06,9.34,18.47
		c2.67,6.72,3.46,13.99,4.24,21.17c1.65,15.36,3.31,30.73,4.96,46.09c1.11,10.29,4.55,21.9,2.53,32.05s-9.89,19.98-20.4,20.89
		c-1.7-1.85-0.33-4.93,1.71-6.41s4.64-2.15,6.52-3.84c4.4-3.96,2.73-10.99,0.72-16.51c-0.93,5.33-6.71,9.35-12.15,8.45
		c1.09-5.1,2.18-10.19,3.26-15.29c1.91-8.93,3.82-18.05,2.74-27.11c-1.88-15.76-12.43-29.06-18.34-43.83
		c-7.08-17.68-8.1-38.66-21.61-52.28c-1.07,15.58-2.26,31.04-7.79,45.68c-5.31,14.06,1.73,29.26,3.84,44.11
		c3.3,23.25,6.61,46.51,9.91,69.76c4.29,30.2-0.38,60.64,2.5,90.74c2.1,21.96,3.73,43.97,4.07,66.03
		c0.29,19.03-3.12,41.66,7.45,58.76c2.57,4.15,5.82,7.93,7.74,12.41c1.92,4.48,2.26,10.06-0.84,13.85
		c-2.62,3.21-7.13,4.42-11.32,4.29c-8.09-0.24-15.87-5.05-19.6-12.09c-0.99-1.88-1.76-3.95-3.36-5.37
		c-2.98-2.63-7.99-2.21-10.71-5.1c-2.82-3.01-1.67-7.72-1.01-11.75c2.87-17.67-0.04-37-1.02-54.79
		c-1.65-30.08-3.35-60.45-11.62-89.46c-5.82-20.42-10.98-41.23-16.53-62.06c-0.72-2.7-1.49-5.47-3.23-7.67
		c-1.74-2.2-4.7-3.72-7.44-2.97c-4.28,1.17-5.36,6.49-5.92,10.81c-0.77,5.86-2.02,11.65-3.74,17.31c-2.57,8.47-6.18,16.6-8.96,25.01
		c-5.71,17.29-8.99,36.55-9.6,54.72c-0.59,17.6-4.57,33.71-8.37,50.98c-3.23,14.72-3.13,29.4-5.02,44.13
		c-0.72,5.65-1.46,11.33-3.26,16.75c-2.41,7.25-6.66,13.77-10.86,20.19c-6.25,9.56-23.9,18.19-31.16,3.12
		c-2.63-5.45,0.55-11.74,3.41-17.08c8.33-15.61,12.21-28.97,13.47-46.23c1.81-24.73,5.71-47.27,6.54-72.06
		c0.08-2.46,0.15-4.93,0.56-7.35c1.19-7.1,1.76-15.3,3.31-22.34c1.44-6.54,1.34-13.3,1.23-20c-0.38-23.35-0.76-46.71-1.14-70.06
		c-0.26-16.28,1.79-31.05,6.36-46.71C98.48,270.68,99.66,240.31,95.79,208.47z"/>
</g>
<g>
	<text transform="matrix(1 0 0 1 613.2041 202.2305)" class="st1 st10 st3">Amur tiger</text>
</g>
<text transform="matrix(1 0 0 1 249.314 704.7402)" class="st1 st10 st3">Snow leopard</text>
<g>
	<rect x="208.23" y="28.51" class="st11" width="313.86" height="92.93"/>
	<text transform="matrix(1 0 0 1 208.2315 49.5137)"><tspan x="0" y="0" class="st1 st2 st3">1.7 m</tspan><tspan x="0" y="32.43" class="st1 st10 st3">Height of an average </tspan><tspan x="0" y="64.86" class="st1 st10 st3">human male</tspan></text>
</g>
</svg>
