<?xml version="1.0" encoding="utf-8"?>
<!-- Generator: Adobe Illustrator 27.0.0, SVG Export Plug-In . SVG Version: 6.00 Build 0)  -->
<svg version="1.1" id="Layer_1" xmlns="http://www.w3.org/2000/svg" xmlns:xlink="http://www.w3.org/1999/xlink" x="0px" y="0px"
	 viewBox="0 0 800 300" style="enable-background:new 0 0 800 300;" xml:space="preserve">
<style type="text/css">
	@import url('https://fonts.googleapis.com/css?family=Roboto:300,400,700');
	.st0{fill:#221E1F;}
	.st1{font-family:'Roboto';font-weight: 700;}
	.st2{font-size:38.2545px;}
	.st3{font-size:28.6908px;}
	.st4{fill:#A39B8C;}
	.st5{fill:#00ADEE;}
	.st6{fill:#FFFFFF;}
	.st7{font-family:'Roboto';font-weight: 300;}
	.st8{font-size:26px;}
	.st9{fill:none;stroke:#221E1F;stroke-width:0.4128;stroke-miterlimit:10;}
</style>
<g>
	<g>
		<text transform="matrix(1 0 0 1 239.6171 58.469)"><tspan x="0" y="0" class="st0 st1 st2">EXTINCTION RISK</tspan><tspan x="-212.68" y="41.63" class="st0 st1 st3">International Union for Conservation of Nature classification</tspan></text>
	</g>
	<path class="st4" d="M183.37,207.27h-56.01c-1.8,0-3.25-1.46-3.25-3.25v-42.75c0-1.8,1.46-3.25,3.25-3.25h56.01
		c1.8,0,3.25,1.46,3.25,3.25v42.75C186.62,205.81,185.16,207.27,183.37,207.27z"/>
	<path class="st4" d="M262.89,207.27h-56.01c-1.8,0-3.25-1.46-3.25-3.25v-42.75c0-1.8,1.46-3.25,3.25-3.25h56.01
		c1.8,0,3.25,1.46,3.25,3.25v42.75C266.14,205.81,264.68,207.27,262.89,207.27z"/>
	<path class="st5" d="M342.4,207.27h-56.01c-1.8,0-3.25-1.46-3.25-3.25v-42.75c0-1.8,1.46-3.25,3.25-3.25h56.01
		c1.8,0,3.25,1.46,3.25,3.25v42.75C345.65,205.81,344.2,207.27,342.4,207.27z"/>
	<path class="st4" d="M421.92,207.27H365.9c-1.8,0-3.25-1.46-3.25-3.25v-42.75c0-1.8,1.46-3.25,3.25-3.25h56.01
		c1.8,0,3.25,1.46,3.25,3.25v42.75C425.17,205.81,423.71,207.27,421.92,207.27z"/>
	<path class="st4" d="M501.44,207.27h-56.01c-1.8,0-3.25-1.46-3.25-3.25v-42.75c0-1.8,1.46-3.25,3.25-3.25h56.01
		c1.8,0,3.25,1.46,3.25,3.25v42.75C504.69,205.81,503.23,207.27,501.44,207.27z"/>
	<path class="st4" d="M580.95,207.27h-56.01c-1.8,0-3.25-1.46-3.25-3.25v-42.75c0-1.8,1.46-3.25,3.25-3.25h56.01
		c1.8,0,3.25,1.46,3.25,3.25v42.75C584.2,205.81,582.75,207.27,580.95,207.27z"/>
	<path class="st4" d="M660.47,207.27h-56.01c-1.8,0-3.25-1.46-3.25-3.25v-42.75c0-1.8,1.46-3.25,3.25-3.25h56.01
		c1.8,0,3.25,1.46,3.25,3.25v42.75C663.72,205.81,662.26,207.27,660.47,207.27z"/>
	<text transform="matrix(1 0 0 1 617.1744 195.847)" class="st6 st1 st3">EX</text>
	<text transform="matrix(1 0 0 1 530.4467 195.847)" class="st6 st1 st3">EW</text>
	<text transform="matrix(1 0 0 1 453.2893 195.847)" class="st6 st1 st3">CR</text>
	<g>
		<text transform="matrix(1 0 0 1 374.4048 195.847)" class="st6 st1 st3">EN</text>
	</g>
	<g>
		<text transform="matrix(1 0 0 1 294.5487 195.847)" class="st6 st1 st3">VU</text>
	</g>
	<text transform="matrix(1 0 0 1 215.1359 195.847)" class="st6 st1 st3">NT</text>
	<text transform="matrix(1 0 0 1 137.7568 195.847)" class="st6 st1 st3">LC</text>
	<text transform="matrix(1 0 0 1 499.7 139.3647)" class="st0 st7 st8">Most risk</text>
	<g>
		<g>
			<line class="st9" x1="609.15" y1="132.36" x2="648.14" y2="132.36"/>
			<g>
				<path class="st0" d="M645.32,134.35c-0.06-0.1-0.03-0.22,0.06-0.29l2.66-1.7l-2.66-1.7c-0.1-0.06-0.12-0.19-0.06-0.29
					c0.06-0.1,0.19-0.12,0.29-0.06l2.94,1.87c0.06,0.04,0.1,0.1,0.1,0.17c0,0.07-0.04,0.14-0.1,0.17l-2.94,1.87
					c-0.03,0.02-0.07,0.03-0.11,0.03C645.42,134.44,645.36,134.41,645.32,134.35z"/>
			</g>
		</g>
	</g>
	<text transform="matrix(1 0 0 1 178.4698 139.3647)" class="st0 st7 st8">Less risk</text>
	<text transform="matrix(1 0 0 1 124.0338 237.0451)" class="st0 st7 st8">Least concern</text>
	<text transform="matrix(1 0 0 1 589.2255 237.0451)" class="st0 st7 st8">Extinct</text>
	<g>
		<g>
			<line class="st9" x1="169.78" y1="132.36" x2="130.79" y2="132.36"/>
			<g>
				<path class="st0" d="M133.61,130.38c0.06,0.1,0.03,0.22-0.06,0.29l-2.66,1.7l2.66,1.7c0.1,0.06,0.12,0.19,0.06,0.29
					s-0.19,0.12-0.29,0.06l-2.94-1.87c-0.06-0.04-0.1-0.1-0.1-0.17c0-0.07,0.04-0.14,0.1-0.17l2.94-1.87
					c0.03-0.02,0.07-0.03,0.11-0.03C133.51,130.29,133.57,130.32,133.61,130.38z"/>
			</g>
		</g>
	</g>
	<g>
		<g>
			<text transform="matrix(1 0 0 1 239.3979 267.3697)" class="st0 st1 st3">Vulnerable</text>
		</g>
		<polygon class="st0" points="325.62,236.77 292.12,236.77 308.87,220.02 		"/>
	</g>
</g>
</svg>
